<?xml version="1.0" encoding="UTF-8" standalone="no"?>
<svg
   width="33.834221pt"
   height="50.123653pt"
   viewBox="0 0 33.834221 50.123653"
   version="1.1"
   id="svg1438"
   sodipodi:docname="logotype-plain_black (copy).svg"
   inkscape:version="1.2.2 (b0a8486541, 2022-12-01)"
   xmlns:inkscape="http://www.inkscape.org/namespaces/inkscape"
   xmlns:sodipodi="http://sodipodi.sourceforge.net/DTD/sodipodi-0.dtd"
   xmlns="http://www.w3.org/2000/svg"
   xmlns:svg="http://www.w3.org/2000/svg">
  <defs
     id="defs1442" />
  <sodipodi:namedview
     id="namedview1440"
     pagecolor="#ffffff"
     bordercolor="#666666"
     borderopacity="1.0"
     inkscape:showpageshadow="2"
     inkscape:pageopacity="0.0"
     inkscape:pagecheckerboard="0"
     inkscape:deskcolor="#d1d1d1"
     inkscape:document-units="pt"
     showgrid="false"
     inkscape:zoom="1.4482356"
     inkscape:cx="126.01541"
     inkscape:cy="-59.382603"
     inkscape:window-width="1366"
     inkscape:window-height="691"
     inkscape:window-x="0"
     inkscape:window-y="0"
     inkscape:window-maximized="1"
     inkscape:current-layer="svg1438" />
  <path
     fill="#11511f"
     opacity="1"
     d="m 11.38,4.5774611 c 5.21,-4.88999996 14.59,-6.64 20.16,-1.34 2.78,3.27 3.05,8.4299999 0.72,12.0299999 -0.02,0.03 -0.05,0.08 -0.07,0.1 -2.07,2.59 -4.95,4.33 -7.78,5.96 -0.03,4.34 -0.91,8.64 -2.6,12.64 -0.02,0.07 -0.08,0.2 -0.1,0.27 -1.22,1.74 -1.32,5.23 -3.96,5.32 2.55,-3.47 4.15,-7.48 5.29,-11.61 -1.04,-0.51 -3.13,-1.53 -4.18,-2.04 1.14,0.37 3.42,1.12 4.57,1.5 -0.03,-2.31 -0.07,-4.62 -0.2,-6.92 -3.24,0.79 -6.35,2.02 -9.56,2.91 1.81,4.4 3.58,8.81 5.4,13.2 -0.71,0.76 -1.43,1.53 -2.14,2.3 0.21,0.16 0.61,0.49 0.82,0.66 l 1.01,0.8 c -2.03,3.26 -3.05,7.98 -7.21,9.16 -3.97,0.6 -9.46,1.81 -11.55,-2.75 0.4,-7.03 1.02,-14.13 2.74,-20.99 0.13,-1.58 1.74,-2.25 2.72,-3.25 -0.53,-0.03 -1.58,-0.07 -2.11,-0.1 1.67,-6.32 4.26,-12.5099999 8.03,-17.8499999 m 17.58,-1.53 c 0.54,0.5 0.54,0.5 0,0 m -12.22,3.7 C 12.8,10.307461 9.59,15.157461 9.3,20.597461 c 3.91,-0.92 7.97,-1.18 11.82,-2.31 3.26,-1.88 6.81,-3.71 9.04,-6.85 1.88,-2.7099999 -0.47,-6.6799999 -3.58,-6.9999999 -3.38,-0.29 -7.26,-0.18 -9.84,2.31 m -2.74,0.25 c 0.55,0.67 0.55,0.67 0,0 M 8.79,12.907461 c -1.56,3.01 3.3,0.15 0,0 m -1.04,11.82 c -1.97,5.98 -1.73,12.42 -1.27,18.62 3.66,0.47 7.05,-0.89 9.42,-3.68 -0.13,-4.53 -3.16,-8.14 -4.92,-12.12 -0.8,-1.09 -1.38,-3.81 -3.23,-2.82 m 3.12,0.3 c 0.57,0.59 0.57,0.59 0,0 m -9.12,18.82 c -1.58,2.98 3.29,0.22 0,0 m 4.15,4.19 c 0.61,0.58 0.61,0.58 0,0 z"
     id="path145" />
  <path
     fill="#11511f"
     opacity="1"
     d="m 23.64,14.417461 0.34,-0.1 c -0.08,0.09 -0.22,0.29 -0.29,0.39 z"
     id="path157" />
  <g
     id="#535353ff"
     transform="translate(-347.35,-236.21254)">
    <path
       fill="#535353"
       opacity="1"
       d="m 379.54,251.58 c 0.02,-0.02 0.05,-0.07 0.07,-0.1 -0.02,0.03 -0.05,0.08 -0.07,0.1 z"
       id="path837" />
  </g>
  <g
     id="#919191ff"
     transform="translate(-347.35,-236.21254)">
    <path
       fill="#919191"
       opacity="1"
       d="m 358.22,261.24 c 0.57,0.59 0.57,0.59 0,0 z"
       id="path866" />
  </g>
  <g
     id="#6abbdeff"
     transform="translate(-347.35,-236.21254)">
    <path
       fill="#6abbde"
       opacity="1"
       d="m 369.06,270.45 c 0.02,-0.07 0.08,-0.2 0.1,-0.27 -0.02,0.07 -0.08,0.2 -0.1,0.27 z"
       id="path872" />
  </g>
  <g
     id="#a1a1a1ff"
     transform="translate(-347.35,-236.21254)">
    <path
       fill="#a1a1a1"
       opacity="1"
       d="m 353.25,284.25 c 0.61,0.58 0.61,0.58 0,0 z"
       id="path926" />
  </g>
</svg>
