<?xml version="1.0" encoding="UTF-8" standalone="no"?>
<svg
   width="117.01119pt"
   height="66.317139pt"
   viewBox="0 0 117.01119 66.317139"
   version="1.1"
   id="svg1438"
   sodipodi:docname="sample_comicscover (another copy).svg"
   inkscape:version="1.2.2 (b0a8486541, 2022-12-01)"
   xmlns:inkscape="http://www.inkscape.org/namespaces/inkscape"
   xmlns:sodipodi="http://sodipodi.sourceforge.net/DTD/sodipodi-0.dtd"
   xmlns="http://www.w3.org/2000/svg"
   xmlns:svg="http://www.w3.org/2000/svg">
  <defs
     id="defs1442" />
  <sodipodi:namedview
     id="namedview1440"
     pagecolor="#ffffff"
     bordercolor="#666666"
     borderopacity="1.0"
     inkscape:showpageshadow="2"
     inkscape:pageopacity="0.0"
     inkscape:pagecheckerboard="0"
     inkscape:deskcolor="#d1d1d1"
     inkscape:document-units="pt"
     showgrid="false"
     inkscape:zoom="0.51202861"
     inkscape:cx="-170.88889"
     inkscape:cy="54.684444"
     inkscape:window-width="1366"
     inkscape:window-height="691"
     inkscape:window-x="0"
     inkscape:window-y="0"
     inkscape:window-maximized="1"
     inkscape:current-layer="svg1438" />
  <path
     fill="#000000"
     opacity="1"
     d="m 21.976974,0.88094486 c 3.78,-0.53 7.61,-0.41 11.41,-0.78 2.96,-0.14 5.93,-0.15 8.89,0.07 4.31,0.78 8.44,2.33000004 12.53,3.86000004 0.08,1.04 0.64,1.78 1.67,2.25 0.66,1.15 1.12,2.4 1.62,3.63 -0.56,-0.18 -1.68,-0.54 -2.25,-0.72 0.07,1.5400001 0.19,3.0900001 0.83,4.5200001 4.46,-2.41 6.43,-7.6400001 10.85,-10.0400001 4.73,-1.32 9.65,0.71 13.76,2.96 3.17,2 2.87,6.2000001 3.73,9.4300001 1.4,6.86 -3.69,12.71 -8.45,16.95 -1.32,8.37 -3.37,16.61 -6.39,24.53 l -0.84,-0.29 c 1.58,-4.24 3.29,-8.5 4.04,-12.98 -1.45,-0.74 -2.87,-1.52 -4.13,-2.54 1.51,0.44 2.99,0.99 4.46,1.55 0.71,-3.23 1.4,-6.46 1.9,-9.73 -5.77,3.51 -12.25,0.61 -18.37,0.28 0.13,0.91 0.4,2.73 0.53,3.63 0.46,-0.45 0.92,-0.89 1.38,-1.34 3.24,2.03 7.09,2.83 10.21,5.08 -3.88,-1 -7.46,-2.84 -11.29,-3.97 4.49,6.83 6.32,14.93 10.4,21.98 0.22,-0.49 0.65,-1.47 0.87,-1.96 0.32,0.67 0.97,1.99 1.29,2.66 -2.11,1.31 -4.25,2.59 -6.35,3.9 -0.76,-1.17 -1.51,-2.35 -2.23,-3.54 0.21,-1.22 -0.02,-2.44 -0.38,-3.6 -0.09,0.76 -0.28,2.28 -0.38,3.04 -1.79,-2.28 -3.41,-4.7 -4.63,-7.33 l 1.86,0.2 c -0.32,-0.33 -0.64,-0.66 -0.95,-0.99 -0.32,0.2 -0.94,0.6 -1.26,0.8 -1.88,-3.34 -3.74,-6.7 -5.65,-10.02 -1.36,0.3 -3.22,-0.04 -3.9,1.51 -3.23,5.5 -6.3,11.12 -9.23,16.79 -2.58,-1.62 -5.3,-3 -7.9,-4.59 1.67,-2.74 3.24,-5.54 4.76,-8.37 0.03,-0.06 0.1,-0.18 0.13,-0.24 3.67,-7.07 7.31,-14.19 12.15,-20.55 0.08,0.71 0.23,2.13 0.3,2.84 0.81,-1.21 1.66,-2.38 2.5,-3.58 l -1.03,-0.24 -0.47,1.57 c -0.51,-0.48 -1.01,-0.95 -1.5,-1.43 -4.99,2.3 -10.22,4.16 -15.65,5.08 -1.77,0.23 -2.91,1.77 -4.31,2.71 -1.08,0.76 -2.11,1.64 -2.7,2.85 -1.9,3.42 -4.61,6.24 -6.95,9.33 -3.88,5.6 -7.1999999,11.8 -12.5299999,16.18 -1.43,0.28 -2.89,0.34 -4.31999999,0.51 -0.12,-5.54 1.33999999,-10.89 1.95999999,-16.35 0.51,0.05 1.52,0.14 2.03,0.19 -0.5,-0.1 -1.5,-0.3 -2,-0.4 0.73,-5.7 1.97,-11.31 2.89,-16.98 0.5,0.79 1,1.58 1.49,2.38 0.23,-0.54 0.69,-1.61 0.92,-2.15 -0.55,-0.15 -1.65,-0.47 -2.2,-0.62 2.56,-7.38 5.3699999,-14.73 8.9499999,-21.6800001 1.1,0.52 2.16,0.38 3.17,-0.44 -0.69,-0.03 -2.06,-0.07 -2.75,-0.09 2.27,-2.15 4.46,-4.68 7.51,-5.72000004 m 15.07,0.49000004 c 0.56,0.54 0.56,0.54 0,0 m 2.69,-0.15 c -0.4,1.35 0.12,1.86 1.56,1.53 0.37,-1.35 -0.15,-1.86000004 -1.56,-1.53 m -21.79,12.0200001 c -1.96,3.54 -4.68,7.38 -4.11,11.61 1.88,2.41 5.16,3.03 8.05,3.22 5.39,0.27 10.99,0.21 16.07,-1.85 5.09,-2.24 9.3,-6.09 12.81,-10.34 0.31,-2.04 -0.44,-5.01 2.41,-5.39 -1.81,-2.1500001 -3.93,-4.0900001 -6.37,-5.4600001 -10.07,-1.42 -22.13,-0.47 -28.86,8.2100001 m 51.16,-7.2900001 c -0.26,0.32 -0.79,0.97 -1.05,1.29 0.79,3.3100001 4.91,-2.07 1.05,-1.29 m 10.13,1.25 c 0.51,0.55 0.51,0.55 0,0 m -64.09,1.95 c 0.51,0.54 0.51,0.54 0,0 m 50.04,1.8600001 c -2.13,4.99 -6.54,9.02 -6.3,14.84 3.58,-0.75 6.52,2.11 9.99,2.4 4.41,0.64 10.42,-0.44 11.83,-5.37 0.68,-4.39 0.65,-9.87 -3.1,-12.9300001 -4.11,-1.28 -8.46,-0.21 -12.42,1.0600001 m -12.87,1.05 c 0.19,3.31 2.98,-1.57 0,0 m 5.76,2.05 c 0.06,3.33 3.02,-1.47 0,0 m -8.11,4.07 c 0.53,0.57 0.53,0.57 0,0 m 6.08,1.1 c 0.55,0.49 0.55,0.49 0,0 m -6.28,2.05 c -1.46,3.02 3.33,0.06 0,0 m 2.26,-0.21 c 0.06,3.33 3.01,-1.48 0,0 m -42.9299999,3.95 c 0.53,0.56 0.53,0.56 0,0 m 62.0599999,5.14 c 0.51,0.54 0.51,0.54 0,0 m -60.28,3.84 c -1.9299999,7.98 -2.5499999,16.22 -4.1999999,24.26 3.6399999,-3.15 5.8999999,-7.46 8.4199999,-11.48 -1.45,-2.63 -0.84,-5.79 -1.74,-8.59 -0.35,-1.98 -1.59,-3.9 -1.07,-5.96 1.98,4.34 2.86,9.15 3.08,13.91 4.55,-4.46 7.01,-10.67 12.19,-14.5 -4.59,0.57 -9.21,0.87 -13.82,0.46 -1.29,-0.31 -2.79,0.46 -2.86,1.9 m 46.16,-1.84 c 0.61,0.57 0.61,0.57 0,0 m 12.78,0.28 c -1.52,3.01 3.32,0.11 0,0 m -60.8499999,0.96 c -1.6,2.97 3.3099999,0.23 0,0 m 44.0799999,0.64 c -0.31,1.4 0.22,1.98 1.59,1.74 0.3,-1.42 -0.23,-2 -1.59,-1.74 m -6.93,5.22 c 0.54,0.48 0.54,0.48 0,0 m -5.09,6.85 c 0.51,0.57 0.51,0.57 0,0 m -36.1399999,5.95 c -1.52,3.01 3.32,0.13 0,0 m 32.0299999,0.19 c -1.47,3.02 3.32,0.07 0,0 m -4.86,2.96 c 0.56,0.58 0.56,0.58 0,0 m -28.0899999,0.85 c -1.38,0.6 -1.44,1.27 -0.17,1.99 1.37,-0.6 1.43,-1.27 0.17,-1.99 z"
     id="path129" />
  <path
     fill="#000000"
     opacity="1"
     d="m 94.556974,20.770945 c 5.21,-4.89 14.589996,-6.64 20.159996,-1.34 2.78,3.27 3.05,8.43 0.72,12.03 -0.02,0.03 -0.05,0.08 -0.07,0.1 -2.07,2.59 -4.95,4.33 -7.78,5.96 -0.03,4.34 -0.91,8.64 -2.6,12.64 -0.02,0.07 -0.08,0.2 -0.1,0.27 -1.22,1.74 -1.32,5.23 -3.96,5.32 2.55,-3.47 4.15,-7.48 5.29,-11.61 -1.04,-0.51 -3.13,-1.53 -4.18,-2.04 1.14,0.37 3.42,1.12 4.57,1.5 -0.03,-2.31 -0.07,-4.62 -0.2,-6.92 -3.24,0.79 -6.35,2.02 -9.559996,2.91 1.81,4.4 3.579996,8.81 5.399996,13.2 -0.71,0.76 -1.43,1.53 -2.14,2.3 0.21,0.16 0.61,0.49 0.82,0.66 l 1.01,0.8 c -2.029996,3.26 -3.049996,7.98 -7.209996,9.16 -3.97,0.6 -9.46,1.81 -11.55,-2.75 0.4,-7.03 1.02,-14.13 2.74,-20.99 0.13,-1.58 1.74,-2.25 2.72,-3.25 -0.53,-0.03 -1.58,-0.07 -2.11,-0.1 1.67,-6.32 4.26,-12.51 8.03,-17.85 m 17.579996,-1.53 c 0.54,0.5 0.54,0.5 0,0 m -12.219996,3.7 c -3.94,3.56 -7.15,8.41 -7.44,13.85 3.91,-0.92 7.969996,-1.18 11.819996,-2.31 3.26,-1.88 6.81,-3.71 9.04,-6.85 1.88,-2.71 -0.47,-6.68 -3.58,-7 -3.38,-0.29 -7.26,-0.18 -9.839996,2.31 m -2.74,0.25 c 0.55,0.67 0.55,0.67 0,0 m -5.21,5.91 c -1.56,3.01 3.3,0.15 0,0 m -1.04,11.82 c -1.97,5.98 -1.73,12.42 -1.27,18.62 3.66,0.47 7.05,-0.89 9.42,-3.68 -0.13,-4.53 -3.16,-8.14 -4.92,-12.12 -0.8,-1.09 -1.38,-3.81 -3.23,-2.82 m 3.12,0.3 c 0.57,0.59 0.57,0.59 0,0 m -9.12,18.82 c -1.58,2.98 3.29,0.22 0,0 m 4.15,4.19 c 0.61,0.58 0.61,0.58 0,0 z"
     id="path145" />
  <path
     fill="#ffffff"
     opacity="1"
     d="m 27.126974,21.280945 c 1.15,-1.54 2.35,-3.1 4.18,-3.89 0.68,0.48 1.36,0.97 2.04,1.47 -2.8,0.75 -2.18,3.5 -0.3,4.81 l -0.16,0.18 c -0.64,0.13 -1.91,0.37 -2.55,0.5 -1.07,-1.03 -2.14,-2.05 -3.21,-3.07 z"
     id="path254" />
  <path
     fill="#ffffff"
     opacity="1"
     d="m 72.456974,18.410945 c 0.73,0.57 1.45,1.15 2.17,1.75 -2.73,1.32 -1.28,2.87 0.62,3.88 -0.61,0.54 -1.22,1.08 -1.83,1.61 -1.89,-0.63 -3.14,-2.1 -4.19,-3.68 1.06,-1.2 2.14,-2.39 3.23,-3.56 z"
     id="path256" />
  <path
     fill="#ffffff"
     opacity="1"
     d="m 105.34697,24.360945 c 0.72,0.57 1.44,1.15 2.15,1.74 -1.66,1.19 -1.47,2.86 -0.68,4.51 l 0.05,0.29 c -0.81,0.09 -2.44,0.27 -3.25,0.36 -0.88,-2.55 -0.01,-4.97 1.73,-6.9 z"
     id="path258" />
  <path
     fill="#ffffff"
     opacity="1"
     d="m 10.876974,34.050945 c 0.07,-1.44 1.57,-2.21 2.86,-1.9 4.61,0.41 9.23,0.11 13.82,-0.46 -5.18,3.83 -7.64,10.04 -12.19,14.5 -0.22,-4.76 -1.1,-9.57 -3.08,-13.91 -0.52,2.06 0.72,3.98 1.07,5.96 0.9,2.8 0.29,5.96 1.74,8.59 -2.52,4.02 -4.78,8.33 -8.4199999,11.48 1.65,-8.04 2.27,-16.28 4.1999999,-24.26 z"
     id="path260" />
  <path
     fill="#ffffff"
     opacity="1"
     d="m 57.236974,33.830945 c 6.12,0.33 12.6,3.23 18.37,-0.28 -0.5,3.27 -1.19,6.5 -1.9,9.73 -1.47,-0.56 -2.95,-1.11 -4.46,-1.55 1.26,1.02 2.68,1.8 4.13,2.54 -0.75,4.48 -2.46,8.74 -4.04,12.98 -0.22,0.49 -0.65,1.47 -0.87,1.96 -4.08,-7.05 -5.91,-15.15 -10.4,-21.98 3.83,1.13 7.41,2.97 11.29,3.97 -3.12,-2.25 -6.97,-3.05 -10.21,-5.08 -0.46,0.45 -0.92,0.89 -1.38,1.34 -0.13,-0.9 -0.4,-2.72 -0.53,-3.63 z"
     id="path262" />
  <path
     fill="#ffffff"
     opacity="1"
     d="m 96.846974,39.590945 c 3.209996,-0.89 6.319996,-2.12 9.559996,-2.91 0.13,2.3 0.17,4.61 0.2,6.92 -1.15,-0.38 -3.43,-1.13 -4.57,-1.5 1.05,0.51 3.14,1.53 4.18,2.04 -1.14,4.13 -2.74,8.14 -5.29,11.61 -0.21,-0.17 -0.61,-0.5 -0.82,-0.66 0.71,-0.77 1.43,-1.54 2.14,-2.3 -1.82,-4.39 -3.589996,-8.8 -5.399996,-13.2 z"
     id="path264" />
  <path
     fill="#020202"
     opacity="1"
     d="m 26.856974,18.420945 c 2.32,-0.61 4.61,-1.3 6.9,-2 0.04,2.39 0.48,4.89 -0.66,7.13 l -0.05,0.12 c -1.88,-1.31 -2.5,-4.06 0.3,-4.81 -0.68,-0.5 -1.36,-0.99 -2.04,-1.47 -1.83,0.79 -3.03,2.35 -4.18,3.89 1.07,1.02 2.14,2.04 3.21,3.07 0.64,-0.13 1.91,-0.37 2.55,-0.5 -0.29,0.43 -0.87,1.28 -1.16,1.7 -1.32,-0.89 -3.98,-0.58 -4.42,-2.54 -0.44,-1.5 -0.38,-3.06 -0.45,-4.59 z"
     id="path503" />
  <path
     fill="#020202"
     opacity="1"
     d="m 69.146974,23.070945 c -0.7,-3.48 3.17,-5.47 6.16,-5.15 0.28,2.87 0.54,5.74 0.51,8.63 -2.28,-0.62 -6.36,-0.24 -6.67,-3.48 m 3.31,-4.66 c -1.09,1.17 -2.17,2.36 -3.23,3.56 1.05,1.58 2.3,3.05 4.19,3.68 0.61,-0.53 1.22,-1.07 1.83,-1.61 -1.9,-1.01 -3.35,-2.56 -0.62,-3.88 -0.72,-0.6 -1.44,-1.18 -2.17,-1.75 z"
     id="path505" />
  <path
     fill="#020202"
     opacity="1"
     d="m 102.85697,31.730945 c -0.76,-3.35 0.18,-7.08 3.68,-8.44 2.32,1.75 1.99,4.96 0.62,7.22 l -0.34,0.1 c -0.79,-1.65 -0.98,-3.32 0.68,-4.51 -0.71,-0.59 -1.43,-1.17 -2.15,-1.74 -1.74,1.93 -2.61,4.35 -1.73,6.9 0.81,-0.09 2.44,-0.27 3.25,-0.36 0.12,0.22 0.36,0.68 0.49,0.91 -1.13,-0.02 -3.37,-0.06 -4.5,-0.08 z"
     id="path507" />
  <path
     fill="#004000"
     opacity="1"
     d="m 17.946974,13.240945 c 6.73,-8.6800001 18.79,-9.6300001 28.86,-8.2100001 2.44,1.37 4.56,3.31 6.37,5.4600001 -2.85,0.38 -2.1,3.35 -2.41,5.39 -3.51,4.25 -7.72,8.1 -12.81,10.34 -5.08,2.06 -10.68,2.12 -16.07,1.85 -2.89,-0.19 -6.17,-0.81 -8.05,-3.22 -0.57,-4.23 2.15,-8.07 4.11,-11.61 m 8.91,5.18 c 0.07,1.53 0.01,3.09 0.45,4.59 0.44,1.96 3.1,1.65 4.42,2.54 0.29,-0.42 0.87,-1.27 1.16,-1.7 0.06,-0.07 0.16,-0.22 0.21,-0.3 1.14,-2.24 0.7,-4.74 0.66,-7.13 -2.29,0.7 -4.58,1.39 -6.9,2 z"
     id="path709" />
  <path
     fill="#004000"
     opacity="1"
     d="m 65.186974,11.010945 c 3.96,-1.2700001 8.31,-2.3400001 12.42,-1.0600001 3.75,3.0600001 3.78,8.5400001 3.1,12.9300001 -1.41,4.93 -7.42,6.01 -11.83,5.37 -3.47,-0.29 -6.41,-3.15 -9.99,-2.4 -0.24,-5.82 4.17,-9.85 6.3,-14.84 m 3.96,12.06 c 0.31,3.24 4.39,2.86 6.67,3.48 0.03,-2.89 -0.23,-5.76 -0.51,-8.63 -2.99,-0.32 -6.86,1.67 -6.16,5.15 z"
     id="path711" />
  <path
     fill="#004000"
     opacity="1"
     d="m 99.916974,22.940945 c 2.579996,-2.49 6.459996,-2.6 9.839996,-2.31 3.11,0.32 5.46,4.29 3.58,7 -2.23,3.14 -5.78,4.97 -9.04,6.85 -3.85,1.13 -7.909996,1.39 -11.819996,2.31 0.29,-5.44 3.5,-10.29 7.44,-13.85 m 2.939996,8.79 c 1.13,0.02 3.37,0.06 4.5,0.08 -0.13,-0.23 -0.37,-0.69 -0.49,-0.91 0.07,-0.1 0.21,-0.3 0.29,-0.39 1.37,-2.26 1.7,-5.47 -0.62,-7.22 -3.5,1.36 -4.44,5.09 -3.68,8.44 z"
     id="path713" />
  <path
     fill="#004000"
     opacity="1"
     d="m 90.926974,40.920945 c 1.85,-0.99 2.43,1.73 3.23,2.82 1.76,3.98 4.79,7.59 4.92,12.12 -2.37,2.79 -5.76,4.15 -9.42,3.68 -0.46,-6.2 -0.7,-12.64 1.27,-18.62 z"
     id="path715" />
  <g
     id="#6abbdeff"
     transform="translate(-264.17303,-220.01906)">
    <path
       fill="#6abbde"
       opacity="1"
       d="m 369.06,270.45 c 0.02,-0.07 0.08,-0.2 0.1,-0.27 -0.02,0.07 -0.08,0.2 -0.1,0.27 z"
       id="path872" />
  </g>
  <g
     id="#a1a1a1ff"
     transform="translate(-264.17303,-220.01906)">
    <path
       fill="#a1a1a1"
       opacity="1"
       d="m 353.25,284.25 c 0.61,0.58 0.61,0.58 0,0 z"
       id="path926" />
  </g>
</svg>
