<?xml version="1.0" encoding="UTF-8" standalone="no"?>
<svg
   width="132.3336868pt"
   height="200.494612pt"
   viewBox="0 0 33.834217 50.123654"
   version="1.1"
   id="svg1438"
   sodipodi:docname="sample_comicscover (3rd copy).svg"
   inkscape:version="1.2.2 (b0a8486541, 2022-12-01)"
   xmlns:inkscape="http://www.inkscape.org/namespaces/inkscape"
   xmlns:sodipodi="http://sodipodi.sourceforge.net/DTD/sodipodi-0.dtd"
   xmlns="http://www.w3.org/2000/svg"
   xmlns:svg="http://www.w3.org/2000/svg">
  <defs
     id="defs1442" />
  <sodipodi:namedview
     id="namedview1440"
     pagecolor="#ffffff"
     bordercolor="#666666"
     borderopacity="1.0"
     inkscape:showpageshadow="2"
     inkscape:pageopacity="0.0"
     inkscape:pagecheckerboard="0"
     inkscape:deskcolor="#d1d1d1"
     inkscape:document-units="pt"
     showgrid="false"
     inkscape:zoom="0.51202861"
     inkscape:cx="-327.13016"
     inkscape:cy="33.20127"
     inkscape:window-width="1366"
     inkscape:window-height="691"
     inkscape:window-x="0"
     inkscape:window-y="0"
     inkscape:window-maximized="1"
     inkscape:current-layer="svg1438" />
  <path
     fill="#000000"
     opacity="1"
     d="m 11.38,4.5774611 c 5.21,-4.88999993 14.589996,-6.64 20.159996,-1.34 2.78,3.27 3.05,8.4299999 0.72,12.0299999 -0.02,0.03 -0.05,0.08 -0.07,0.1 -2.07,2.59 -4.95,4.33 -7.78,5.96 -0.03,4.34 -0.91,8.64 -2.6,12.64 -0.02,0.07 -0.08,0.2 -0.1,0.27 -1.22,1.74 -1.32,5.23 -3.96,5.32 2.55,-3.47 4.15,-7.48 5.29,-11.61 -1.04,-0.51 -3.13,-1.53 -4.18,-2.04 1.14,0.37 3.42,1.12 4.57,1.5 -0.03,-2.31 -0.07,-4.62 -0.2,-6.92 -3.24,0.79 -6.35,2.02 -9.559996,2.91 1.81,4.4 3.579996,8.81 5.399996,13.2 -0.71,0.76 -1.43,1.53 -2.14,2.3 0.21,0.16 0.61,0.49 0.82,0.66 l 1.01,0.8 c -2.029996,3.26 -3.049996,7.98 -7.209996,9.16 -3.97,0.6 -9.46,1.81 -11.55,-2.75 0.4,-7.03 1.02,-14.13 2.74,-20.99 0.13,-1.58 1.74,-2.25 2.72,-3.25 -0.53,-0.03 -1.58,-0.07 -2.11,-0.1 1.67,-6.32 4.26,-12.5099999 8.03,-17.8499999 m 17.579996,-1.53 c 0.54,0.5 0.54,0.5 0,0 m -12.219996,3.7 C 12.8,10.307461 9.59,15.157461 9.3,20.597461 c 3.91,-0.92 7.969996,-1.18 11.819996,-2.31 3.26,-1.88 6.81,-3.71 9.04,-6.85 1.88,-2.7099999 -0.47,-6.6799999 -3.58,-6.9999999 -3.38,-0.29 -7.26,-0.18 -9.839996,2.31 m -2.74,0.25 c 0.55,0.67 0.55,0.67 0,0 M 8.79,12.907461 c -1.56,3.01 3.3,0.15 0,0 m -1.04,11.82 c -1.97,5.98 -1.73,12.42 -1.27,18.62 3.66,0.47 7.05,-0.89 9.42,-3.68 -0.13,-4.53 -3.16,-8.14 -4.92,-12.12 -0.8,-1.09 -1.38,-3.81 -3.23,-2.82 m 3.12,0.3 c 0.57,0.59 0.57,0.59 0,0 m -9.12,18.82 c -1.58,2.98 3.29,0.22 0,0 m 4.15,4.19 c 0.61,0.58 0.61,0.58 0,0 z"
     id="path145" />
  <path
     fill="#ffffff"
     opacity="1"
     d="m 22.169996,8.1674611 c 0.72,0.57 1.44,1.15 2.15,1.74 -1.66,1.1899999 -1.47,2.8599999 -0.68,4.5099999 l 0.05,0.29 c -0.81,0.09 -2.44,0.27 -3.25,0.36 -0.88,-2.55 -0.01,-4.97 1.73,-6.8999999 z"
     id="path258" />
  <path
     fill="#ffffff"
     opacity="1"
     d="m 13.67,23.397461 c 3.209996,-0.89 6.319996,-2.12 9.559996,-2.91 0.13,2.3 0.17,4.61 0.2,6.92 -1.15,-0.38 -3.43,-1.13 -4.57,-1.5 1.05,0.51 3.14,1.53 4.18,2.04 -1.14,4.13 -2.74,8.14 -5.29,11.61 -0.21,-0.17 -0.61,-0.5 -0.82,-0.66 0.71,-0.77 1.43,-1.54 2.14,-2.3 -1.82,-4.39 -3.589996,-8.8 -5.399996,-13.2 z"
     id="path264" />
  <path
     fill="#020202"
     opacity="1"
     d="m 19.679996,15.537461 c -0.76,-3.35 0.18,-7.0799999 3.68,-8.4399999 2.32,1.75 1.99,4.9599999 0.62,7.2199999 l -0.34,0.1 c -0.79,-1.65 -0.98,-3.32 0.68,-4.5099999 -0.71,-0.59 -1.43,-1.17 -2.15,-1.74 -1.74,1.9299999 -2.61,4.3499999 -1.73,6.8999999 0.81,-0.09 2.44,-0.27 3.25,-0.36 0.12,0.22 0.36,0.68 0.49,0.91 -1.13,-0.02 -3.37,-0.06 -4.5,-0.08 z"
     id="path507" />
  <path
     fill="#004000"
     opacity="1"
     d="m 16.74,6.7474611 c 2.579996,-2.49 6.459996,-2.6 9.839996,-2.31 3.11,0.32 5.46,4.29 3.58,6.9999999 -2.23,3.14 -5.78,4.97 -9.04,6.85 -3.85,1.13 -7.909996,1.39 -11.819996,2.31 0.29,-5.44 3.5,-10.29 7.44,-13.8499999 m 2.939996,8.7899999 c 1.13,0.02 3.37,0.06 4.5,0.08 -0.13,-0.23 -0.37,-0.69 -0.49,-0.91 0.07,-0.1 0.21,-0.3 0.29,-0.39 1.37,-2.26 1.7,-5.4699999 -0.62,-7.2199999 -3.5,1.36 -4.44,5.0899999 -3.68,8.4399999 z"
     id="path713" />
  <path
     fill="#004000"
     opacity="1"
     d="m 7.75,24.727461 c 1.85,-0.99 2.43,1.73 3.23,2.82 1.76,3.98 4.79,7.59 4.92,12.12 -2.37,2.79 -5.76,4.15 -9.42,3.68 -0.46,-6.2 -0.7,-12.64 1.27,-18.62 z"
     id="path715" />
  <g
     id="#6abbdeff"
     transform="translate(-347.35,-236.21254)">
    <path
       fill="#6abbde"
       opacity="1"
       d="m 369.06,270.45 c 0.02,-0.07 0.08,-0.2 0.1,-0.27 -0.02,0.07 -0.08,0.2 -0.1,0.27 z"
       id="path872" />
  </g>
  <g
     id="#a1a1a1ff"
     transform="translate(-347.35,-236.21254)">
    <path
       fill="#a1a1a1"
       opacity="1"
       d="m 353.25,284.25 c 0.61,0.58 0.61,0.58 0,0 z"
       id="path926" />
  </g>
</svg>
