<?xml version="1.0" encoding="UTF-8" standalone="no"?>
<svg
   width="466.08127pt"
   height="283.28619pt"
   viewBox="0 0 466.08127 283.28619"
   version="1.1"
   id="svg1438"
   sodipodi:docname="logotype.svg"
   inkscape:version="1.2.2 (b0a8486541, 2022-12-01)"
   xmlns:inkscape="http://www.inkscape.org/namespaces/inkscape"
   xmlns:sodipodi="http://sodipodi.sourceforge.net/DTD/sodipodi-0.dtd"
   xmlns="http://www.w3.org/2000/svg"
   xmlns:svg="http://www.w3.org/2000/svg">
  <defs
     id="defs1442" />
  <sodipodi:namedview
     id="namedview1440"
     pagecolor="#ffffff"
     bordercolor="#666666"
     borderopacity="1.0"
     inkscape:showpageshadow="2"
     inkscape:pageopacity="0.0"
     inkscape:pagecheckerboard="0"
     inkscape:deskcolor="#d1d1d1"
     inkscape:document-units="pt"
     showgrid="false"
     inkscape:zoom="1.4482356"
     inkscape:cx="199.89841"
     inkscape:cy="306.57995"
     inkscape:window-width="1366"
     inkscape:window-height="691"
     inkscape:window-x="0"
     inkscape:window-y="0"
     inkscape:window-maximized="1"
     inkscape:current-layer="svg1438" />
  <path
     fill="#000000"
     opacity="1"
     d="m 11.66,0 c 5.84,0.42 9,5.95 14.25,7.7 6.87,2.6 12.39,8.25 19.85,9.26 7.28,4.2 14.91,7.75 22.56,11.24 2.72,1.22 5.52,2.38 8.51,2.69 13.67,1.8 27.18,5.09 41.02,5.27 31.37,1.25 62.97,0.07 94.06,5.14 5.69,0.97 10.78,3.85 15.62,6.86 6.25,3.53 9.82,10.3 12.09,16.87 1.23,4.71 2.79,10.23 0.01,14.7 -3.25,5.82 -9.42,8.92 -14.76,12.48 -6.1,4.25 -12.29,8.36 -18.55,12.36 -12.11,4.93 -24.89,8.65 -36.02,15.68 -7.25,4.04 -14.85,7.71 -23.05,9.31 -12.99,2.63 -25.98,5.26 -38.96,7.93 -4.84,0.76 -8.61,4.13 -12.93,6.18 -3.62,2.13 -7.75,3.23 -11.38,5.32 -8.11,6 -14.91,13.67 -20.47,22.05 0.54,1.25 1.05,2.52 1.53,3.8 1.86,-0.42 3.78,-0.7 5.68,-0.34 14.62,1.89 29.34,2.92 44.08,3.24 6.11,0.12 12.11,1.39 17.98,3.02 10.97,2.02 22.17,0.29 33.18,-0.57 1.12,3.11 5.5,2.96 7.21,0.54 -1.89,0 -3.78,-0.04 -5.66,-0.12 11.03,-1.55 22.22,0.32 33.3,-0.62 5.44,-0.63 10.91,-1.21 16.12,-2.97 0.58,0.47 1.74,1.4 2.32,1.86 3.81,-0.13 7.65,-0.56 11.23,-1.94 -0.45,-0.49 -1.36,-1.46 -1.82,-1.95 3.79,-0.57 7.45,0.38 11.13,1.05 12.73,-0.04 24.22,6.4 34.47,13.3 5.22,3.72 11.64,6.37 14.97,12.16 1.22,2.45 3.67,3.79 5.59,5.6 -1,2.93 -4.69,1.41 -6.9,1.2 -10.2,-2.73 -19.89,-7.11 -30.07,-9.9 -5.27,-1.21 -10.6,-3.19 -16.08,-2.36 -8.36,1.11 -16.33,4.71 -22.88,9.99 -9.56,8.56 -19.98,16.57 -31.99,21.38 -7.39,2.56 -14.78,-1.09 -21.48,-3.93 -13.98,-4.79 -28.72,-7.29 -43.5,-7.36 -13,-0.72 -27.04,2.55 -39.06,-3.97 -13.3,-7.78 -26.38,-16.76 -41.59,-20.34 -6.81,0.46 -13.81,-0.46 -20.43,1.63 -7.54,2.08 -14.33,6.09 -20.84,10.31 1.1,-5.21 2.7,-10.23 5.37,-14.86 6.91,-18.54 20.83,-33.27 35.5,-46.05 9.14,-8.63 20.96,-13.41 31.93,-19.19 5.34,-2.57 10.17,-6.06 15.6,-8.44 5.82,-2.77 12.12,-4.32 18.07,-6.78 8.5,-3.42 17.12,-7.23 26.41,-7.76 25.86,-1.93 52.15,-2.75 77.14,-10.37 6.31,-1.5 10.97,-6.49 14.92,-11.33 1.8,-1.85 1.15,-4.65 0.66,-6.9 -1.91,-6.58 -7.16,-11.45 -12.16,-15.82 -7.15,-4.99 -16.33,-4.75 -24.67,-5 -5.01,-0.39 -9.91,1.08 -14.91,0.89 -4.05,-0.01 -8.18,-0.35 -12.13,0.72 -9.99,4.68 -21.38,1.86 -31.83,4.69 -8.14,2.46 -16.72,1.66 -25.07,2.56 -10.52,1.95 -21.24,2.5 -31.91,3.04 C 61.23,62.05 50.69,56.37 39.83,52.35 33,50.05 28.27,44.3 22.04,40.97 18.93,39.51 16.58,36.7 15.37,33.52 13.65,22.42 11.06,11.32 11.66,0 m 116.99,39.2 c 1.52,0.53 3.08,0.73 4.68,0.6 -1.17,-1.54 -3.11,-1 -4.68,-0.6 M 85.27,53.11 c -0.13,1.76 2.85,1.86 4.1,1.47 0.54,-1.8 -2.99,-2.63 -4.1,-1.47 m 1.47,4.81 c -0.5,1.6 0.07,2.14 1.7,1.64 0.49,-1.61 -0.08,-2.16 -1.7,-1.64 m -11.61,1.22 c -0.52,1.63 0.03,2.19 1.65,1.69 0.51,-1.64 -0.04,-2.21 -1.65,-1.69 m 2.64,0.02 c -0.56,1.66 -0.04,2.22 1.56,1.68 0.56,-1.64 0.04,-2.2 -1.56,-1.68 m 126.11,43.66 c 2.71,-1.57 5.75,-2.89 7.7,-5.44 -2.73,1.36 -6.88,2.07 -7.7,5.44 m -68.35,15.95 c -1.3,2.29 3.07,1.88 3.09,-0.05 -0.28,-1.51 -2.39,-0.66 -3.09,0.05 m 18.38,2.7 c -0.52,1.6 0.06,2.11 1.72,1.53 0.5,-1.6 -0.08,-2.1 -1.72,-1.53 M 104.02,130 c 0.88,-0.93 4.09,-1.29 2.85,-2.99 -1.7,0.08 -3.34,1.05 -2.85,2.99 m -36.05,-1.81 c -1.46,0.71 -1.54,1.36 -0.27,1.95 1.43,-0.71 1.52,-1.36 0.27,-1.95 m 7.31,3.87 c 0.11,3.3 3.04,-1.51 0,0 m 14.45,7.41 c -0.67,1.59 -0.15,2.13 1.53,1.61 0.62,-1.57 0.11,-2.11 -1.53,-1.61 m -31.1,5.6 c 2.53,-0.79 5.02,-2.04 6.55,-4.3 -2.62,0.6 -4.97,2.13 -6.55,4.3 m 0.4,17.01 c -0.54,1.39 -0.09,1.84 1.35,1.35 0.55,-1.39 0.1,-1.84 -1.35,-1.35 m -16.42,2.61 c -0.13,0.45 -0.39,1.35 -0.51,1.8 1.22,0.56 2.85,-0.58 3.13,-1.82 -0.68,-1.01 -1.55,-1 -2.62,0.02 m 69.63,15.91 c 1.67,0.92 4.89,1 6.18,-0.18 -1.78,-0.38 -5.11,-1.59 -6.18,0.18 m 103.34,2.01 c 3.18,0.54 6.78,0.82 9.46,-1.33 -3.17,0.04 -6.64,-0.43 -9.46,1.33 m -131.06,0.72 c 2.8,1.85 6.28,2.01 9.54,1.81 -2.75,-1.98 -6.33,-1.69 -9.54,-1.81 m 122.49,3.82 c -1.15,1.5 1.55,2.93 2.49,1.52 1.17,-1.53 -1.54,-2.92 -2.49,-1.52 m 31.34,0.93 c 0.2,3.33 2.89,-1.62 0,0 M 61,189.65 c 1.71,0.46 3.51,0.7 5.21,0.08 -0.88,-0.27 -2.64,-0.79 -3.52,-1.06 -0.43,0.25 -1.27,0.74 -1.69,0.98 m -9.42,1.7 c 1.57,0.26 3.16,0.43 4.76,0.51 -1.01,-1.73 -3.37,-1.68 -4.76,-0.51 m 44.83,0.57 c 1.89,0.05 3.79,-0.17 5.65,-0.57 -1.83,-0.3 -4.4,-1.46 -5.65,0.57 m 68.83,-1.71 c -1.14,1.51 1.49,2.95 2.47,1.55 1.13,-1.49 -1.54,-3 -2.47,-1.55 m 69.34,2.36 c 2.89,0.54 5.85,0.39 8.73,-0.14 -2.69,-1.56 -5.92,-0.46 -8.73,0.14 m -164.6,2.85 c -1.59,2.99 3.31,0.18 0,0 m 156.27,0.87 c -1.37,1.61 1.49,2.69 2.37,1.25 1.6,-1.58 -1.54,-2.74 -2.37,-1.25 M 5.21,197.15 c -1.33,0.62 -1.36,1.28 -0.1,2.01 1.36,-0.63 1.39,-1.3 0.1,-2.01 M 220.38,199 c 0.78,0.92 1.73,1.02 2.84,0.28 0.06,-0.49 0.18,-1.47 0.24,-1.95 -1.15,-0.88 -3.2,0.23 -3.08,1.67 m -82.81,1.9 c 1.4,2.12 5.12,3.3 6.53,0.59 -2.17,-0.3 -4.35,-0.5 -6.53,-0.59 m 148.73,1.37 c -0.67,1.4 1.19,3.6 2.69,2.78 1.06,-1.43 -1.27,-3.71 -2.69,-2.78 m -76.45,6.72 c 2.1,-0.01 3.58,-1.55 4.94,-2.95 -2.03,0.22 -3.71,1.37 -4.94,2.95 m -130.3,-1.31 c 0.92,1.46 1.77,1.53 2.56,0.21 -0.93,-1.52 -1.78,-1.59 -2.56,-0.21 m 35.52,-0.58 c -0.51,1.59 0.07,2.12 1.73,1.6 0.51,-1.6 -0.07,-2.14 -1.73,-1.6 m 6.03,0.39 c 0.15,0.41 0.45,1.23 0.59,1.63 1.44,0.05 2.87,0.08 4.31,0.07 -1.32,-1.28 -3.19,-1.41 -4.9,-1.7 m 16.24,-0.44 c 0.24,1.34 0.95,1.55 2.11,0.61 -0.25,-1.34 -0.95,-1.55 -2.11,-0.61 m -40.37,2.97 c -2.48,1.03 0.28,3.22 1.83,2.01 2.2,-0.94 -0.45,-3.14 -1.83,-2.01 m 28.24,2.14 c 0.19,3.3 3,-1.59 0,0 m 52.64,3 c -0.47,1.65 0.1,2.18 1.71,1.59 0.46,-1.65 -0.11,-2.18 -1.71,-1.59 m 6.79,9.82 c 0.21,1.59 2.79,0.73 3.07,-0.44 -0.08,-1.8 -2.85,-0.85 -3.07,0.44 z"
     id="path111" />
  <path
     fill="#000000"
     opacity="1"
     d="m 365.36,69.59 c 4.39,-2.58 9.04,-6.41 14.46,-5.32 2.84,1.83 3.45,5.58 5.99,7.72 1.8,1.54 3.67,3.02 5.24,4.81 -15.89,9.95 -32.44,19.22 -46.37,31.93 -2.37,2.23 -6.27,3.54 -6.91,7.09 -0.83,7.13 1.5,14.1 1.85,21.18 0.13,3.56 1.4,6.94 2,10.42 0.92,5.18 1.13,10.45 1.86,15.66 0.63,3.94 -0.06,7.94 0.55,11.87 -1.83,1.04 -3.66,2.07 -5.49,3.11 -9.56,-18.71 -17.16,-38.41 -23.45,-58.42 -1.16,-3.11 -4.96,-6.7 -2.57,-10 16.75,-14.41 33.64,-28.94 52.84,-40.05 z"
     id="path113" />
  <path
     fill="#000000"
     opacity="1"
     d="m 410.41,80.55 c 4.95,-4.77 11.31,-8.93 18.44,-8.86 7.08,-0.03 14.69,-0.37 21.06,3.29 4.4,2.82 8.67,6.3 10.98,11.12 4.01,8.01 4.09,17.18 4.75,25.92 0.47,13.62 1.27,27.48 -2,40.84 -1.77,9.47 -1.83,19.81 -7.47,28.05 -1.77,3.37 -6.86,3.18 -7.74,7.24 -4.32,-4.03 -10.9,-5.87 -13.21,-11.73 -2.64,-6.13 -2.65,-12.95 -3.44,-19.48 0.03,-10.56 5.08,-20.45 5.17,-31.01 -0.51,-5.19 -4.46,-9.32 -9.15,-11.18 -6.96,3.45 -11.06,10.34 -15.57,16.32 -3.65,12.53 -4.3,25.78 -7.81,38.35 -2.88,5.45 -9.18,7.56 -14.6,9.56 -6.25,2.31 -12.18,-1.9 -17.39,-4.84 -1.32,0.65 -3.08,1.93 -3.81,-0.21 4.82,-12.36 8.12,-25.24 12.36,-37.8 3.09,-7.43 6.6,-14.69 9.82,-22.06 5.3,-11.8 10.27,-24.24 19.61,-33.52 m -25.48,94.84 c -0.52,1.61 0.06,2.12 1.72,1.53 0.49,-1.6 -0.09,-2.11 -1.72,-1.53 z"
     id="path115" />
  <path
     fill="#000000"
     opacity="1"
     d="m 254.97,83.23 c 7.62,-1.35 15.66,-0.28 22.87,2.45 7.35,4.31 13.22,11.25 16.08,19.31 5.04,11.4 7.2,25.1 1.73,36.76 -3.3,7.85 -7.67,16.44 -16.05,19.79 -4.34,1.45 -8.06,4.18 -12.26,5.92 -8.75,2.39 -18.66,4.59 -27.17,0.22 -6.08,-3.76 -12.42,-7.95 -15.64,-14.6 -5.81,-11.57 -6.18,-25.7 -1.29,-37.65 5.45,-14.46 16.7,-27.45 31.73,-32.2 m 21.88,6.26 c -0.4,1.41 0.1,1.88 1.51,1.42 0.38,-1.4 -0.12,-1.87 -1.51,-1.42 m 11.79,10.58 c 0.23,1.42 -0.3,3.82 1.91,3.59 -0.36,-1.33 -1.02,-2.54 -1.91,-3.59 M 273,107.09 c -1.52,3.03 3.31,0.15 0,0 m -18.41,3.56 c -2.98,2.01 -5.79,4.31 -8.78,6.32 -2.7,3.33 -4.52,7.59 -4.27,11.95 0.07,6.25 3.23,11.99 7.29,16.56 0.36,-0.33 1.09,-1.01 1.46,-1.35 1.33,0.98 2.74,2.52 4.6,1.93 3.57,-0.91 7.22,-0.7 10.87,-0.57 7.98,-4.76 11.44,-14.67 10.93,-23.6 -0.38,-4.26 -1.1,-9.38 -5.25,-11.65 -5.18,-3.33 -11.42,-0.75 -16.85,0.41 m 34.43,14.7 c 2.1,-1.26 0.94,-3.72 0.41,-5.5 -0.49,1.8 -0.77,3.65 -0.41,5.5 m -58.51,8.36 c -0.11,2.12 0.02,4.26 0.8,6.26 0.54,-2.11 0.85,-4.55 -0.8,-6.26 m -6.58,6.63 c -0.23,1.96 0.07,3.94 1.36,5.5 -0.14,-1.89 0.57,-4.27 -1.36,-5.5 m 13.69,14.44 c 1.03,1.83 2.62,3.21 4.23,4.52 0.73,-0.72 1.47,-1.43 2.22,-2.13 -0.38,-0.54 -1.14,-1.61 -1.52,-2.14 -0.51,0.86 -1.01,1.71 -1.52,2.57 -0.76,-1.38 -1.89,-2.32 -3.41,-2.82 z"
     id="path117" />
  <path
     fill="#000000"
     opacity="1"
     d="m 229,217.85 c 3.78,-0.53 7.61,-0.41 11.41,-0.78 2.96,-0.14 5.93,-0.15 8.89,0.07 4.31,0.78 8.44,2.33 12.53,3.86 0.08,1.04 0.64,1.78 1.67,2.25 0.66,1.15 1.12,2.4 1.62,3.63 -0.56,-0.18 -1.68,-0.54 -2.25,-0.72 0.07,1.54 0.19,3.09 0.83,4.52 4.46,-2.41 6.43,-7.64 10.85,-10.04 4.73,-1.32 9.65,0.71 13.76,2.96 3.17,2 2.87,6.2 3.73,9.43 1.4,6.86 -3.69,12.71 -8.45,16.95 -1.32,8.37 -3.37,16.61 -6.39,24.53 l -0.84,-0.29 c 1.58,-4.24 3.29,-8.5 4.04,-12.98 -1.45,-0.74 -2.87,-1.52 -4.13,-2.54 1.51,0.44 2.99,0.99 4.46,1.55 0.71,-3.23 1.4,-6.46 1.9,-9.73 -5.77,3.51 -12.25,0.61 -18.37,0.28 0.13,0.91 0.4,2.73 0.53,3.63 0.46,-0.45 0.92,-0.89 1.38,-1.34 3.24,2.03 7.09,2.83 10.21,5.08 -3.88,-1 -7.46,-2.84 -11.29,-3.97 4.49,6.83 6.32,14.93 10.4,21.98 0.22,-0.49 0.65,-1.47 0.87,-1.96 0.32,0.67 0.97,1.99 1.29,2.66 -2.11,1.31 -4.25,2.59 -6.35,3.9 -0.76,-1.17 -1.51,-2.35 -2.23,-3.54 0.21,-1.22 -0.02,-2.44 -0.38,-3.6 -0.09,0.76 -0.28,2.28 -0.38,3.04 -1.79,-2.28 -3.41,-4.7 -4.63,-7.33 l 1.86,0.2 c -0.32,-0.33 -0.64,-0.66 -0.95,-0.99 -0.32,0.2 -0.94,0.6 -1.26,0.8 -1.88,-3.34 -3.74,-6.7 -5.65,-10.02 -1.36,0.3 -3.22,-0.04 -3.9,1.51 -3.23,5.5 -6.3,11.12 -9.23,16.79 -2.58,-1.62 -5.3,-3 -7.9,-4.59 1.67,-2.74 3.24,-5.54 4.76,-8.37 0.03,-0.06 0.1,-0.18 0.13,-0.24 3.67,-7.07 7.31,-14.19 12.15,-20.55 0.08,0.71 0.23,2.13 0.3,2.84 0.81,-1.21 1.66,-2.38 2.5,-3.58 l -1.03,-0.24 -0.47,1.57 c -0.51,-0.48 -1.01,-0.95 -1.5,-1.43 -4.99,2.3 -10.22,4.16 -15.65,5.08 -1.77,0.23 -2.91,1.77 -4.31,2.71 -1.08,0.76 -2.11,1.64 -2.7,2.85 -1.9,3.42 -4.61,6.24 -6.95,9.33 -3.88,5.6 -7.2,11.8 -12.53,16.18 -1.43,0.28 -2.89,0.34 -4.32,0.51 -0.12,-5.54 1.34,-10.89 1.96,-16.35 0.51,0.05 1.52,0.14 2.03,0.19 -0.5,-0.1 -1.5,-0.3 -2,-0.4 0.73,-5.7 1.97,-11.31 2.89,-16.98 0.5,0.79 1,1.58 1.49,2.38 0.23,-0.54 0.69,-1.61 0.92,-2.15 -0.55,-0.15 -1.65,-0.47 -2.2,-0.62 2.56,-7.38 5.37,-14.73 8.95,-21.68 1.1,0.52 2.16,0.38 3.17,-0.44 -0.69,-0.03 -2.06,-0.07 -2.75,-0.09 2.27,-2.15 4.46,-4.68 7.51,-5.72 m 15.07,0.49 c 0.56,0.54 0.56,0.54 0,0 m 2.69,-0.15 c -0.4,1.35 0.12,1.86 1.56,1.53 0.37,-1.35 -0.15,-1.86 -1.56,-1.53 m -21.79,12.02 c -1.96,3.54 -4.68,7.38 -4.11,11.61 1.88,2.41 5.16,3.03 8.05,3.22 5.39,0.27 10.99,0.21 16.07,-1.85 5.09,-2.24 9.3,-6.09 12.81,-10.34 0.31,-2.04 -0.44,-5.01 2.41,-5.39 -1.81,-2.15 -3.93,-4.09 -6.37,-5.46 -10.07,-1.42 -22.13,-0.47 -28.86,8.21 m 51.16,-7.29 c -0.26,0.32 -0.79,0.97 -1.05,1.29 0.79,3.31 4.91,-2.07 1.05,-1.29 m 10.13,1.25 c 0.51,0.55 0.51,0.55 0,0 m -64.09,1.95 c 0.51,0.54 0.51,0.54 0,0 m 50.04,1.86 c -2.13,4.99 -6.54,9.02 -6.3,14.84 3.58,-0.75 6.52,2.11 9.99,2.4 4.41,0.64 10.42,-0.44 11.83,-5.37 0.68,-4.39 0.65,-9.87 -3.1,-12.93 -4.11,-1.28 -8.46,-0.21 -12.42,1.06 m -12.87,1.05 c 0.19,3.31 2.98,-1.57 0,0 m 5.76,2.05 c 0.06,3.33 3.02,-1.47 0,0 m -8.11,4.07 c 0.53,0.57 0.53,0.57 0,0 m 6.08,1.1 c 0.55,0.49 0.55,0.49 0,0 m -6.28,2.05 c -1.46,3.02 3.33,0.06 0,0 m 2.26,-0.21 c 0.06,3.33 3.01,-1.48 0,0 m -42.93,3.95 c 0.53,0.56 0.53,0.56 0,0 m 62.06,5.14 c 0.51,0.54 0.51,0.54 0,0 m -60.28,3.84 c -1.93,7.98 -2.55,16.22 -4.2,24.26 3.64,-3.15 5.9,-7.46 8.42,-11.48 -1.45,-2.63 -0.84,-5.79 -1.74,-8.59 -0.35,-1.98 -1.59,-3.9 -1.07,-5.96 1.98,4.34 2.86,9.15 3.08,13.91 4.55,-4.46 7.01,-10.67 12.19,-14.5 -4.59,0.57 -9.21,0.87 -13.82,0.46 -1.29,-0.31 -2.79,0.46 -2.86,1.9 m 46.16,-1.84 c 0.61,0.57 0.61,0.57 0,0 m 12.78,0.28 c -1.52,3.01 3.32,0.11 0,0 m -60.85,0.96 c -1.6,2.97 3.31,0.23 0,0 m 44.08,0.64 c -0.31,1.4 0.22,1.98 1.59,1.74 0.3,-1.42 -0.23,-2 -1.59,-1.74 m -6.93,5.22 c 0.54,0.48 0.54,0.48 0,0 m -5.09,6.85 c 0.51,0.57 0.51,0.57 0,0 m -36.14,5.95 c -1.52,3.01 3.32,0.13 0,0 m 32.03,0.19 c -1.47,3.02 3.32,0.07 0,0 m -4.86,2.96 c 0.56,0.58 0.56,0.58 0,0 m -28.09,0.85 c -1.38,0.6 -1.44,1.27 -0.17,1.99 1.37,-0.6 1.43,-1.27 0.17,-1.99 z"
     id="path129" />
  <path
     fill="#000000"
     opacity="1"
     d="m 301.58,237.74 c 5.21,-4.89 14.59,-6.64 20.16,-1.34 2.78,3.27 3.05,8.43 0.72,12.03 -0.02,0.03 -0.05,0.08 -0.07,0.1 -2.07,2.59 -4.95,4.33 -7.78,5.96 -0.03,4.34 -0.91,8.64 -2.6,12.64 -0.02,0.07 -0.08,0.2 -0.1,0.27 -1.22,1.74 -1.32,5.23 -3.96,5.32 2.55,-3.47 4.15,-7.48 5.29,-11.61 -1.04,-0.51 -3.13,-1.53 -4.18,-2.04 1.14,0.37 3.42,1.12 4.57,1.5 -0.03,-2.31 -0.07,-4.62 -0.2,-6.92 -3.24,0.79 -6.35,2.02 -9.56,2.91 1.81,4.4 3.58,8.81 5.4,13.2 -0.71,0.76 -1.43,1.53 -2.14,2.3 0.21,0.16 0.61,0.49 0.82,0.66 l 1.01,0.8 c -2.03,3.26 -3.05,7.98 -7.21,9.16 -3.97,0.6 -9.46,1.81 -11.55,-2.75 0.4,-7.03 1.02,-14.13 2.74,-20.99 0.13,-1.58 1.74,-2.25 2.72,-3.25 -0.53,-0.03 -1.58,-0.07 -2.11,-0.1 1.67,-6.32 4.26,-12.51 8.03,-17.85 m 17.58,-1.53 c 0.54,0.5 0.54,0.5 0,0 m -12.22,3.7 c -3.94,3.56 -7.15,8.41 -7.44,13.85 3.91,-0.92 7.97,-1.18 11.82,-2.31 3.26,-1.88 6.81,-3.71 9.04,-6.85 1.88,-2.71 -0.47,-6.68 -3.58,-7 -3.38,-0.29 -7.26,-0.18 -9.84,2.31 m -2.74,0.25 c 0.55,0.67 0.55,0.67 0,0 m -5.21,5.91 c -1.56,3.01 3.3,0.15 0,0 m -1.04,11.82 c -1.97,5.98 -1.73,12.42 -1.27,18.62 3.66,0.47 7.05,-0.89 9.42,-3.68 -0.13,-4.53 -3.16,-8.14 -4.92,-12.12 -0.8,-1.09 -1.38,-3.81 -3.23,-2.82 m 3.12,0.3 c 0.57,0.59 0.57,0.59 0,0 m -9.12,18.82 c -1.58,2.98 3.29,0.22 0,0 m 4.15,4.19 c 0.61,0.58 0.61,0.58 0,0 z"
     id="path145" />
  <path
     fill="#000000"
     opacity="1"
     d="m 166.31,240.46 c 0.53,-1.2 1.38,-2.21 2.51,-2.9 0.18,4.61 -0.91,9.1 -1.63,13.61 3.65,-1.64 6.19,-4.87 9.62,-6.83 1.89,-0.93 3.66,2.17 1.95,3.42 -3.65,4.62 -9.08,7.79 -11.92,13.04 -0.72,5.81 0.62,11.59 0.95,17.38 -6.61,-1.84 -2.79,-9.58 -5.15,-14.14 -3.03,5.93 -3.7,12.86 -7.27,18.51 -0.27,-2 -0.36,-4.14 -2.05,-5.51 2.7,-12.7 7.27,-24.94 12.99,-36.58 m 1.86,12.88 c -0.16,0.37 -0.48,1.12 -0.65,1.49 1.81,2.98 4.11,-3.3 0.65,-1.49 z"
     id="path147" />
  <path
     fill="#000000"
     opacity="1"
     d="m 240.07,240.64 0.05,-0.12 c -0.05,0.08 -0.15,0.23 -0.21,0.3 z"
     id="path149" />
  <path
     fill="#000000"
     opacity="1"
     d="m 143.31,245.31 c 2.39,-1.81 5.08,-3.17 7.63,-4.73 1.35,-0.92 3.24,0.04 3.69,1.49 1.19,3.87 0.69,8.01 0.12,11.94 -1.48,8.55 -1.87,17.32 -4.39,25.67 -2.25,-1.07 -3.76,0.12 -4.9,2.12 -1.16,-5.54 0.66,-11.12 0.68,-16.69 -1.9,-0.51 -3.78,-1.05 -5.66,-1.6 -3.45,4.87 -5.9,10.58 -10.5,14.54 -1.21,1.55 -3.2,0.85 -3.03,-1.2 -0.08,-2.07 1.11,-3.87 1.93,-5.68 4.6,-8.71 7.61,-18.51 14.43,-25.86 m 3.82,5.11 c -0.09,1.17 -0.28,3.52 -0.38,4.69 -0.35,-0.56 -1.06,-1.66 -1.41,-2.22 -0.46,0.48 -0.92,0.97 -1.37,1.45 0.59,0.15 1.77,0.43 2.36,0.58 -1.17,1.19 -2.62,2.17 -3.44,3.66 0.99,1.07 2.11,2 3.22,2.96 2.31,-1.44 1.62,-4.31 1.97,-6.6 0.06,-1.57 0.63,-3.45 -0.95,-4.52 z"
     id="path151" />
  <path
     fill="#000000"
     opacity="1"
     d="m 179.51,259.46 c 4.16,-6.29 7.74,-13.49 14.48,-17.46 5.11,9 1.74,19.72 -1.09,28.9 -1.43,3.52 -1.69,7.93 -4.84,10.45 -1.37,-4.4 -0.59,-8.98 0.29,-13.38 -0.6,0.76 -1.19,1.52 -1.78,2.29 -2.5,-0.51 -6.11,-3.61 -7.93,-0.43 -1.78,1.81 -2.26,5.99 -5.51,5.35 0.28,-0.57 0.84,-1.7 1.12,-2.27 -0.62,-0.02 -1.85,-0.07 -2.46,-0.09 2.06,-4.73 5.06,-8.96 7.72,-13.36 m 12.73,-14.54 c -0.08,1.46 -0.11,2.93 -0.1,4.4 1.55,-1.05 2.34,-3.63 0.1,-4.4 m -7.01,16.74 c 0.44,1.61 2.23,1.99 3.48,2.79 0.45,-3.88 2.38,-7.56 2,-11.52 -1.95,2.82 -4.11,5.57 -5.48,8.73 z"
     id="path155" />
  <path
     fill="#000000"
     opacity="1"
     d="m 313.84,247.58 0.34,-0.1 c -0.08,0.09 -0.22,0.29 -0.29,0.39 z"
     id="path157" />
  <g
     id="#4f4f4fff"
     transform="translate(-57.15,-3.05)">
    <path
       fill="#4f4f4f"
       opacity="1"
       d="m 132.28,62.19 c 1.61,-0.52 2.16,0.05 1.65,1.69 -1.62,0.5 -2.17,-0.06 -1.65,-1.69 z"
       id="path350" />
    <path
       fill="#4f4f4f"
       opacity="1"
       d="m 376.31,239.26 c 0.54,0.5 0.54,0.5 0,0 z"
       id="path352" />
  </g>
  <g
     id="#7c7c7cff"
     transform="translate(-57.15,-3.05)">
    <path
       fill="#7c7c7c"
       opacity="1"
       d="m 330.15,110.14 c 3.31,0.15 -1.52,3.03 0,0 z"
       id="path432" />
  </g>
  <g
     id="#787878ff"
     transform="translate(-57.15,-3.05)">
    <path
       fill="#787878"
       opacity="1"
       d="m 132.43,135.11 c 3.04,-1.51 0.11,3.3 0,0 z"
       id="path450" />
  </g>
  <g
     id="#6f6f6fff"
     transform="translate(-57.15,-3.05)">
    <path
       fill="#6f6f6f"
       opacity="1"
       d="m 116.18,165.13 c 1.45,-0.49 1.9,-0.04 1.35,1.35 -1.44,0.49 -1.89,0.04 -1.35,-1.35 z"
       id="path458" />
    <path
       fill="#6f6f6f"
       opacity="1"
       d="m 301.22,221.39 c 0.56,0.54 0.56,0.54 0,0 z"
       id="path460" />
    <path
       fill="#6f6f6f"
       opacity="1"
       d="m 408.24,545.49 c 0.52,0.49 0.52,0.49 0,0 z"
       id="path462" />
    <path
       fill="#6f6f6f"
       opacity="1"
       d="m 353.22,600.19 c 0.53,-0.08 1.58,-0.24 2.1,-0.32 l 0.87,0.44 c -0.68,0.96 -2.87,1.59 -2.97,-0.12 z"
       id="path464" />
  </g>
  <g
     id="#717171ff"
     transform="translate(-57.15,-3.05)">
    <path
       fill="#717171"
       opacity="1"
       d="m 280.15,179.86 c 0.35,-1.26 1.17,-1.51 2.45,-0.74 -0.36,1.26 -1.17,1.51 -2.45,0.74 z"
       id="path522" />
    <path
       fill="#717171"
       opacity="1"
       d="m 182.36,215.21 c 3,-1.59 0.19,3.3 0,0 z"
       id="path524" />
    <path
       fill="#717171"
       opacity="1"
       d="m 305.2,266.18 c 0.51,0.57 0.51,0.57 0,0 z"
       id="path526" />
  </g>
  <path
     fill="#918f8f"
     opacity="1"
     d="m 165.24,190.21 c 0.93,-1.45 3.6,0.06 2.47,1.55 -0.98,1.4 -3.61,-0.04 -2.47,-1.55 z"
     id="path579" />
  <path
     fill="#918f8f"
     opacity="1"
     d="m 246.76,218.19 c 1.41,-0.33 1.93,0.18 1.56,1.53 -1.44,0.33 -1.96,-0.18 -1.56,-1.53 z"
     id="path581" />
  <g
     id="#707070ff"
     transform="translate(-57.15,-3.05)">
    <path
       fill="#707070"
       opacity="1"
       d="m 172.22,210.15 c 1.66,-0.54 2.24,0 1.73,1.6 -1.66,0.52 -2.24,-0.01 -1.73,-1.6 z"
       id="path644" />
  </g>
  <g
     id="#525252ff"
     transform="translate(-57.15,-3.05)">
    <path
       fill="#525252"
       opacity="1"
       d="m 235,218.21 c 1.6,-0.59 2.17,-0.06 1.71,1.59 -1.61,0.59 -2.18,0.06 -1.71,-1.59 z"
       id="path668" />
  </g>
  <path
     fill="#5e5e5e"
     opacity="1"
     d="m 286.26,224.17 c 0.51,0.55 0.51,0.55 0,0 z"
     id="path778" />
  <g
     id="#5a5a5aff"
     transform="translate(-57.15,-3.05)">
    <path
       fill="#5a5a5a"
       opacity="1"
       d="m 279.32,229.17 c 0.51,0.54 0.51,0.54 0,0 z"
       id="path786" />
  </g>
  <g
     id="#454545ff"
     transform="translate(-57.15,-3.05)">
    <path
       fill="#454545"
       opacity="1"
       d="m 322.25,234.13 c 3.02,-1.47 0.06,3.33 0,0 z"
       id="path797" />
  </g>
  <g
     id="#505050ff"
     transform="translate(-57.15,-3.05)">
    <path
       fill="#505050"
       opacity="1"
       d="m 320.22,239.3 c 0.55,0.49 0.55,0.49 0,0 z"
       id="path817" />
  </g>
  <g
     id="#272727ff"
     transform="translate(-57.15,-3.05)">
    <path
       fill="#272727"
       opacity="1"
       d="m 316.2,241.14 c 3.01,-1.48 0.06,3.33 0,0 z"
       id="path825" />
  </g>
  <g
     id="#737373ff"
     transform="translate(-57.15,-3.05)">
    <path
       fill="#737373"
       opacity="1"
       d="m 273.27,245.09 c 0.53,0.56 0.53,0.56 0,0 z"
       id="path828" />
  </g>
  <g
     id="#727272ff"
     transform="translate(-57.15,-3.05)">
    <path
       fill="#727272"
       opacity="1"
       d="m 356.14,249.12 c 3.3,0.15 -1.56,3.01 0,0 z"
       id="path831" />
  </g>
  <g
     id="#595959ff"
     transform="translate(-57.15,-3.05)">
    <path
       fill="#595959"
       opacity="1"
       d="m 335.33,250.23 c 0.51,0.54 0.51,0.54 0,0 z"
       id="path834" />
  </g>
  <g
     id="#535353ff"
     transform="translate(-57.15,-3.05)">
    <path
       fill="#535353"
       opacity="1"
       d="m 379.54,251.58 c 0.02,-0.02 0.05,-0.07 0.07,-0.1 -0.02,0.03 -0.05,0.08 -0.07,0.1 z"
       id="path837" />
  </g>
  <g
     id="#9f9f9fff"
     transform="translate(-57.15,-3.05)">
    <path
       fill="#9f9f9f"
       opacity="1"
       d="m 321.21,252.23 c 0.61,0.57 0.61,0.57 0,0 z"
       id="path840" />
  </g>
  <g
     id="#575757ff"
     transform="translate(-57.15,-3.05)">
    <path
       fill="#575757"
       opacity="1"
       d="m 273.14,253.47 c 3.31,0.23 -1.6,2.97 0,0 z"
       id="path848" />
  </g>
  <g
     id="#919191ff"
     transform="translate(-57.15,-3.05)">
    <path
       fill="#919191"
       opacity="1"
       d="m 358.22,261.24 c 0.57,0.59 0.57,0.59 0,0 z"
       id="path866" />
  </g>
  <g
     id="#5e8798ff"
     transform="translate(-57.15,-3.05)">
    <path
       fill="#5e8798"
       opacity="1"
       d="m 298.56,267.73 c 0.03,-0.06 0.1,-0.18 0.13,-0.24 -0.03,0.06 -0.1,0.18 -0.13,0.24 z"
       id="path869" />
  </g>
  <g
     id="#6abbdeff"
     transform="translate(-57.15,-3.05)">
    <path
       fill="#6abbde"
       opacity="1"
       d="m 369.06,270.45 c 0.02,-0.07 0.08,-0.2 0.1,-0.27 -0.02,0.07 -0.08,0.2 -0.1,0.27 z"
       id="path872" />
  </g>
  <g
     id="#313131ff"
     transform="translate(-57.15,-3.05)">
    <path
       fill="#313131"
       opacity="1"
       d="m 301.09,272.32 c 3.32,0.07 -1.47,3.02 0,0 z"
       id="path907" />
  </g>
  <g
     id="#6dc8efff"
     transform="translate(-57.15,-3.05)">
    <path
       fill="#6dc8ef"
       opacity="1"
       d="m 508.23,274.29 c 1.66,-0.34 1.56,3.7 -0.06,3.36 -0.38,-1.13 -0.36,-2.25 0.06,-3.36 z"
       id="path910" />
  </g>
  <g
     id="#868686ff"
     transform="translate(-57.15,-3.05)">
    <path
       fill="#868686"
       opacity="1"
       d="m 296.23,275.28 c 0.56,0.58 0.56,0.58 0,0 z"
       id="path913" />
  </g>
  <g
     id="#5c5c5cff"
     transform="translate(-57.15,-3.05)">
    <path
       fill="#5c5c5c"
       opacity="1"
       d="m 349.1,280.06 c 3.29,0.22 -1.58,2.98 0,0 z"
       id="path921" />
    <path
       fill="#5c5c5c"
       opacity="1"
       d="m 380.08,702.08 c 3.01,-1.61 0.19,3.31 0,0 z"
       id="path923" />
  </g>
  <g
     id="#a1a1a1ff"
     transform="translate(-57.15,-3.05)">
    <path
       fill="#a1a1a1"
       opacity="1"
       d="m 353.25,284.25 c 0.61,0.58 0.61,0.58 0,0 z"
       id="path926" />
  </g>
</svg>
