<svg fill="none" xmlns="http://www.w3.org/2000/svg" width="28" height="28" viewBox="11 17 34 22" focusable="false"><script xmlns="" id="argent-x-extension" data-extension-id="{51e0c76c-7dbc-41ba-a45d-c579be84301b}"/><path d="M34.3863 23.6708C34.257 23.805 34.1351 23.9405 34.0107 24.0747C34.0107 23.8891 34.0217 23.6984 34.0217 23.5152C34.0217 23.3321 34.0217 23.1301 34.0131 22.9394C33.8009 15.0202 22.1984 15.0202 21.9862 22.9394C21.9814 23.1301 21.9789 23.322 21.9789 23.5152C21.9789 23.7047 21.985 23.8916 21.9899 24.0747C21.868 23.9405 21.746 23.805 21.6143 23.6708C21.4826 23.5366 21.346 23.3998 21.2119 23.2694C15.6131 17.8239 7.41424 26.27 12.7069 32.0166C12.8354 32.1554 12.9659 32.2934 13.0984 32.4305C19.485 39 27.9997 39 27.9997 39C27.9997 39 36.5156 39 42.9022 32.4305C43.0355 32.2942 43.166 32.1562 43.2936 32.0166C48.5863 26.2637 40.3827 17.8239 34.7887 23.2694C34.6534 23.3998 34.5156 23.534 34.3863 23.6708Z" fill="#2CB857"/></svg>
