<?xml version="1.0" encoding="UTF-8" ?>
<!DOCTYPE svg PUBLIC "-//W3C//DTD SVG 1.1//EN" "http://www.w3.org/Graphics/SVG/1.1/DTD/svg11.dtd">
<svg width="413pt" height="337pt" viewBox="0 0 413 337" version="1.1" xmlns="http://www.w3.org/2000/svg">
<g id="#ffffffff">
<path fill="#ffffff" opacity="1.00" d=" M 0.00 0.00 L 413.00 0.00 L 413.00 337.00 L 181.60 337.00 C 191.96 335.60 202.52 334.11 212.97 335.63 C 218.96 336.35 225.00 335.93 230.99 335.44 C 252.36 334.26 273.52 329.90 294.98 330.31 C 301.03 330.97 307.01 329.74 313.03 329.43 C 329.88 329.10 346.48 332.93 363.30 333.08 C 366.48 315.64 367.76 297.77 366.57 280.07 C 365.55 272.38 366.95 264.69 367.12 257.00 C 371.17 201.38 383.24 146.81 392.30 91.89 C 396.75 64.34 400.47 36.42 409.91 10.01 C 410.96 7.08 412.52 4.18 412.14 0.95 C 408.20 -0.14 404.07 0.15 400.14 1.10 C 381.42 5.52 362.05 4.10 343.05 5.92 C 337.68 6.28 332.39 7.38 327.01 7.68 C 313.03 8.28 298.99 9.82 285.02 8.05 C 250.40 6.25 215.71 7.15 181.05 7.00 C 155.70 7.48 130.34 7.81 104.99 7.93 C 99.98 7.70 95.05 6.40 90.01 6.81 C 86.91 6.83 84.15 8.58 81.06 8.68 C 67.91 9.24 54.83 4.99 41.70 6.82 C 36.07 22.66 31.72 39.18 30.55 56.03 C 27.31 78.63 22.13 101.09 21.94 124.02 C 19.45 179.87 12.81 235.45 4.80 290.76 C 3.15 292.11 1.56 293.52 0.13 295.12 L 0.00 294.14 L 0.00 0.00 Z" />
<path fill="#ffffff" opacity="1.00" d=" M 128.42 114.51 C 132.39 113.27 138.54 114.54 139.06 119.46 C 136.87 119.65 133.87 119.42 133.03 122.01 C 132.30 125.86 133.50 129.73 135.17 133.17 C 133.33 134.37 130.99 134.15 128.92 133.89 C 121.28 130.72 120.99 118.08 128.42 114.51 Z" />
<path fill="#ffffff" opacity="1.00" d=" M 191.91 132.03 C 192.91 129.83 196.58 126.65 198.55 129.39 C 199.39 133.26 196.69 137.42 198.79 141.18 C 193.44 143.18 189.17 136.50 191.91 132.03 Z" />
<path fill="#ffffff" opacity="1.00" d=" M 265.72 136.86 C 264.80 132.71 268.49 126.70 273.16 128.68 C 272.77 132.89 270.97 137.05 272.30 141.28 C 269.24 142.41 265.77 140.16 265.72 136.86 Z" />
<path fill="#ffffff" opacity="1.00" d=" M 212.24 141.23 C 212.93 140.62 213.26 139.23 214.34 139.21 C 215.82 152.40 217.52 165.57 218.92 178.77 C 204.39 178.46 190.45 170.66 182.30 158.68 C 193.78 156.37 205.17 150.87 212.24 141.23 Z" />
<path fill="#ffffff" opacity="1.00" d=" M 286.44 140.84 C 288.82 144.36 288.91 148.82 289.70 152.88 C 290.04 158.02 290.89 163.11 291.25 168.25 C 281.46 170.97 270.68 173.69 260.89 169.49 C 263.50 164.45 270.51 165.95 273.75 161.68 C 279.16 155.62 285.49 149.34 286.44 140.84 Z" />
<path fill="#ffffff" opacity="1.00" d=" M 128.61 160.47 C 134.51 157.96 139.09 153.21 144.88 150.57 C 147.39 160.17 143.97 170.09 139.84 178.72 C 136.42 185.75 132.66 192.60 129.57 199.78 C 116.72 195.40 110.18 182.56 103.12 171.97 C 101.30 169.92 102.77 166.56 105.19 165.79 C 107.95 164.69 111.02 165.12 113.88 164.40 C 118.77 163.00 124.06 162.98 128.61 160.47 Z" />
<path fill="#ffffff" opacity="1.00" d=" M 181.18 164.69 C 184.03 165.98 185.92 168.64 188.45 170.43 C 196.58 177.22 206.53 182.95 217.48 182.33 C 219.15 196.60 216.86 210.88 214.81 224.97 C 205.87 220.19 204.26 209.12 197.81 202.07 C 188.82 191.63 181.19 178.87 181.18 164.69 Z" />
<path fill="#ffffff" opacity="1.00" d=" M 93.95 168.13 C 102.11 171.10 102.72 181.17 108.18 186.86 C 113.56 193.79 120.42 199.32 127.09 204.92 C 123.58 222.36 117.02 239.10 109.15 255.03 C 106.65 260.07 106.71 266.65 101.61 270.11 C 97.70 268.13 95.08 264.30 93.86 260.17 C 92.63 256.52 93.10 252.61 92.41 248.86 C 88.12 222.15 88.97 194.70 93.95 168.13 Z" />
<path fill="#ffffff" opacity="1.00" d=" M 280.07 174.98 C 283.72 174.05 287.47 173.69 291.18 173.11 C 293.21 185.89 289.48 198.60 287.46 211.15 C 286.48 209.65 286.14 207.88 285.79 206.16 C 282.64 194.04 275.63 182.93 265.90 175.03 C 270.62 175.30 275.38 176.03 280.07 174.98 Z" />
<path fill="#ffffff" opacity="1.00" d=" M 0.00 295.16 C 1.83 296.45 5.90 296.76 4.96 299.91 C 3.78 307.61 3.05 315.40 2.79 323.19 C 7.63 325.57 12.89 326.95 18.21 327.76 C 31.75 329.40 45.42 328.54 59.00 329.42 C 87.83 327.43 116.16 336.29 144.98 334.61 C 153.49 334.73 161.97 335.61 170.36 337.00 L 0.00 337.00 L 0.00 295.16 Z" />
</g>
<g id="#000000ff">
<path fill="#000000" opacity="1.00" d=" M 400.14 1.10 C 404.07 0.15 408.20 -0.14 412.14 0.95 C 412.52 4.18 410.96 7.08 409.91 10.01 C 400.47 36.42 396.75 64.34 392.30 91.89 C 383.24 146.81 371.17 201.38 367.12 257.00 C 366.95 264.69 365.55 272.38 366.57 280.07 C 367.76 297.77 366.48 315.64 363.30 333.08 C 346.48 332.93 329.88 329.10 313.03 329.43 C 307.01 329.74 301.03 330.97 294.98 330.31 C 273.52 329.90 252.36 334.26 230.99 335.44 C 225.00 335.93 218.96 336.35 212.97 335.63 C 202.52 334.11 191.96 335.60 181.60 337.00 L 170.36 337.00 C 161.97 335.61 153.49 334.73 144.98 334.61 C 116.16 336.29 87.83 327.43 59.00 329.42 C 45.42 328.54 31.75 329.40 18.21 327.76 C 12.89 326.95 7.63 325.57 2.79 323.19 C 3.05 315.40 3.78 307.61 4.96 299.91 C 5.90 296.76 1.83 296.45 0.00 295.16 L 0.00 294.14 L 0.13 295.12 C 1.56 293.52 3.15 292.11 4.80 290.76 C 12.81 235.45 19.45 179.87 21.94 124.02 C 22.13 101.09 27.31 78.63 30.55 56.03 C 31.72 39.18 36.07 22.66 41.70 6.82 C 54.83 4.99 67.91 9.24 81.06 8.68 C 84.15 8.58 86.91 6.83 90.01 6.81 C 95.05 6.40 99.98 7.70 104.99 7.93 C 130.34 7.81 155.70 7.48 181.05 7.00 C 215.71 7.15 250.40 6.25 285.02 8.05 C 298.99 9.82 313.03 8.28 327.01 7.68 C 332.39 7.38 337.68 6.28 343.05 5.92 C 362.05 4.10 381.42 5.52 400.14 1.10 M 389.93 8.11 C 372.42 10.80 354.60 10.18 337.09 12.87 C 321.42 13.51 305.70 15.80 290.01 13.98 C 275.05 12.57 260.01 13.28 245.01 12.60 C 222.36 12.05 199.69 12.46 177.03 12.99 C 155.02 12.85 133.00 13.33 110.99 13.97 C 98.64 14.31 86.22 13.21 73.96 14.99 C 65.91 15.97 57.33 16.73 49.79 13.05 C 47.77 13.72 45.63 14.62 44.66 16.68 C 43.06 19.14 44.80 22.22 43.77 24.83 C 38.96 35.83 37.59 48.09 37.99 60.00 C 37.37 68.96 33.31 77.23 31.95 86.06 C 31.37 89.98 31.67 93.99 30.72 97.86 C 28.99 106.33 32.20 115.43 28.66 123.58 C 26.44 127.36 27.19 131.89 26.99 136.07 C 24.81 169.53 20.11 202.79 16.70 236.15 C 16.33 238.61 15.44 241.20 16.40 243.65 C 17.45 246.28 18.80 249.07 18.02 251.98 C 15.46 260.73 13.97 269.80 13.83 278.92 C 12.97 285.59 12.90 292.32 13.00 299.04 C 13.26 304.57 10.02 309.59 10.14 315.10 C 10.50 317.16 11.13 319.66 13.03 320.83 C 22.23 322.35 31.56 322.99 40.88 323.19 C 54.83 324.56 68.87 323.35 82.81 324.84 C 94.93 324.91 106.81 327.53 118.84 328.57 C 127.86 329.43 136.95 328.73 145.99 329.10 C 161.91 330.55 177.91 332.85 193.93 331.13 C 200.95 331.10 207.95 330.77 214.94 330.04 C 244.10 331.86 272.86 323.33 302.02 325.91 C 314.80 323.05 328.23 326.87 340.86 322.84 C 347.97 320.78 353.91 327.97 361.03 326.14 C 361.72 321.13 362.16 316.08 362.01 311.02 C 362.53 292.71 362.52 274.39 363.19 256.09 C 365.09 237.41 367.19 218.75 369.51 200.11 C 372.66 174.90 378.38 150.11 382.22 125.01 C 388.41 87.95 393.76 50.72 401.60 13.95 C 402.16 11.00 403.49 8.27 405.19 5.82 C 400.01 5.89 395.07 7.70 389.93 8.11 Z" />
<path fill="#000000" opacity="1.00" d=" M 95.96 46.04 C 99.41 41.28 101.71 35.83 104.83 30.88 C 105.39 31.23 106.49 31.94 107.05 32.30 C 103.83 45.01 100.69 57.95 94.37 69.58 C 91.36 74.44 93.85 81.17 89.73 85.58 C 81.88 94.32 84.77 108.84 74.66 116.07 C 73.22 115.99 70.99 116.11 70.86 114.13 C 70.78 110.25 74.91 108.55 76.58 105.56 C 81.68 94.43 85.13 82.65 88.57 70.93 C 91.48 62.80 97.05 55.11 95.96 46.04 Z" />
<path fill="#000000" opacity="1.00" d=" M 184.53 48.69 C 187.92 46.49 191.08 43.47 195.20 42.79 C 194.11 44.71 192.77 46.53 190.91 47.78 C 179.57 55.66 170.05 65.82 161.37 76.47 C 157.92 81.22 155.05 88.46 148.10 88.34 C 159.60 74.59 170.20 59.71 184.53 48.69 Z" />
<path fill="#000000" opacity="1.00" d=" M 286.11 50.15 C 287.37 49.22 288.91 48.93 290.44 48.77 C 290.15 49.14 289.56 49.88 289.27 50.25 C 269.92 63.90 252.64 80.34 236.86 97.96 C 233.95 101.00 231.67 104.99 227.79 106.86 C 227.35 106.85 226.46 106.81 226.02 106.80 C 227.11 103.89 229.52 101.83 231.42 99.47 C 247.67 81.04 264.92 62.93 286.11 50.15 Z" />
<path fill="#000000" opacity="1.00" d=" M 299.02 95.92 C 315.66 88.76 330.38 78.08 345.88 68.89 C 345.12 70.37 344.17 71.76 342.87 72.82 C 329.98 84.15 314.51 91.91 299.09 99.18 C 298.13 99.58 296.32 100.78 295.85 99.11 C 294.68 97.79 295.80 96.19 296.19 94.81 C 297.14 95.16 298.08 95.53 299.02 95.92 Z" />
<path fill="#000000" opacity="1.00" d=" M 130.04 97.03 C 138.88 95.40 148.94 95.11 156.75 100.23 C 160.07 102.23 161.61 105.98 162.65 109.54 C 164.42 117.87 162.45 126.73 157.73 133.78 C 155.77 137.14 151.78 139.63 152.01 143.96 C 152.11 149.66 151.43 155.36 150.24 160.92 C 146.94 175.02 138.87 187.30 133.81 200.72 C 135.03 201.88 137.51 202.63 137.00 204.73 C 135.45 206.59 133.15 205.84 131.30 204.97 C 126.55 226.78 116.61 246.91 108.54 267.54 C 105.60 273.02 95.94 275.94 92.56 269.45 C 89.09 258.58 87.51 247.20 86.31 235.89 C 84.75 212.57 86.24 189.15 89.76 166.07 C 90.11 163.19 90.23 160.20 91.58 157.55 C 98.16 143.59 102.01 128.36 110.21 115.17 C 115.00 107.53 121.62 100.58 130.04 97.03 M 130.13 101.12 C 124.30 103.90 119.73 108.75 115.65 113.65 C 107.53 124.49 103.46 137.62 99.23 150.31 C 98.15 153.70 96.45 157.40 98.19 160.87 C 105.57 162.62 112.66 159.11 119.98 158.90 C 127.41 157.56 134.58 154.22 140.13 149.06 C 144.55 144.90 148.92 139.59 149.07 133.25 C 147.51 132.61 146.42 130.94 147.59 129.39 C 148.82 128.48 150.26 127.55 151.84 127.57 C 154.61 128.13 152.85 131.47 153.03 133.29 C 158.00 126.84 160.10 118.24 158.90 110.19 C 157.42 104.86 152.34 101.10 146.93 100.55 C 141.35 99.12 135.71 100.56 130.13 101.12 M 128.61 160.47 C 124.06 162.98 118.77 163.00 113.88 164.40 C 111.02 165.12 107.95 164.69 105.19 165.79 C 102.77 166.56 101.30 169.92 103.12 171.97 C 110.18 182.56 116.72 195.40 129.57 199.78 C 132.66 192.60 136.42 185.75 139.84 178.72 C 143.97 170.09 147.39 160.17 144.88 150.57 C 139.09 153.21 134.51 157.96 128.61 160.47 M 93.95 168.13 C 88.97 194.70 88.12 222.15 92.41 248.86 C 93.10 252.61 92.63 256.52 93.86 260.17 C 95.08 264.30 97.70 268.13 101.61 270.11 C 106.71 266.65 106.65 260.07 109.15 255.03 C 117.02 239.10 123.58 222.36 127.09 204.92 C 120.42 199.32 113.56 193.79 108.18 186.86 C 102.72 181.17 102.11 171.10 93.95 168.13 Z" />
<path fill="#000000" opacity="1.00" d=" M 271.60 108.72 C 276.23 105.56 282.89 107.79 285.67 112.40 C 290.16 119.03 289.31 127.40 288.89 134.94 C 293.39 144.46 291.37 155.51 295.51 165.15 C 296.17 163.95 296.45 162.39 297.81 161.75 C 297.98 164.72 298.97 168.49 296.03 170.48 C 295.86 186.40 294.55 202.68 288.49 217.56 C 285.27 222.16 281.43 226.47 276.89 229.82 C 272.52 233.17 266.09 233.55 261.53 230.36 C 258.48 228.19 254.46 229.58 251.23 227.82 C 246.67 218.36 244.65 207.88 243.29 197.53 C 241.77 179.22 243.60 160.65 249.00 143.06 C 252.71 129.69 260.03 116.78 271.60 108.72 M 272.59 112.58 C 259.45 121.41 252.98 137.00 250.15 152.03 C 249.06 156.66 249.01 161.45 247.85 166.05 C 261.31 167.70 274.08 158.93 280.45 147.52 C 285.71 139.08 286.16 128.77 285.59 119.14 C 284.93 113.60 277.34 108.25 272.59 112.58 M 286.44 140.84 C 285.49 149.34 279.16 155.62 273.75 161.68 C 270.51 165.95 263.50 164.45 260.89 169.49 C 270.68 173.69 281.46 170.97 291.25 168.25 C 290.89 163.11 290.04 158.02 289.70 152.88 C 288.91 148.82 288.82 144.36 286.44 140.84 M 247.10 169.81 C 245.26 175.71 245.92 181.94 245.86 188.02 C 245.59 195.18 248.04 202.11 248.02 209.25 C 249.31 209.22 250.60 209.20 251.89 209.18 C 251.88 212.07 251.93 214.96 251.98 217.86 C 255.75 217.86 253.79 222.94 256.59 224.44 C 261.68 228.63 269.87 230.88 275.66 226.82 C 278.97 224.45 280.86 220.58 281.80 216.71 C 282.79 209.62 282.04 202.06 278.43 195.76 C 273.74 187.12 267.48 178.99 259.08 173.70 C 255.44 171.55 251.49 169.26 247.10 169.81 M 280.07 174.98 C 275.38 176.03 270.62 175.30 265.90 175.03 C 275.63 182.93 282.64 194.04 285.79 206.16 C 286.14 207.88 286.48 209.65 287.46 211.15 C 289.48 198.60 293.21 185.89 291.18 173.11 C 287.47 173.69 283.72 174.05 280.07 174.98 Z" />
<path fill="#000000" opacity="1.00" d=" M 130.69 110.83 C 135.69 109.83 139.68 113.85 142.33 117.54 C 144.05 120.52 145.92 124.12 144.49 127.59 C 142.15 132.06 138.07 135.25 135.06 139.24 C 133.61 141.63 130.35 140.34 128.22 139.72 C 123.89 138.44 121.32 134.22 120.21 130.10 C 119.99 125.77 119.37 120.93 121.96 117.13 C 123.71 113.81 127.06 111.60 130.69 110.83 M 128.42 114.51 C 120.99 118.08 121.28 130.72 128.92 133.89 C 130.99 134.15 133.33 134.37 135.17 133.17 C 133.50 129.73 132.30 125.86 133.03 122.01 C 133.87 119.42 136.87 119.65 139.06 119.46 C 138.54 114.54 132.39 113.27 128.42 114.51 Z" />
<path fill="#000000" opacity="1.00" d=" M 190.44 122.45 C 194.75 119.63 200.04 119.34 204.92 118.11 C 210.14 117.99 216.31 119.08 219.71 123.44 C 221.77 126.06 219.87 129.14 219.25 131.89 C 218.01 145.31 220.30 158.65 221.93 171.92 C 222.23 178.29 221.89 184.67 221.21 191.00 C 220.87 204.36 219.89 217.77 217.12 230.87 C 218.93 232.53 220.80 234.13 222.33 236.06 C 217.81 236.19 213.90 233.35 211.21 229.95 C 208.35 226.37 205.63 222.66 203.43 218.63 C 195.39 204.78 184.16 192.71 178.61 177.49 C 176.52 172.06 175.98 166.27 174.98 160.59 L 175.95 158.43 C 174.66 158.55 173.38 158.64 172.09 158.70 C 163.35 182.44 159.34 207.67 157.74 232.82 C 157.49 235.53 156.71 238.26 157.13 240.98 C 158.46 243.54 163.75 244.89 162.02 248.22 C 158.09 249.53 154.78 245.57 154.06 242.05 C 152.71 211.98 159.63 182.13 170.07 154.07 C 171.98 148.58 174.54 143.34 177.20 138.18 C 180.43 132.11 184.45 126.09 190.44 122.45 M 197.61 123.02 C 198.98 125.74 203.10 125.42 204.20 128.52 C 207.78 133.91 204.81 140.23 201.93 145.16 C 202.38 145.08 203.29 144.91 203.74 144.83 C 208.39 141.60 210.56 136.08 212.07 130.85 C 212.54 128.84 215.17 129.44 216.30 128.08 C 217.27 125.35 214.19 123.50 211.98 122.98 C 207.20 122.79 202.40 122.92 197.61 123.02 M 191.91 132.03 C 189.17 136.50 193.44 143.18 198.79 141.18 C 196.69 137.42 199.39 133.26 198.55 129.39 C 196.58 126.65 192.91 129.83 191.91 132.03 M 187.42 130.25 C 182.07 137.71 177.47 145.72 173.82 154.15 C 175.01 155.20 175.85 157.18 177.74 156.97 C 183.41 153.93 190.04 153.53 195.76 150.63 C 195.88 150.24 196.11 149.45 196.22 149.06 C 190.96 144.24 185.76 137.06 188.97 129.62 C 188.58 129.78 187.81 130.10 187.42 130.25 M 212.24 141.23 C 205.17 150.87 193.78 156.37 182.30 158.68 C 190.45 170.66 204.39 178.46 218.92 178.77 C 217.52 165.57 215.82 152.40 214.34 139.21 C 213.26 139.23 212.93 140.62 212.24 141.23 M 181.18 164.69 C 181.19 178.87 188.82 191.63 197.81 202.07 C 204.26 209.12 205.87 220.19 214.81 224.97 C 216.86 210.88 219.15 196.60 217.48 182.33 C 206.53 182.95 196.58 177.22 188.45 170.43 C 185.92 168.64 184.03 165.98 181.18 164.69 Z" />
<path fill="#000000" opacity="1.00" d=" M 264.52 123.82 C 271.00 121.03 279.17 125.51 281.60 131.89 C 282.56 135.28 279.73 138.19 278.02 140.84 C 275.48 144.47 272.81 148.81 268.16 149.84 C 263.86 150.77 261.81 146.01 260.39 142.85 C 257.39 136.47 259.62 128.60 264.52 123.82 M 265.72 136.86 C 265.77 140.16 269.24 142.41 272.30 141.28 C 270.97 137.05 272.77 132.89 273.16 128.68 C 268.49 126.70 264.80 132.71 265.72 136.86 Z" />
<path fill="#000000" opacity="1.00" d=" M 38.00 132.48 C 40.32 133.05 42.20 134.80 42.78 137.14 C 44.11 142.99 42.90 149.10 44.49 154.93 C 46.47 167.59 46.63 181.50 54.68 192.18 C 56.06 194.63 59.26 194.92 60.80 197.19 C 63.57 201.07 63.57 206.51 67.22 209.84 C 69.39 211.44 72.40 212.97 72.14 216.16 C 68.87 215.63 66.87 212.57 64.43 210.61 C 48.39 194.48 42.16 171.53 39.31 149.59 C 38.94 143.88 37.75 138.22 38.00 132.48 Z" />
<path fill="#000000" opacity="1.00" d=" M 327.91 164.75 C 330.87 165.59 329.97 169.38 331.46 171.47 C 337.73 182.73 349.93 188.96 356.72 199.85 C 349.17 193.92 341.27 188.25 334.81 181.09 C 330.97 176.53 327.79 170.88 327.91 164.75 Z" />
<path fill="#000000" opacity="1.00" d=" M 317.86 220.99 C 318.32 221.01 319.24 221.05 319.70 221.07 C 319.09 232.22 322.59 243.00 323.63 254.01 C 319.04 243.67 317.51 232.23 317.86 220.99 Z" />
<path fill="#000000" opacity="1.00" d=" M 53.82 268.11 C 44.25 257.08 36.03 243.98 34.22 229.22 C 42.07 243.25 47.26 259.47 59.70 270.34 C 63.41 273.86 66.97 267.27 71.19 268.80 C 70.94 272.69 67.58 275.28 64.01 276.05 C 59.46 275.24 56.86 271.15 53.82 268.11 Z" />
<path fill="#000000" opacity="1.00" d=" M 276.53 270.60 C 276.94 270.41 277.78 270.02 278.20 269.82 C 271.51 282.20 260.50 292.17 247.74 298.03 C 247.90 296.42 249.11 295.33 250.44 294.60 C 253.43 292.93 256.06 290.75 258.84 288.77 C 265.75 283.77 270.69 276.71 276.53 270.60 Z" />
<path fill="#000000" opacity="1.00" d=" M 176.15 282.23 C 179.41 281.00 182.18 278.33 185.91 278.71 C 182.07 282.78 176.59 284.72 171.41 286.47 C 163.11 288.92 154.49 289.96 146.02 291.66 C 155.64 287.21 166.39 286.26 176.15 282.23 Z" />
<path fill="#000000" opacity="1.00" d=" M 41.58 301.32 C 45.54 302.87 47.89 307.91 52.73 307.09 C 54.29 310.91 59.24 310.81 61.24 314.10 C 56.37 311.77 51.12 310.22 46.48 307.42 C 44.17 306.05 42.39 303.89 41.58 301.32 Z" />
<path fill="#000000" opacity="1.00" d=" M 71.33 316.18 C 78.67 317.27 86.91 318.30 93.39 313.80 C 93.17 316.92 89.42 318.07 86.97 319.13 C 83.32 319.27 79.67 319.14 76.03 319.08 C 74.02 319.18 72.10 318.07 71.33 316.18 Z" />
</g>
<g id="#ffc90eff">
<path fill="#ffc90e" opacity="1.00" d=" M 389.93 8.11 C 395.07 7.70 400.01 5.89 405.19 5.82 C 403.49 8.27 402.16 11.00 401.60 13.95 C 393.76 50.72 388.41 87.95 382.22 125.01 C 378.38 150.11 372.66 174.90 369.51 200.11 C 367.19 218.75 365.09 237.41 363.19 256.09 C 362.52 274.39 362.53 292.71 362.01 311.02 C 362.16 316.08 361.72 321.13 361.03 326.14 C 353.91 327.97 347.97 320.78 340.86 322.84 C 328.23 326.87 314.80 323.05 302.02 325.91 C 272.86 323.33 244.10 331.86 214.94 330.04 C 207.95 330.77 200.95 331.10 193.93 331.13 C 177.91 332.85 161.91 330.55 145.99 329.10 C 136.95 328.73 127.86 329.43 118.84 328.57 C 106.81 327.53 94.93 324.91 82.81 324.84 C 68.87 323.35 54.83 324.56 40.88 323.19 C 31.56 322.99 22.23 322.35 13.03 320.83 C 11.13 319.66 10.50 317.16 10.14 315.10 C 10.02 309.59 13.26 304.57 13.00 299.04 C 12.90 292.32 12.97 285.59 13.83 278.92 C 13.97 269.80 15.46 260.73 18.02 251.98 C 18.80 249.07 17.45 246.28 16.40 243.65 C 15.44 241.20 16.33 238.61 16.70 236.15 C 20.11 202.79 24.81 169.53 26.99 136.07 C 27.19 131.89 26.44 127.36 28.66 123.58 C 32.20 115.43 28.99 106.33 30.72 97.86 C 31.67 93.99 31.37 89.98 31.95 86.06 C 33.31 77.23 37.37 68.96 37.99 60.00 C 37.59 48.09 38.96 35.83 43.77 24.83 C 44.80 22.22 43.06 19.14 44.66 16.68 C 45.63 14.62 47.77 13.72 49.79 13.05 C 57.33 16.73 65.91 15.97 73.96 14.99 C 86.22 13.21 98.64 14.31 110.99 13.97 C 133.00 13.33 155.02 12.85 177.03 12.99 C 199.69 12.46 222.36 12.05 245.01 12.60 C 260.01 13.28 275.05 12.57 290.01 13.98 C 305.70 15.80 321.42 13.51 337.09 12.87 C 354.60 10.18 372.42 10.80 389.93 8.11 M 95.96 46.04 C 97.05 55.11 91.48 62.80 88.57 70.93 C 85.13 82.65 81.68 94.43 76.58 105.56 C 74.91 108.55 70.78 110.25 70.86 114.13 C 70.99 116.11 73.22 115.99 74.66 116.07 C 84.77 108.84 81.88 94.32 89.73 85.58 C 93.85 81.17 91.36 74.44 94.37 69.58 C 100.69 57.95 103.83 45.01 107.05 32.30 C 106.49 31.94 105.39 31.23 104.83 30.88 C 101.71 35.83 99.41 41.28 95.96 46.04 M 184.53 48.69 C 170.20 59.71 159.60 74.59 148.10 88.34 C 155.05 88.46 157.92 81.22 161.37 76.47 C 170.05 65.82 179.57 55.66 190.91 47.78 C 192.77 46.53 194.11 44.71 195.20 42.79 C 191.08 43.47 187.92 46.49 184.53 48.69 M 286.11 50.15 C 264.92 62.93 247.67 81.04 231.42 99.47 C 229.52 101.83 227.11 103.89 226.02 106.80 C 226.46 106.81 227.35 106.85 227.79 106.86 C 231.67 104.99 233.95 101.00 236.86 97.96 C 252.64 80.34 269.92 63.90 289.27 50.25 C 289.56 49.88 290.15 49.14 290.44 48.77 C 288.91 48.93 287.37 49.22 286.11 50.15 M 299.02 95.92 C 298.08 95.53 297.14 95.16 296.19 94.81 C 295.80 96.19 294.68 97.79 295.85 99.11 C 296.32 100.78 298.13 99.58 299.09 99.18 C 314.51 91.91 329.98 84.15 342.87 72.82 C 344.17 71.76 345.12 70.37 345.88 68.89 C 330.38 78.08 315.66 88.76 299.02 95.92 M 130.04 97.03 C 121.62 100.58 115.00 107.53 110.21 115.17 C 102.01 128.36 98.16 143.59 91.58 157.55 C 90.23 160.20 90.11 163.19 89.76 166.07 C 86.24 189.15 84.75 212.57 86.31 235.89 C 87.51 247.20 89.09 258.58 92.56 269.45 C 95.94 275.94 105.60 273.02 108.54 267.54 C 116.61 246.91 126.55 226.78 131.30 204.97 C 133.15 205.84 135.45 206.59 137.00 204.73 C 137.51 202.63 135.03 201.88 133.81 200.72 C 138.87 187.30 146.94 175.02 150.24 160.92 C 151.43 155.36 152.11 149.66 152.01 143.96 C 151.78 139.63 155.77 137.14 157.73 133.78 C 162.45 126.73 164.42 117.87 162.65 109.54 C 161.61 105.98 160.07 102.23 156.75 100.23 C 148.94 95.11 138.88 95.40 130.04 97.03 M 271.60 108.72 C 260.03 116.78 252.71 129.69 249.00 143.06 C 243.60 160.65 241.77 179.22 243.29 197.53 C 244.65 207.88 246.67 218.36 251.23 227.82 C 254.46 229.58 258.48 228.19 261.53 230.36 C 266.09 233.55 272.52 233.17 276.89 229.82 C 281.43 226.47 285.27 222.16 288.49 217.56 C 294.55 202.68 295.86 186.40 296.03 170.48 C 298.97 168.49 297.98 164.72 297.81 161.75 C 296.45 162.39 296.17 163.95 295.51 165.15 C 291.37 155.51 293.39 144.46 288.89 134.94 C 289.31 127.40 290.16 119.03 285.67 112.40 C 282.89 107.79 276.23 105.56 271.60 108.72 M 190.44 122.45 C 184.45 126.09 180.43 132.11 177.20 138.18 C 174.54 143.34 171.98 148.58 170.07 154.07 C 159.63 182.13 152.71 211.98 154.06 242.05 C 154.78 245.57 158.09 249.53 162.02 248.22 C 163.75 244.89 158.46 243.54 157.13 240.98 C 156.71 238.26 157.49 235.53 157.74 232.82 C 159.34 207.67 163.35 182.44 172.09 158.70 C 173.38 158.64 174.66 158.55 175.95 158.43 L 174.98 160.59 C 175.98 166.27 176.52 172.06 178.61 177.49 C 184.16 192.71 195.39 204.78 203.43 218.63 C 205.63 222.66 208.35 226.37 211.21 229.95 C 213.90 233.35 217.81 236.19 222.33 236.06 C 220.80 234.13 218.93 232.53 217.12 230.87 C 219.89 217.77 220.87 204.36 221.21 191.00 C 221.89 184.67 222.23 178.29 221.93 171.92 C 220.30 158.65 218.01 145.31 219.25 131.89 C 219.87 129.14 221.77 126.06 219.71 123.44 C 216.31 119.08 210.14 117.99 204.92 118.11 C 200.04 119.34 194.75 119.63 190.44 122.45 M 38.00 132.48 C 37.75 138.22 38.94 143.88 39.31 149.59 C 42.16 171.53 48.39 194.48 64.43 210.61 C 66.87 212.57 68.87 215.63 72.14 216.16 C 72.40 212.97 69.39 211.44 67.22 209.84 C 63.57 206.51 63.57 201.07 60.80 197.19 C 59.26 194.92 56.06 194.63 54.68 192.18 C 46.63 181.50 46.47 167.59 44.49 154.93 C 42.90 149.10 44.11 142.99 42.78 137.14 C 42.20 134.80 40.32 133.05 38.00 132.48 M 327.91 164.75 C 327.79 170.88 330.97 176.53 334.81 181.09 C 341.27 188.25 349.17 193.92 356.72 199.85 C 349.93 188.96 337.73 182.73 331.46 171.47 C 329.97 169.38 330.87 165.59 327.91 164.75 M 317.86 220.99 C 317.51 232.23 319.04 243.67 323.63 254.01 C 322.59 243.00 319.09 232.22 319.70 221.07 C 319.24 221.05 318.32 221.01 317.86 220.99 M 53.82 268.11 C 56.86 271.15 59.46 275.24 64.01 276.05 C 67.58 275.28 70.94 272.69 71.19 268.80 C 66.97 267.27 63.41 273.86 59.70 270.34 C 47.26 259.47 42.07 243.25 34.22 229.22 C 36.03 243.98 44.25 257.08 53.82 268.11 M 276.53 270.60 C 270.69 276.71 265.75 283.77 258.84 288.77 C 256.06 290.75 253.43 292.93 250.44 294.60 C 249.11 295.33 247.90 296.42 247.74 298.03 C 260.50 292.17 271.51 282.20 278.20 269.82 C 277.78 270.02 276.94 270.41 276.53 270.60 M 176.15 282.23 C 166.39 286.26 155.64 287.21 146.02 291.66 C 154.49 289.96 163.11 288.92 171.41 286.47 C 176.59 284.72 182.07 282.78 185.91 278.71 C 182.18 278.33 179.41 281.00 176.15 282.23 M 41.58 301.32 C 42.39 303.89 44.17 306.05 46.48 307.42 C 51.12 310.22 56.37 311.77 61.24 314.10 C 59.24 310.81 54.29 310.91 52.73 307.09 C 47.89 307.91 45.54 302.87 41.58 301.32 M 71.33 316.18 C 72.10 318.07 74.02 319.18 76.03 319.08 C 79.67 319.14 83.32 319.27 86.97 319.13 C 89.42 318.07 93.17 316.92 93.39 313.80 C 86.91 318.30 78.67 317.27 71.33 316.18 Z" />
</g>
<g id="#014001ff">
<path fill="#014001" opacity="1.00" d=" M 130.13 101.12 C 135.71 100.56 141.35 99.12 146.93 100.55 C 152.34 101.10 157.42 104.86 158.90 110.19 C 160.10 118.24 158.00 126.84 153.03 133.29 C 152.85 131.47 154.61 128.13 151.84 127.57 C 150.26 127.55 148.82 128.48 147.59 129.39 C 146.42 130.94 147.51 132.61 149.07 133.25 C 148.92 139.59 144.55 144.90 140.13 149.06 C 134.58 154.22 127.41 157.56 119.98 158.90 C 112.66 159.11 105.57 162.62 98.19 160.87 C 96.45 157.40 98.15 153.70 99.23 150.31 C 103.46 137.62 107.53 124.49 115.65 113.65 C 119.73 108.75 124.30 103.90 130.13 101.12 M 130.69 110.83 C 127.06 111.60 123.71 113.81 121.96 117.13 C 119.37 120.93 119.99 125.77 120.21 130.10 C 121.32 134.22 123.89 138.44 128.22 139.72 C 130.35 140.34 133.61 141.63 135.06 139.24 C 138.07 135.25 142.15 132.06 144.49 127.59 C 145.92 124.12 144.05 120.52 142.33 117.54 C 139.68 113.85 135.69 109.83 130.69 110.83 Z" />
<path fill="#014001" opacity="1.00" d=" M 272.59 112.58 C 277.34 108.25 284.93 113.60 285.59 119.14 C 286.16 128.77 285.71 139.08 280.45 147.52 C 274.08 158.93 261.31 167.70 247.85 166.05 C 249.01 161.45 249.06 156.66 250.15 152.03 C 252.98 137.00 259.45 121.41 272.59 112.58 M 264.52 123.82 C 259.62 128.60 257.39 136.47 260.39 142.85 C 261.81 146.01 263.86 150.77 268.16 149.84 C 272.81 148.81 275.48 144.47 278.02 140.84 C 279.73 138.19 282.56 135.28 281.60 131.89 C 279.17 125.51 271.00 121.03 264.52 123.82 Z" />
<path fill="#014001" opacity="1.00" d=" M 197.61 123.02 C 202.40 122.92 207.20 122.79 211.98 122.98 C 214.19 123.50 217.27 125.35 216.30 128.08 C 215.17 129.44 212.54 128.84 212.07 130.85 C 210.56 136.08 208.39 141.60 203.74 144.83 C 203.29 144.91 202.38 145.08 201.93 145.16 C 204.81 140.23 207.78 133.91 204.20 128.52 C 203.10 125.42 198.98 125.74 197.61 123.02 Z" />
<path fill="#014001" opacity="1.00" d=" M 187.42 130.25 C 187.81 130.10 188.58 129.78 188.97 129.62 C 185.76 137.06 190.96 144.24 196.22 149.06 C 196.11 149.45 195.88 150.24 195.76 150.63 C 190.04 153.53 183.41 153.93 177.74 156.97 C 175.85 157.18 175.01 155.20 173.82 154.15 C 177.47 145.72 182.07 137.71 187.42 130.25 Z" />
<path fill="#014001" opacity="1.00" d=" M 247.10 169.81 C 251.49 169.26 255.44 171.55 259.08 173.70 C 267.48 178.99 273.74 187.12 278.43 195.76 C 282.04 202.06 282.79 209.62 281.80 216.71 C 280.86 220.58 278.97 224.45 275.66 226.82 C 269.87 230.88 261.68 228.63 256.59 224.44 C 253.79 222.94 255.75 217.86 251.98 217.86 C 251.93 214.96 251.88 212.07 251.89 209.18 C 250.60 209.20 249.31 209.22 248.02 209.25 C 248.04 202.11 245.59 195.18 245.86 188.02 C 245.92 181.94 245.26 175.71 247.10 169.81 Z" />
</g>
</svg>
