<?xml version="1.0" encoding="UTF-8" ?>
<!DOCTYPE svg PUBLIC "-//W3C//DTD SVG 1.1//EN" "http://www.w3.org/Graphics/SVG/1.1/DTD/svg11.dtd">
<svg width="532pt" height="366pt" viewBox="0 0 532 366" version="1.1" xmlns="http://www.w3.org/2000/svg">
<g id="#ed1c24ff">
<path fill="#ed1c24" opacity="1.00" d=" M 0.00 0.00 L 0.25 0.00 C 0.19 0.06 0.06 0.17 0.00 0.23 L 0.00 0.00 Z" />
<path fill="#ed1c24" opacity="1.00" d=" M 325.21 96.24 C 326.93 95.36 328.56 93.23 330.68 94.28 C 334.37 95.01 337.02 98.25 336.72 102.05 C 340.18 104.71 343.66 109.30 340.78 113.66 L 339.91 114.95 C 333.88 114.86 328.11 117.06 322.99 120.07 C 316.54 116.94 317.25 107.45 310.29 104.91 L 310.95 104.88 C 315.46 105.88 310.55 101.96 311.50 100.47 C 312.65 99.98 313.43 99.16 313.83 98.00 C 317.60 97.37 321.81 98.45 325.21 96.24 Z" />
</g>
<g id="#ffffffff">
<path fill="#ffffff" opacity="1.00" d=" M 0.25 0.00 L 53.85 0.00 C 32.92 72.18 25.09 147.24 17.46 221.75 C 15.05 244.17 13.11 266.65 10.02 289.00 C 7.34 310.59 5.65 332.44 0.01 353.54 C 15.28 361.45 32.68 355.87 48.96 357.13 C 58.28 358.24 67.68 357.99 77.05 358.08 C 97.03 358.22 117.02 357.95 137.00 357.96 C 156.57 360.57 176.36 360.46 196.07 361.01 C 214.19 360.63 232.14 363.42 250.15 364.90 C 262.57 365.35 275.01 365.16 287.42 366.00 L 0.00 366.00 L 0.00 0.23 C 0.06 0.17 0.19 0.06 0.25 0.00 Z" />
<path fill="#ffffff" opacity="1.00" d=" M 53.98 0.00 L 532.00 0.00 L 532.00 19.82 C 513.26 24.12 493.95 24.90 474.97 27.71 C 468.20 28.40 461.39 28.59 454.63 29.39 C 429.11 32.11 403.83 38.33 378.02 37.55 C 370.90 36.89 362.57 37.58 357.22 31.88 C 355.17 33.76 352.87 35.66 349.97 35.85 C 344.32 36.22 338.65 35.16 333.00 35.88 C 315.46 37.32 298.58 30.39 281.07 30.95 C 259.30 30.28 237.76 26.67 216.08 24.94 C 189.38 23.69 162.60 23.33 136.05 20.00 C 108.07 16.61 80.02 11.06 53.98 0.00 Z" />
<path fill="#ffffff" opacity="1.00" d=" M 523.70 91.60 C 524.73 81.33 524.98 70.02 532.00 61.72 L 532.00 366.00 L 293.59 366.00 C 309.96 363.14 326.60 362.05 343.14 360.58 C 367.61 358.59 392.16 357.34 416.56 354.56 C 438.30 348.90 461.30 353.18 482.95 347.04 C 493.22 344.78 504.36 348.70 514.15 343.79 C 512.74 330.92 512.31 317.94 513.02 305.01 C 513.42 302.46 511.30 300.01 512.26 297.55 C 514.22 295.80 517.45 294.79 517.54 291.70 C 520.06 276.28 516.62 260.82 514.54 245.57 C 512.92 235.73 514.72 225.79 514.99 215.93 C 515.15 202.54 515.57 189.07 513.50 175.78 C 510.87 153.11 517.79 130.97 520.72 108.70 C 521.14 102.90 523.22 97.39 523.70 91.60 Z" />
<path fill="#ffffff" opacity="1.00" d=" M 430.28 62.36 C 434.58 72.03 439.38 81.61 445.75 90.11 C 447.08 89.25 449.13 88.84 449.28 86.92 C 450.48 80.75 446.51 74.53 448.39 68.44 C 448.74 68.17 449.43 67.63 449.77 67.36 C 457.35 76.75 458.97 89.08 464.08 99.72 C 465.72 99.38 467.62 99.02 468.37 97.28 C 470.91 91.65 468.28 85.21 470.07 79.44 C 479.47 89.70 476.83 104.68 480.96 117.03 C 482.20 120.31 483.63 124.89 487.87 124.97 C 491.51 124.16 493.42 120.71 494.84 117.59 C 503.54 133.33 500.32 152.26 505.93 168.97 C 504.27 184.27 502.84 199.61 502.00 214.99 C 501.70 233.14 501.23 251.40 504.04 269.38 L 503.08 268.10 L 504.06 270.42 C 502.19 270.18 497.80 271.43 500.58 273.81 C 499.61 275.60 497.24 274.56 496.22 276.23 C 492.42 281.68 490.91 288.42 490.91 295.00 C 489.40 306.41 487.56 317.80 485.50 329.12 C 483.59 325.32 482.62 320.59 478.48 318.51 C 477.96 311.17 473.62 301.94 465.37 301.30 C 455.59 311.50 457.76 327.31 450.79 339.05 C 439.71 333.03 440.94 318.50 434.61 309.01 C 428.90 313.00 429.27 320.73 428.92 326.92 C 426.79 330.27 424.94 333.78 423.06 337.28 C 416.47 337.70 417.56 327.71 411.81 326.22 C 409.16 330.00 409.88 336.12 405.40 338.93 C 398.47 337.32 391.10 339.11 384.34 336.71 C 380.03 335.31 377.23 330.45 378.35 326.03 C 382.51 327.64 386.62 332.84 391.35 330.18 C 386.31 325.58 380.60 321.36 373.78 319.92 C 373.83 323.83 373.97 327.73 374.49 331.61 C 368.83 329.09 363.33 326.20 358.19 322.75 C 365.30 311.46 374.43 301.53 381.04 289.91 C 369.63 300.62 360.74 313.75 353.07 327.32 C 349.99 326.30 346.44 324.73 343.28 326.32 C 341.86 328.63 342.85 331.38 342.94 333.88 C 340.68 330.90 336.94 328.18 337.12 324.07 C 340.59 316.89 343.93 309.56 348.34 302.89 C 354.83 306.54 361.25 301.17 367.79 300.91 C 370.09 299.39 371.99 296.92 371.83 294.03 C 370.95 287.23 365.67 282.25 363.41 275.99 C 369.18 278.00 374.76 281.37 381.07 281.10 C 379.14 274.88 375.66 269.00 375.74 262.32 C 381.72 264.67 390.26 263.91 393.67 270.36 C 394.33 277.68 393.24 285.35 395.64 292.49 C 396.30 294.46 397.68 296.05 399.26 297.38 C 398.80 283.70 397.33 270.09 397.17 256.40 C 403.80 252.31 411.83 250.44 417.34 244.64 C 422.98 252.19 424.93 261.66 428.96 270.06 C 430.52 273.10 431.63 277.59 435.85 277.64 C 430.85 260.29 421.17 244.63 416.86 227.04 C 415.44 220.81 412.61 214.50 407.63 210.33 C 404.74 207.69 399.94 209.21 398.65 212.76 C 391.39 227.27 395.13 243.86 393.21 259.34 C 387.91 249.83 383.08 240.06 377.38 230.77 C 374.22 225.06 370.21 219.86 367.15 214.10 C 370.35 212.72 373.82 214.22 377.16 214.07 C 377.18 211.38 374.86 209.55 373.74 207.30 C 365.50 193.29 362.45 176.92 360.95 160.94 C 366.04 161.81 370.86 163.85 376.00 164.45 C 379.89 164.97 383.71 161.83 384.02 157.93 C 384.91 149.96 381.12 142.25 382.31 134.29 C 382.82 132.31 383.34 130.09 384.92 128.67 C 391.82 128.12 396.91 135.04 403.90 134.13 C 406.95 120.59 399.26 106.74 403.79 93.44 C 410.39 100.17 413.26 110.64 422.35 114.75 C 423.94 115.77 425.24 113.93 425.87 112.68 C 426.37 109.76 425.45 106.84 425.29 103.92 C 424.55 89.97 424.51 75.38 430.28 62.36 M 485.96 133.79 C 485.48 140.67 488.46 147.16 488.68 153.98 C 488.70 157.65 486.74 161.07 483.63 162.99 C 482.81 158.71 483.00 154.03 480.66 150.20 C 479.93 150.12 478.48 149.95 477.75 149.86 C 478.03 155.27 479.05 160.61 479.95 165.95 C 482.39 178.99 486.24 192.79 496.08 202.28 C 495.84 196.01 490.58 191.64 489.28 185.71 C 487.93 180.41 486.46 175.14 485.12 169.83 C 484.08 167.06 487.04 164.66 489.64 165.02 C 490.68 168.58 491.72 172.17 492.10 175.88 C 492.64 179.31 493.47 183.40 497.04 184.91 C 497.34 174.09 490.55 163.19 495.26 152.56 C 494.48 152.67 492.93 152.88 492.16 152.99 C 489.63 147.33 492.76 140.66 489.82 135.15 C 489.08 133.60 487.33 133.96 485.96 133.79 M 470.17 165.22 C 465.25 183.70 472.43 202.37 472.11 220.97 C 471.84 221.73 471.31 223.24 471.04 224.00 C 471.74 225.54 472.36 227.22 473.75 228.29 C 474.45 229.35 477.05 229.80 476.86 227.91 C 477.48 219.82 474.02 212.05 474.15 203.99 C 474.20 199.92 476.68 195.95 480.72 194.80 C 482.13 201.94 484.15 209.39 489.20 214.88 C 489.89 214.90 491.27 214.95 491.96 214.98 C 492.72 212.44 490.57 210.70 489.42 208.75 C 487.11 204.94 486.12 200.55 484.70 196.38 C 483.38 191.89 480.06 188.21 479.50 183.45 C 477.94 176.90 477.41 168.12 470.17 165.22 M 448.99 186.52 C 444.66 200.73 448.06 215.64 449.97 229.96 C 450.06 232.18 451.22 234.45 450.40 236.65 C 446.52 232.44 446.00 226.51 443.46 221.60 C 440.09 216.12 439.44 209.45 436.11 203.95 C 434.36 200.77 431.18 197.48 427.23 198.05 C 423.27 207.09 429.02 216.73 426.88 225.99 C 426.29 228.07 425.04 229.93 424.78 232.12 C 425.69 232.00 427.52 231.76 428.44 231.65 C 429.93 239.96 431.38 248.31 432.17 256.71 C 432.91 258.91 434.63 260.96 437.06 261.26 C 434.21 250.80 432.79 240.01 432.30 229.20 C 434.66 228.52 436.78 227.27 438.48 225.50 C 435.98 225.52 433.50 225.99 431.03 226.34 C 432.25 219.14 428.08 211.69 431.22 204.76 C 439.66 217.28 443.49 232.08 448.96 245.97 C 450.25 248.77 452.21 251.88 455.54 252.34 C 452.22 244.61 453.45 236.13 452.98 227.99 C 452.90 224.53 449.76 220.68 452.53 217.59 C 455.04 215.06 458.74 214.48 462.06 213.68 C 465.72 219.58 466.26 226.92 470.36 232.59 C 471.65 234.45 473.70 235.54 475.86 236.10 C 472.12 227.67 463.69 218.91 468.04 209.13 C 462.50 208.67 460.33 202.87 458.71 198.41 C 456.90 193.64 454.93 187.24 448.99 186.52 M 397.87 302.17 C 397.88 303.65 398.00 305.98 399.93 306.14 C 401.93 305.07 403.90 302.90 403.19 300.47 C 401.41 301.02 399.64 301.60 397.87 302.17 Z" />
<path fill="#ffffff" opacity="1.00" d=" M 317.28 88.78 C 328.28 90.16 340.34 91.92 348.64 100.00 C 345.59 103.95 344.82 109.11 341.87 113.08 C 341.60 113.23 341.05 113.51 340.78 113.66 C 343.66 109.30 340.18 104.71 336.72 102.05 C 337.02 98.25 334.37 95.01 330.68 94.28 C 328.56 93.23 326.93 95.36 325.21 96.24 C 321.81 98.45 317.60 97.37 313.83 98.00 C 312.92 94.61 315.83 91.63 317.28 88.78 Z" />
<path fill="#ffffff" opacity="1.00" d=" M 310.29 104.91 C 317.25 107.45 316.54 116.94 322.99 120.07 C 328.11 117.06 333.88 114.86 339.91 114.95 L 341.42 115.35 C 339.66 119.22 337.38 122.82 334.73 126.14 C 325.36 125.15 316.28 122.44 307.32 119.63 C 304.42 114.65 307.61 109.20 310.29 104.91 Z" />
<path fill="#ffffff" opacity="1.00" d=" M 473.53 175.01 C 476.37 180.32 477.94 186.37 478.68 192.35 C 477.06 193.16 474.70 195.04 473.49 192.62 C 472.17 186.88 473.63 180.86 473.53 175.01 Z" />
<path fill="#ffffff" opacity="1.00" d=" M 510.42 218.90 C 506.99 208.53 505.62 196.77 510.12 186.50 C 511.94 193.84 511.09 201.54 511.00 209.03 C 510.89 212.32 511.37 215.69 510.42 218.90 Z" />
<path fill="#ffffff" opacity="1.00" d=" M 451.09 193.40 C 455.76 197.39 457.70 203.50 459.79 209.06 C 459.18 212.98 453.83 212.44 450.99 213.94 C 450.97 207.10 450.86 200.25 451.09 193.40 Z" />
<path fill="#ffffff" opacity="1.00" d=" M 403.42 213.69 C 408.10 215.42 410.74 220.13 412.29 224.61 C 414.10 229.98 415.25 235.56 417.00 240.96 C 411.71 246.24 404.16 249.00 397.14 251.45 C 398.93 238.85 397.01 225.26 403.42 213.69 Z" />
<path fill="#ffffff" opacity="1.00" d=" M 506.13 235.93 C 506.14 232.87 505.59 229.71 506.51 226.73 C 511.54 243.73 513.23 261.44 514.91 279.01 C 514.72 282.40 515.82 286.19 513.89 289.24 C 512.99 288.47 511.27 288.16 511.21 286.77 C 509.09 269.87 507.34 252.92 506.13 235.93 Z" />
<path fill="#ffffff" opacity="1.00" d=" M 296.12 281.08 C 301.46 285.16 304.34 292.21 311.17 294.34 C 310.40 297.58 308.06 302.55 303.93 300.95 C 300.48 298.78 296.84 296.87 293.58 294.42 C 291.91 292.84 289.67 290.98 290.03 288.42 C 292.57 287.87 296.22 287.25 296.68 284.13 C 296.54 283.37 296.26 281.85 296.12 281.08 Z" />
<path fill="#ffffff" opacity="1.00" d=" M 320.92 292.35 C 323.71 295.44 323.63 300.23 327.01 302.95 C 324.94 306.38 324.06 311.03 320.04 312.80 C 317.32 311.71 315.04 309.85 312.57 308.34 C 310.79 307.24 308.93 305.95 308.19 303.90 C 308.46 301.66 310.67 300.41 311.34 298.33 C 311.89 297.39 312.24 295.26 313.82 296.08 C 316.11 298.13 318.61 303.08 322.10 299.96 C 321.30 297.50 320.87 294.94 320.92 292.35 Z" />
<path fill="#ffffff" opacity="1.00" d=" M 343.89 304.33 C 343.18 301.53 342.41 298.68 342.49 295.77 C 344.89 297.86 347.39 301.95 343.89 304.33 Z" />
<path fill="#ffffff" opacity="1.00" d=" M 331.87 301.82 C 332.60 300.35 334.21 301.34 335.30 301.73 C 338.14 303.12 340.55 305.22 343.29 306.79 C 340.69 311.43 338.27 316.16 335.70 320.80 C 333.89 320.85 331.79 321.29 330.95 323.11 C 329.42 326.12 329.43 329.63 328.32 332.79 C 324.20 330.14 321.44 325.94 317.45 323.14 C 321.68 315.66 326.67 308.65 331.87 301.82 Z" />
</g>
<g id="#000000ff">
<path fill="#000000" opacity="1.00" d=" M 53.85 0.00 L 53.98 0.00 C 80.02 11.06 108.07 16.61 136.05 20.00 C 162.60 23.33 189.38 23.69 216.08 24.94 C 237.76 26.67 259.30 30.28 281.07 30.95 C 298.58 30.39 315.46 37.32 333.00 35.88 C 338.65 35.16 344.32 36.22 349.97 35.85 C 352.87 35.66 355.17 33.76 357.22 31.88 C 362.57 37.58 370.90 36.89 378.02 37.55 C 403.83 38.33 429.11 32.11 454.63 29.39 C 461.39 28.59 468.20 28.40 474.97 27.71 C 493.95 24.90 513.26 24.12 532.00 19.82 L 532.00 25.76 C 496.04 32.72 459.35 33.97 423.17 39.34 C 415.11 40.52 407.13 42.26 399.01 42.93 C 387.03 43.16 375.05 43.07 363.11 42.23 C 364.46 55.84 371.02 68.33 371.90 82.02 C 372.09 88.43 376.84 94.78 374.02 101.13 C 365.96 113.09 360.33 126.51 354.78 139.79 C 349.24 153.30 344.48 167.10 339.27 180.74 C 318.45 175.61 296.95 173.51 276.32 167.56 C 257.62 161.45 238.55 155.95 218.87 154.33 C 198.74 153.25 178.54 149.26 160.16 140.78 C 157.78 128.66 157.42 116.27 157.91 103.96 C 157.87 91.90 159.96 79.98 161.14 68.01 C 160.29 67.99 158.61 67.95 157.76 67.93 C 158.61 63.04 162.71 59.70 164.06 55.03 C 166.74 46.56 166.75 37.56 168.64 28.92 C 135.70 24.41 102.10 22.11 70.32 11.64 C 65.52 10.15 60.92 8.13 56.14 6.60 C 39.69 68.32 31.37 131.83 24.41 195.22 C 19.78 236.58 15.80 278.02 10.43 319.30 C 9.06 331.22 6.92 343.04 5.67 354.96 C 19.87 352.13 34.38 353.06 48.75 353.12 C 68.79 355.38 88.91 352.55 108.99 353.48 C 118.89 353.91 128.80 353.98 138.71 354.13 C 152.45 355.54 166.43 354.26 180.00 357.32 C 178.82 354.68 177.48 351.94 177.93 348.96 C 179.36 334.31 186.05 320.94 192.29 307.85 C 192.18 307.43 191.97 306.61 191.86 306.20 C 185.60 294.98 179.02 283.50 169.19 274.99 C 168.80 275.82 168.04 277.46 167.66 278.28 C 166.03 276.31 164.79 274.03 164.91 271.40 C 166.30 270.25 168.04 269.35 168.86 267.65 C 169.35 265.79 168.98 263.79 167.97 262.17 C 157.27 246.81 153.25 228.11 148.75 210.26 C 147.98 206.45 143.55 205.35 141.55 202.33 C 136.62 197.01 134.22 187.42 140.13 181.96 C 142.92 182.23 146.18 183.99 148.52 181.57 C 151.01 178.62 149.65 174.53 150.05 171.03 C 150.20 166.84 151.40 162.40 154.98 159.85 C 157.87 161.16 160.85 162.85 162.01 166.01 C 164.76 172.83 164.07 180.47 166.72 187.35 C 168.65 196.20 160.57 202.75 153.98 207.01 C 153.23 224.22 160.21 240.61 167.90 255.64 C 169.02 251.67 169.41 247.54 170.55 243.58 C 174.52 228.81 182.01 215.22 190.87 202.84 C 197.51 192.75 207.70 184.87 219.25 181.23 C 225.74 179.02 232.68 180.03 239.18 181.63 C 251.10 182.86 260.47 192.02 265.86 202.18 C 270.90 211.14 272.74 221.36 274.71 231.32 C 276.51 239.79 276.84 248.65 275.16 257.16 C 284.53 252.81 289.48 243.14 294.85 234.86 C 299.05 229.03 296.46 221.57 295.92 215.06 C 295.55 210.98 295.78 205.59 300.08 203.65 C 303.87 203.32 306.95 206.92 310.87 205.98 C 311.25 202.32 310.49 197.35 314.44 195.35 C 319.15 193.64 324.52 196.15 326.14 200.91 C 325.07 203.76 324.01 206.68 321.98 209.01 C 319.67 212.11 316.15 213.95 313.64 216.84 C 313.03 222.66 317.01 227.50 318.02 233.01 C 316.82 235.55 313.75 237.02 310.99 237.01 C 306.99 237.37 303.42 235.25 299.97 233.57 C 294.55 242.04 289.95 251.53 281.61 257.60 C 279.21 259.48 276.13 260.16 273.58 261.78 C 270.78 277.93 261.50 291.76 253.63 305.80 C 252.44 307.50 252.92 309.65 253.34 311.53 C 256.25 323.64 260.55 335.47 261.94 347.90 C 260.48 352.88 256.15 356.43 254.23 361.24 C 263.16 361.55 272.09 360.78 281.02 361.01 C 318.09 359.09 354.97 354.56 392.00 352.01 C 402.74 352.34 413.27 349.96 423.89 348.78 C 452.09 345.03 480.47 343.21 508.81 341.20 C 508.85 328.46 507.68 315.74 508.03 302.99 C 507.58 292.28 506.11 281.64 504.23 271.09 C 501.67 272.97 501.33 276.28 499.79 278.85 C 490.81 295.81 495.39 316.66 485.81 333.40 C 476.12 326.97 476.78 313.02 467.81 305.91 C 467.16 305.93 465.87 305.99 465.22 306.02 C 463.03 311.54 461.10 317.19 460.05 323.05 C 458.47 330.44 456.63 338.85 449.86 343.28 C 444.51 342.21 441.84 336.61 440.03 331.99 C 437.80 326.85 436.85 320.65 432.30 316.93 C 433.00 326.49 429.19 335.89 423.11 343.12 C 421.80 344.65 420.03 342.88 419.21 341.74 C 417.70 339.49 416.22 337.17 413.97 335.58 C 411.52 338.27 409.32 341.62 405.61 342.66 C 397.33 344.74 389.18 341.13 380.93 340.87 C 380.98 339.26 381.03 337.67 381.08 336.07 C 377.83 334.92 374.22 335.40 371.07 333.94 C 366.76 332.12 362.75 329.58 358.17 328.45 C 358.86 330.60 359.57 332.75 360.25 334.92 C 357.65 334.28 354.38 332.93 352.13 335.12 C 346.98 339.95 349.33 348.71 343.92 353.29 C 344.16 349.74 345.59 346.44 346.07 342.95 C 342.61 338.39 339.00 333.90 335.11 329.70 C 335.18 332.00 335.87 334.50 334.68 336.65 C 332.92 338.55 330.20 338.91 327.89 339.80 C 325.18 340.58 322.94 342.45 320.18 343.12 C 321.53 340.64 323.24 338.39 325.04 336.23 C 322.70 332.32 320.39 328.39 317.68 324.72 C 316.49 325.09 315.15 325.26 314.21 326.15 C 308.62 331.06 309.32 340.37 302.74 344.38 C 304.69 336.17 312.38 330.04 312.11 321.15 C 315.58 319.84 318.23 317.25 320.08 314.08 C 318.12 314.08 316.08 314.56 314.20 313.80 C 311.29 312.47 309.23 309.66 306.14 308.73 C 301.50 313.80 299.59 320.94 294.11 325.37 C 295.34 317.89 303.04 313.06 303.50 305.21 C 297.82 301.55 292.26 297.65 286.17 294.67 C 283.35 299.48 281.11 304.73 277.19 308.80 C 277.17 301.85 284.89 296.75 282.41 289.62 C 282.22 284.10 275.33 281.13 276.97 275.29 C 279.07 276.50 281.30 277.43 283.49 278.47 C 282.86 276.65 282.25 274.83 281.84 272.95 C 285.75 273.10 287.92 277.05 291.03 278.93 C 290.49 276.91 290.06 274.86 289.77 272.79 C 291.23 273.12 292.70 273.43 294.17 273.72 C 294.08 272.04 294.01 270.35 293.96 268.67 C 296.23 268.45 298.03 269.87 299.76 271.11 C 314.60 251.06 329.10 230.65 345.82 212.08 C 332.78 233.85 315.35 252.50 301.00 273.36 C 300.99 274.66 300.99 275.96 300.99 277.27 C 303.07 277.63 303.82 275.81 304.52 274.25 C 307.82 278.08 310.77 282.19 313.75 286.27 C 320.25 283.01 323.67 276.43 327.97 270.93 C 340.08 254.39 352.49 238.06 364.66 221.57 C 365.66 217.34 361.22 212.80 363.45 208.45 C 365.47 207.41 367.85 208.44 369.98 208.50 C 363.79 195.15 358.69 181.01 357.60 166.24 C 356.58 162.50 356.85 158.23 359.88 155.47 C 366.31 156.58 372.20 160.13 378.81 160.11 C 379.13 150.11 378.61 140.10 379.17 130.12 C 379.41 126.70 382.43 123.67 385.95 124.05 C 390.86 124.78 395.28 127.24 400.04 128.58 C 401.22 116.69 395.77 104.87 399.18 93.11 C 399.68 90.74 400.62 86.82 403.92 87.92 C 411.47 92.95 413.62 102.88 420.97 108.17 C 421.10 99.43 420.88 90.67 421.07 81.93 C 421.88 74.30 423.32 66.58 426.50 59.55 C 427.37 57.41 430.70 55.21 432.50 57.56 C 437.44 63.97 438.88 72.18 442.32 79.38 C 448.57 74.85 444.67 66.46 445.98 60.12 C 446.92 59.70 447.89 59.33 448.87 58.99 C 456.05 66.01 459.94 75.55 463.13 84.88 C 463.76 87.82 466.17 84.86 467.25 83.85 C 466.99 80.69 465.75 77.57 466.15 74.39 C 467.34 72.33 470.26 72.67 471.56 74.42 C 479.91 82.42 480.63 94.62 482.69 105.31 C 483.77 110.60 484.64 116.21 487.83 120.71 C 489.27 117.37 489.67 113.72 490.08 110.14 C 491.25 108.70 492.73 107.67 494.68 107.95 C 505.05 122.92 505.23 141.73 507.63 159.08 C 508.01 157.98 508.32 156.86 508.58 155.72 C 511.44 133.44 515.94 111.40 519.15 89.16 C 520.11 83.41 520.22 77.49 522.00 71.89 C 524.79 63.01 529.88 54.98 532.00 45.87 L 532.00 61.72 C 524.98 70.02 524.73 81.33 523.70 91.60 C 523.22 97.39 521.14 102.90 520.72 108.70 C 517.79 130.97 510.87 153.11 513.50 175.78 C 515.57 189.07 515.15 202.54 514.99 215.93 C 514.72 225.79 512.92 235.73 514.54 245.57 C 516.62 260.82 520.06 276.28 517.54 291.70 C 517.45 294.79 514.22 295.80 512.26 297.55 C 511.30 300.01 513.42 302.46 513.02 305.01 C 512.31 317.94 512.74 330.92 514.15 343.79 C 504.36 348.70 493.22 344.78 482.95 347.04 C 461.30 353.18 438.30 348.90 416.56 354.56 C 392.16 357.34 367.61 358.59 343.14 360.58 C 326.60 362.05 309.96 363.14 293.59 366.00 L 287.42 366.00 C 275.01 365.16 262.57 365.35 250.15 364.90 C 232.14 363.42 214.19 360.63 196.07 361.01 C 176.36 360.46 156.57 360.57 137.00 357.96 C 117.02 357.95 97.03 358.22 77.05 358.08 C 67.68 357.99 58.28 358.24 48.96 357.13 C 32.68 355.87 15.28 361.45 0.01 353.54 C 5.65 332.44 7.34 310.59 10.02 289.00 C 13.11 266.65 15.05 244.17 17.46 221.75 C 25.09 147.24 32.92 72.18 53.85 0.00 M 176.19 28.93 C 175.54 31.97 173.78 34.76 171.12 36.43 C 170.39 43.77 170.87 51.20 172.09 58.47 C 202.96 52.37 233.54 66.49 264.42 61.32 C 274.06 60.24 283.79 61.48 293.18 63.76 C 319.42 70.57 342.43 86.38 369.07 91.99 C 367.11 74.64 363.60 57.19 357.04 40.94 C 340.64 41.05 324.08 42.16 307.85 39.27 C 299.75 37.32 291.38 37.01 283.09 36.85 C 278.08 35.67 272.91 36.40 267.90 35.30 C 237.39 32.57 206.96 27.99 176.19 28.93 M 170.13 62.13 C 169.71 66.77 170.17 71.46 169.94 76.12 C 168.51 75.75 167.11 75.29 165.73 74.80 C 163.62 80.99 162.16 87.49 161.88 94.03 C 160.10 101.87 161.38 109.99 160.96 117.96 C 160.59 121.38 162.09 124.61 161.97 128.01 C 161.83 131.70 163.32 135.22 163.14 138.93 C 174.77 138.15 184.45 147.58 196.04 146.72 C 198.24 145.65 198.29 142.84 199.24 140.86 C 204.26 128.30 211.99 116.10 223.91 109.11 C 227.80 110.51 231.92 111.12 235.86 112.38 C 258.41 118.78 280.12 127.77 302.58 134.45 C 304.01 134.89 305.49 135.12 306.97 135.39 C 305.79 141.81 304.38 148.90 298.97 153.22 C 299.89 158.34 296.91 162.89 296.90 167.90 C 310.31 170.18 323.70 172.71 337.06 175.23 C 338.55 172.10 339.36 168.71 340.56 165.46 C 347.30 146.22 355.29 127.43 364.12 109.06 C 365.79 105.36 367.70 101.77 369.15 97.97 C 368.57 97.48 367.41 96.50 366.84 96.01 C 357.90 96.60 350.76 89.90 342.24 88.45 L 342.13 89.77 C 345.03 93.89 349.90 95.66 354.17 97.94 C 348.33 109.17 343.50 120.97 336.41 131.51 C 335.56 132.58 334.77 134.34 333.08 134.00 C 320.97 132.24 310.08 126.18 299.28 120.74 C 305.22 109.14 309.27 96.67 315.35 85.14 C 323.57 84.42 331.17 89.12 339.33 89.01 C 338.02 86.85 336.23 84.94 333.83 84.02 C 318.27 77.47 302.73 70.31 286.05 67.13 C 277.52 65.19 268.71 66.00 260.03 66.04 C 253.16 67.85 245.96 66.64 238.94 67.00 C 227.75 65.82 216.63 63.71 205.43 62.56 C 198.74 61.25 191.82 62.37 185.04 61.96 C 180.35 61.27 174.92 65.21 171.00 61.08 L 170.13 62.13 M 430.28 62.36 C 424.51 75.38 424.55 89.97 425.29 103.92 C 425.45 106.84 426.37 109.76 425.87 112.68 C 425.24 113.93 423.94 115.77 422.35 114.75 C 413.26 110.64 410.39 100.17 403.79 93.44 C 399.26 106.74 406.95 120.59 403.90 134.13 C 396.91 135.04 391.82 128.12 384.92 128.67 C 383.34 130.09 382.82 132.31 382.31 134.29 C 381.12 142.25 384.91 149.96 384.02 157.93 C 383.71 161.83 379.89 164.97 376.00 164.45 C 370.86 163.85 366.04 161.81 360.95 160.94 C 362.45 176.92 365.50 193.29 373.74 207.30 C 374.86 209.55 377.18 211.38 377.16 214.07 C 373.82 214.22 370.35 212.72 367.15 214.10 C 370.21 219.86 374.22 225.06 377.38 230.77 C 383.08 240.06 387.91 249.83 393.21 259.34 C 395.13 243.86 391.39 227.27 398.65 212.76 C 399.94 209.21 404.74 207.69 407.63 210.33 C 412.61 214.50 415.44 220.81 416.86 227.04 C 421.17 244.63 430.85 260.29 435.85 277.64 C 431.63 277.59 430.52 273.10 428.96 270.06 C 424.93 261.66 422.98 252.19 417.34 244.64 C 411.83 250.44 403.80 252.31 397.17 256.40 C 397.33 270.09 398.80 283.70 399.26 297.38 C 397.68 296.05 396.30 294.46 395.64 292.49 C 393.24 285.35 394.33 277.68 393.67 270.36 C 390.26 263.91 381.72 264.67 375.74 262.32 C 375.66 269.00 379.14 274.88 381.07 281.10 C 374.76 281.37 369.18 278.00 363.41 275.99 C 365.67 282.25 370.95 287.23 371.83 294.03 C 371.99 296.92 370.09 299.39 367.79 300.91 C 361.25 301.17 354.83 306.54 348.34 302.89 C 343.93 309.56 340.59 316.89 337.12 324.07 C 336.94 328.18 340.68 330.90 342.94 333.88 C 342.85 331.38 341.86 328.63 343.28 326.32 C 346.44 324.73 349.99 326.30 353.07 327.32 C 360.74 313.75 369.63 300.62 381.04 289.91 C 374.43 301.53 365.30 311.46 358.19 322.75 C 363.33 326.20 368.83 329.09 374.49 331.61 C 373.97 327.73 373.83 323.83 373.78 319.92 C 380.60 321.36 386.31 325.58 391.35 330.18 C 386.62 332.84 382.51 327.64 378.35 326.03 C 377.23 330.45 380.03 335.31 384.34 336.71 C 391.10 339.11 398.47 337.32 405.40 338.93 C 409.88 336.12 409.16 330.00 411.81 326.22 C 417.56 327.71 416.47 337.70 423.06 337.28 C 424.94 333.78 426.79 330.27 428.92 326.92 C 429.27 320.73 428.90 313.00 434.61 309.01 C 440.94 318.50 439.71 333.03 450.79 339.05 C 457.76 327.31 455.59 311.50 465.37 301.30 C 473.62 301.94 477.96 311.17 478.48 318.51 C 482.62 320.59 483.59 325.32 485.50 329.12 C 487.56 317.80 489.40 306.41 490.91 295.00 C 490.91 288.42 492.42 281.68 496.22 276.23 C 497.24 274.56 499.61 275.60 500.58 273.81 C 497.80 271.43 502.19 270.18 504.06 270.42 L 503.08 268.10 L 504.04 269.38 C 501.23 251.40 501.70 233.14 502.00 214.99 C 502.84 199.61 504.27 184.27 505.93 168.97 C 500.32 152.26 503.54 133.33 494.84 117.59 C 493.42 120.71 491.51 124.16 487.87 124.97 C 483.63 124.89 482.20 120.31 480.96 117.03 C 476.83 104.68 479.47 89.70 470.07 79.44 C 468.28 85.21 470.91 91.65 468.37 97.28 C 467.62 99.02 465.72 99.38 464.08 99.72 C 458.97 89.08 457.35 76.75 449.77 67.36 C 449.43 67.63 448.74 68.17 448.39 68.44 C 446.51 74.53 450.48 80.75 449.28 86.92 C 449.13 88.84 447.08 89.25 445.75 90.11 C 439.38 81.61 434.58 72.03 430.28 62.36 M 317.28 88.78 C 315.83 91.63 312.92 94.61 313.83 98.00 C 313.43 99.16 312.65 99.98 311.50 100.47 C 310.55 101.96 315.46 105.88 310.95 104.88 L 310.29 104.91 C 307.61 109.20 304.42 114.65 307.32 119.63 C 316.28 122.44 325.36 125.15 334.73 126.14 C 337.38 122.82 339.66 119.22 341.42 115.35 L 339.91 114.95 L 340.78 113.66 C 341.05 113.51 341.60 113.23 341.87 113.08 C 344.82 109.11 345.59 103.95 348.64 100.00 C 340.34 91.92 328.28 90.16 317.28 88.78 M 223.40 114.20 C 213.87 120.06 206.94 129.54 202.88 139.85 C 201.76 142.39 201.78 145.19 202.16 147.89 C 204.80 147.99 207.45 148.02 210.02 148.70 C 223.91 150.17 238.04 151.10 251.45 155.47 C 253.25 156.13 255.19 156.04 257.07 156.11 C 262.93 151.11 260.08 141.43 265.73 136.34 C 264.89 143.62 260.23 150.27 261.00 157.80 C 271.83 160.84 282.39 166.04 293.83 166.12 C 295.29 156.11 298.82 146.54 302.54 137.20 C 296.33 137.20 290.42 134.49 284.19 134.99 C 282.61 137.79 281.47 140.82 280.97 144.01 C 280.16 147.43 279.63 151.63 276.20 153.47 C 276.65 145.88 281.11 139.37 282.28 131.99 C 280.23 131.86 278.17 131.78 276.12 131.91 C 269.92 138.64 274.87 149.91 267.95 156.17 C 269.70 147.31 270.96 138.10 275.11 129.96 C 267.38 124.69 257.39 125.22 249.30 120.74 C 246.20 118.88 242.15 120.18 240.06 122.96 C 235.46 128.72 236.17 136.87 232.26 142.96 C 232.72 138.02 233.06 132.94 235.37 128.44 C 236.77 124.78 239.62 121.96 241.25 118.45 C 238.66 118.57 235.29 116.05 233.23 118.04 C 228.75 126.68 225.19 135.76 221.36 144.70 C 220.90 134.09 229.38 126.12 231.17 116.11 C 228.94 114.63 226.10 112.58 223.40 114.20 M 157.16 178.98 C 158.79 179.65 160.96 179.35 162.14 177.96 C 162.74 172.73 160.31 167.26 155.93 164.30 C 152.00 168.12 153.22 175.42 157.16 178.98 M 139.62 190.04 C 139.68 194.73 143.81 197.88 146.39 201.39 C 148.43 197.05 149.88 192.03 149.02 187.21 C 146.92 182.52 138.73 185.13 139.62 190.04 M 195.74 202.91 C 189.28 212.15 183.40 221.80 178.54 231.97 C 175.32 240.32 172.31 249.01 172.41 258.07 C 173.01 260.91 175.71 262.89 175.82 265.89 C 173.14 266.00 174.03 260.36 171.00 262.04 C 169.91 265.10 171.46 268.26 173.22 270.72 C 181.32 282.01 189.15 293.51 196.78 305.13 C 205.06 315.55 215.41 324.90 219.81 337.85 C 220.01 338.88 221.27 341.14 222.37 339.49 C 235.66 321.66 252.50 305.14 258.18 282.94 C 258.77 280.55 260.89 279.04 262.28 277.12 C 266.23 272.50 268.34 266.73 270.46 261.12 C 275.46 241.01 270.13 219.96 261.60 201.57 C 259.11 197.39 255.91 193.65 251.70 191.13 C 242.47 184.04 230.17 183.84 219.09 184.89 C 210.10 188.87 200.82 194.13 195.74 202.91 M 158.18 185.94 C 153.64 188.01 150.95 193.10 151.41 198.03 C 151.67 199.52 151.04 202.06 152.94 202.62 C 157.21 201.42 159.67 197.41 162.11 194.03 C 163.70 192.09 163.39 189.43 163.11 187.12 C 161.92 185.70 159.87 184.76 158.18 185.94 M 510.42 218.90 C 511.37 215.69 510.89 212.32 511.00 209.03 C 511.09 201.54 511.94 193.84 510.12 186.50 C 505.62 196.77 506.99 208.53 510.42 218.90 M 316.10 198.96 C 314.01 201.13 313.64 204.31 312.92 207.11 C 312.24 208.55 313.57 210.01 314.94 210.28 C 318.45 209.18 321.77 205.96 321.28 202.01 C 321.70 199.36 318.20 197.15 316.10 198.96 M 300.06 209.15 C 299.46 213.53 298.91 218.04 299.91 222.40 C 304.05 220.10 304.75 214.37 304.17 210.06 C 304.21 207.78 300.89 206.75 300.06 209.15 M 307.16 214.07 C 306.10 218.86 304.60 223.56 302.82 228.14 C 302.91 232.26 308.03 235.38 311.83 233.95 C 314.33 232.61 313.37 229.39 312.99 227.17 C 311.85 223.67 311.10 220.05 309.80 216.60 C 309.31 215.59 308.76 212.56 307.16 214.07 M 403.42 213.69 C 397.01 225.26 398.93 238.85 397.14 251.45 C 404.16 249.00 411.71 246.24 417.00 240.96 C 415.25 235.56 414.10 229.98 412.29 224.61 C 410.74 220.13 408.10 215.42 403.42 213.69 M 366.17 222.53 C 351.55 242.47 336.98 262.44 322.12 282.19 C 319.53 285.32 321.29 289.85 323.94 292.35 C 324.98 291.86 325.56 290.42 326.76 290.37 C 329.31 290.94 331.37 292.66 333.46 294.15 C 347.38 277.38 356.66 256.91 372.83 242.01 C 361.90 257.19 351.04 272.45 341.08 288.28 C 340.53 292.78 346.39 294.32 349.81 295.20 C 351.47 289.82 355.22 285.46 357.28 280.26 C 358.60 277.34 357.97 274.05 358.00 270.95 C 359.67 270.98 361.35 271.05 363.03 270.97 C 366.06 267.08 367.72 261.75 372.47 259.44 C 377.45 257.93 382.58 259.96 387.42 261.19 C 386.08 254.65 383.35 248.48 380.54 242.45 C 376.79 235.17 372.50 227.87 366.17 222.53 M 506.13 235.93 C 507.34 252.92 509.09 269.87 511.21 286.77 C 511.27 288.16 512.99 288.47 513.89 289.24 C 515.82 286.19 514.72 282.40 514.91 279.01 C 513.23 261.44 511.54 243.73 506.51 226.73 C 505.59 229.71 506.14 232.87 506.13 235.93 M 364.94 272.64 C 368.40 273.47 371.46 275.54 374.98 276.10 C 373.44 271.79 371.99 267.45 370.73 263.05 C 367.86 265.32 364.98 268.82 364.94 272.64 M 350.82 298.82 C 356.61 301.32 362.88 299.38 368.23 296.74 C 366.97 290.57 365.43 283.42 359.98 279.53 C 356.68 285.81 352.52 291.85 350.82 298.82 M 296.12 281.08 C 296.26 281.85 296.54 283.37 296.68 284.13 C 296.22 287.25 292.57 287.87 290.03 288.42 C 289.67 290.98 291.91 292.84 293.58 294.42 C 296.84 296.87 300.48 298.78 303.93 300.95 C 308.06 302.55 310.40 297.58 311.17 294.34 C 304.34 292.21 301.46 285.16 296.12 281.08 M 320.92 292.35 C 320.87 294.94 321.30 297.50 322.10 299.96 C 318.61 303.08 316.11 298.13 313.82 296.08 C 312.24 295.26 311.89 297.39 311.34 298.33 C 310.67 300.41 308.46 301.66 308.19 303.90 C 308.93 305.95 310.79 307.24 312.57 308.34 C 315.04 309.85 317.32 311.71 320.04 312.80 C 324.06 311.03 324.94 306.38 327.01 302.95 C 323.63 300.23 323.71 295.44 320.92 292.35 M 343.89 304.33 C 347.39 301.95 344.89 297.86 342.49 295.77 C 342.41 298.68 343.18 301.53 343.89 304.33 M 331.87 301.82 C 326.67 308.65 321.68 315.66 317.45 323.14 C 321.44 325.94 324.20 330.14 328.32 332.79 C 329.43 329.63 329.42 326.12 330.95 323.11 C 331.79 321.29 333.89 320.85 335.70 320.80 C 338.27 316.16 340.69 311.43 343.29 306.79 C 340.55 305.22 338.14 303.12 335.30 301.73 C 334.21 301.34 332.60 300.35 331.87 301.82 M 194.77 312.68 C 189.93 319.35 186.49 327.26 186.04 335.57 C 190.46 337.92 192.10 342.90 193.72 347.29 C 195.02 350.38 192.73 353.29 192.38 356.32 C 194.92 356.75 197.45 356.11 199.99 356.03 C 216.66 355.72 233.00 360.38 249.66 359.99 C 247.01 357.85 244.34 354.46 245.96 350.88 C 246.93 347.44 250.89 346.93 253.41 345.40 L 253.07 344.57 C 254.33 343.33 255.72 342.23 257.41 341.64 C 254.71 332.30 255.46 321.48 249.16 313.45 C 240.20 324.42 231.66 335.73 222.32 346.38 C 221.58 347.56 219.59 347.17 219.30 345.80 C 215.80 333.91 207.00 324.79 200.37 314.63 C 199.29 312.88 196.58 310.74 194.77 312.68 M 346.95 329.92 C 346.99 332.01 346.99 334.10 347.00 336.20 C 350.40 336.38 350.14 332.33 350.07 329.99 C 349.04 329.73 347.98 329.56 346.95 329.92 M 183.12 340.74 C 182.47 345.30 179.41 351.80 184.23 355.01 C 189.00 356.84 193.23 349.65 190.28 345.89 C 188.54 343.54 186.48 340.31 183.12 340.74 M 254.64 346.67 C 253.58 349.33 251.03 350.95 249.28 353.13 C 250.28 354.55 251.98 356.01 253.80 355.00 C 257.86 352.34 259.36 347.05 257.72 342.55 C 256.57 343.82 255.22 345.00 254.64 346.67 Z" />
<path fill="#000000" opacity="1.00" d=" M 205.35 67.10 C 206.03 67.11 207.37 67.13 208.04 67.14 C 207.87 73.05 201.98 77.03 201.82 82.97 C 205.10 84.32 208.51 82.62 211.90 83.01 C 217.06 79.79 216.28 72.92 219.44 68.35 C 220.15 67.02 221.66 67.04 222.97 66.97 C 219.29 79.00 212.53 89.75 208.18 101.52 C 207.93 101.92 207.42 102.73 207.16 103.14 C 205.74 96.93 211.02 92.01 211.17 86.03 C 207.15 86.16 203.34 84.28 199.29 85.05 C 196.48 92.35 192.60 99.27 190.60 106.86 C 189.92 106.89 188.56 106.94 187.88 106.97 C 192.57 93.22 198.16 79.75 205.35 67.10 Z" />
<path fill="#000000" opacity="1.00" d=" M 226.68 80.02 C 229.35 79.10 233.31 80.70 233.00 83.95 C 233.82 89.20 230.23 94.70 225.05 95.98 C 222.01 95.84 218.12 93.51 219.01 89.94 C 219.67 85.71 222.95 81.96 226.68 80.02 M 221.64 90.00 C 225.35 92.95 230.24 90.08 231.26 85.92 C 230.52 84.02 229.33 82.29 227.02 82.64 C 224.41 84.31 223.06 87.35 221.64 90.00 Z" />
<path fill="#000000" opacity="1.00" d=" M 242.63 103.30 C 241.91 94.12 246.65 85.46 253.07 79.24 C 255.50 78.17 257.94 79.88 258.92 82.07 C 259.57 85.47 257.88 89.15 254.89 90.85 C 252.68 91.11 250.46 90.87 248.25 91.07 C 244.82 93.97 246.63 99.01 244.49 102.63 C 243.87 102.85 243.25 103.08 242.63 103.30 M 249.73 89.13 C 254.02 90.15 256.98 85.67 256.07 81.81 C 252.68 82.10 249.05 85.54 249.73 89.13 Z" />
<path fill="#000000" opacity="1.00" d=" M 236.96 87.02 C 237.58 83.66 240.54 80.61 244.14 80.99 C 242.78 83.38 240.85 85.36 238.98 87.35 C 239.22 93.91 239.63 102.30 232.99 106.02 C 232.22 106.00 230.67 105.96 229.90 105.94 C 229.45 102.53 234.19 103.70 234.83 100.86 C 236.82 96.44 235.22 91.47 236.96 87.02 Z" />
<path fill="#000000" opacity="1.00" d=" M 269.22 82.09 C 272.50 81.72 274.59 85.67 277.95 85.02 C 279.31 84.27 280.66 83.50 282.09 82.87 C 280.97 87.54 275.50 87.56 273.03 91.04 C 270.10 94.48 268.47 99.28 263.97 101.10 C 263.44 95.46 270.83 93.38 271.12 88.01 C 271.30 85.76 268.38 84.42 269.22 82.09 Z" />
<path fill="#000000" opacity="1.00" d=" M 254.90 102.14 C 256.01 97.49 258.65 93.33 262.36 90.31 C 261.14 94.72 259.79 100.53 254.90 102.14 Z" />
<path fill="#000000" opacity="1.00" d=" M 270.13 103.71 C 271.93 97.60 277.09 93.42 281.97 89.73 C 284.84 91.40 284.17 95.04 284.07 97.82 C 283.89 101.80 281.98 105.39 280.35 108.94 C 278.79 103.50 282.78 98.62 282.36 93.18 C 275.69 93.20 276.40 102.86 270.13 103.71 Z" />
<path fill="#000000" opacity="1.00" d=" M 289.00 99.01 C 289.04 95.94 288.59 91.37 291.95 89.88 C 290.93 97.21 291.36 105.28 295.30 111.75 C 290.59 109.55 288.52 103.95 289.00 99.01 Z" />
<path fill="#000000" opacity="1.00" d=" M 107.37 92.34 C 108.31 94.79 107.63 98.50 107.96 101.38 C 110.56 131.30 113.78 161.15 116.96 191.02 C 117.56 200.45 119.07 209.81 119.17 219.28 C 117.41 218.09 115.42 216.48 115.61 214.11 C 116.30 208.83 116.20 203.44 115.40 198.18 C 113.53 173.36 109.67 148.74 108.01 123.90 C 107.66 113.38 106.41 102.86 107.37 92.34 Z" />
<path fill="#000000" opacity="1.00" d=" M 211.16 142.06 C 213.08 133.07 217.65 124.35 225.14 118.80 C 224.19 121.94 221.55 124.17 219.81 126.87 C 216.30 131.58 216.05 138.34 211.16 142.06 Z" />
<path fill="#000000" opacity="1.00" d=" M 243.92 140.26 C 245.15 134.76 246.24 128.48 251.08 124.90 C 249.54 130.27 248.32 136.44 243.92 140.26 Z" />
<path fill="#000000" opacity="1.00" d=" M 81.26 129.19 C 81.96 129.13 83.37 129.01 84.08 128.95 C 83.02 130.86 82.00 132.81 81.25 134.86 C 81.03 136.54 82.17 137.98 82.48 139.58 C 87.49 164.25 93.94 188.60 99.98 213.03 C 102.49 223.08 104.64 233.22 107.92 243.05 C 108.60 244.90 109.48 246.71 110.76 248.23 C 112.28 250.07 114.83 250.20 116.91 251.05 C 117.40 253.09 114.39 253.45 112.96 253.11 C 110.21 253.03 108.87 250.25 107.91 248.08 C 97.73 226.09 95.32 201.66 88.27 178.68 C 86.71 164.87 80.72 151.90 80.19 137.93 C 80.35 135.00 81.00 132.11 81.26 129.19 Z" />
<path fill="#000000" opacity="1.00" d=" M 257.67 129.74 C 258.03 129.50 258.75 129.03 259.11 128.80 C 256.77 135.53 254.64 142.36 251.46 148.76 C 252.06 142.05 254.27 135.55 257.67 129.74 Z" />
<path fill="#000000" opacity="1.00" d=" M 485.96 133.79 C 487.33 133.96 489.08 133.60 489.82 135.15 C 492.76 140.66 489.63 147.33 492.16 152.99 C 492.93 152.88 494.48 152.67 495.26 152.56 C 490.55 163.19 497.34 174.09 497.04 184.91 C 493.47 183.40 492.64 179.31 492.10 175.88 C 491.72 172.17 490.68 168.58 489.64 165.02 C 487.04 164.66 484.08 167.06 485.12 169.83 C 486.46 175.14 487.93 180.41 489.28 185.71 C 490.58 191.64 495.84 196.01 496.08 202.28 C 486.24 192.79 482.39 178.99 479.95 165.95 C 479.05 160.61 478.03 155.27 477.75 149.86 C 478.48 149.95 479.93 150.12 480.66 150.20 C 483.00 154.03 482.81 158.71 483.63 162.99 C 486.74 161.07 488.70 157.65 488.68 153.98 C 488.46 147.16 485.48 140.67 485.96 133.79 Z" />
<path fill="#000000" opacity="1.00" d=" M 287.38 141.06 C 287.91 141.02 288.44 140.99 288.97 140.96 C 288.92 144.99 287.06 148.72 285.07 152.11 C 284.88 148.29 286.37 144.67 287.38 141.06 Z" />
<path fill="#000000" opacity="1.00" d=" M 288.94 153.22 C 289.66 148.82 290.41 143.82 294.05 140.80 C 293.32 145.18 292.53 150.22 288.94 153.22 Z" />
<path fill="#000000" opacity="1.00" d=" M 470.17 165.22 C 477.41 168.12 477.94 176.90 479.50 183.45 C 480.06 188.21 483.38 191.89 484.70 196.38 C 486.12 200.55 487.11 204.94 489.42 208.75 C 490.57 210.70 492.72 212.44 491.96 214.98 C 491.27 214.95 489.89 214.90 489.20 214.88 C 484.15 209.39 482.13 201.94 480.72 194.80 C 476.68 195.95 474.20 199.92 474.15 203.99 C 474.02 212.05 477.48 219.82 476.86 227.91 C 477.05 229.80 474.45 229.35 473.75 228.29 C 472.36 227.22 471.74 225.54 471.04 224.00 C 471.31 223.24 471.84 221.73 472.11 220.97 C 472.43 202.37 465.25 183.70 470.17 165.22 M 473.53 175.01 C 473.63 180.86 472.17 186.88 473.49 192.62 C 474.70 195.04 477.06 193.16 478.68 192.35 C 477.94 186.37 476.37 180.32 473.53 175.01 Z" />
<path fill="#000000" opacity="1.00" d=" M 63.35 170.24 C 72.43 195.55 78.34 221.85 86.40 247.48 C 89.63 256.63 91.20 266.39 95.95 274.97 C 99.46 282.05 105.03 288.08 111.86 292.08 C 111.43 293.64 111.04 295.21 110.67 296.79 C 110.07 296.90 108.87 297.14 108.27 297.26 C 107.79 291.56 101.50 290.35 98.52 286.46 C 82.56 249.16 72.02 209.77 63.35 170.24 Z" />
<path fill="#000000" opacity="1.00" d=" M 448.99 186.52 C 454.93 187.24 456.90 193.64 458.71 198.41 C 460.33 202.87 462.50 208.67 468.04 209.13 C 463.69 218.91 472.12 227.67 475.86 236.10 C 473.70 235.54 471.65 234.45 470.36 232.59 C 466.26 226.92 465.72 219.58 462.06 213.68 C 458.74 214.48 455.04 215.06 452.53 217.59 C 449.76 220.68 452.90 224.53 452.98 227.99 C 453.45 236.13 452.22 244.61 455.54 252.34 C 452.21 251.88 450.25 248.77 448.96 245.97 C 443.49 232.08 439.66 217.28 431.22 204.76 C 428.08 211.69 432.25 219.14 431.03 226.34 C 433.50 225.99 435.98 225.52 438.48 225.50 C 436.78 227.27 434.66 228.52 432.30 229.20 C 432.79 240.01 434.21 250.80 437.06 261.26 C 434.63 260.96 432.91 258.91 432.17 256.71 C 431.38 248.31 429.93 239.96 428.44 231.65 C 427.52 231.76 425.69 232.00 424.78 232.12 C 425.04 229.93 426.29 228.07 426.88 225.99 C 429.02 216.73 423.27 207.09 427.23 198.05 C 431.18 197.48 434.36 200.77 436.11 203.95 C 439.44 209.45 440.09 216.12 443.46 221.60 C 446.00 226.51 446.52 232.44 450.40 236.65 C 451.22 234.45 450.06 232.18 449.97 229.96 C 448.06 215.64 444.66 200.73 448.99 186.52 M 451.09 193.40 C 450.86 200.25 450.97 207.10 450.99 213.94 C 453.83 212.44 459.18 212.98 459.79 209.06 C 457.70 203.50 455.76 197.39 451.09 193.40 Z" />
<path fill="#000000" opacity="1.00" d=" M 155.16 209.55 C 156.87 208.63 158.10 211.66 156.56 212.58 C 154.76 213.75 153.99 210.52 155.16 209.55 Z" />
<path fill="#000000" opacity="1.00" d=" M 185.29 267.57 C 184.96 265.52 186.37 264.17 187.98 263.21 C 188.94 264.26 190.43 265.60 189.15 267.05 C 187.91 267.49 186.57 267.41 185.29 267.57 Z" />
<path fill="#000000" opacity="1.00" d=" M 397.87 302.17 C 399.64 301.60 401.41 301.02 403.19 300.47 C 403.90 302.90 401.93 305.07 399.93 306.14 C 398.00 305.98 397.88 303.65 397.87 302.17 Z" />
<path fill="#000000" opacity="1.00" d=" M 35.55 311.27 C 36.93 309.48 39.51 312.21 37.54 313.43 C 36.21 314.65 34.42 312.50 35.55 311.27 Z" />
</g>
<g id="#00a2e8ff">
<path fill="#00a2e8" opacity="1.00" d=" M 56.14 6.60 C 60.92 8.13 65.52 10.15 70.32 11.64 C 102.10 22.11 135.70 24.41 168.64 28.92 C 166.75 37.56 166.74 46.56 164.06 55.03 C 162.71 59.70 158.61 63.04 157.76 67.93 C 158.61 67.95 160.29 67.99 161.14 68.01 C 159.96 79.98 157.87 91.90 157.91 103.96 C 157.42 116.27 157.78 128.66 160.16 140.78 C 178.54 149.26 198.74 153.25 218.87 154.33 C 238.55 155.95 257.62 161.45 276.32 167.56 C 296.95 173.51 318.45 175.61 339.27 180.74 C 344.48 167.10 349.24 153.30 354.78 139.79 C 360.33 126.51 365.96 113.09 374.02 101.13 C 376.84 94.78 372.09 88.43 371.90 82.02 C 371.02 68.33 364.46 55.84 363.11 42.23 C 375.05 43.07 387.03 43.16 399.01 42.93 C 407.13 42.26 415.11 40.52 423.17 39.34 C 459.35 33.97 496.04 32.72 532.00 25.76 L 532.00 45.87 C 529.88 54.98 524.79 63.01 522.00 71.89 C 520.22 77.49 520.11 83.41 519.15 89.16 C 515.94 111.40 511.44 133.44 508.58 155.72 C 508.32 156.86 508.01 157.98 507.63 159.08 C 505.23 141.73 505.05 122.92 494.68 107.95 C 492.73 107.67 491.25 108.70 490.08 110.14 C 489.67 113.72 489.27 117.37 487.83 120.71 C 484.64 116.21 483.77 110.60 482.69 105.31 C 480.63 94.62 479.91 82.42 471.56 74.42 C 470.26 72.67 467.34 72.33 466.15 74.39 C 465.75 77.57 466.99 80.69 467.25 83.85 C 466.17 84.86 463.76 87.82 463.13 84.88 C 459.94 75.55 456.05 66.01 448.87 58.99 C 447.89 59.33 446.92 59.70 445.98 60.12 C 444.67 66.46 448.57 74.85 442.32 79.38 C 438.88 72.18 437.44 63.97 432.50 57.56 C 430.70 55.21 427.37 57.41 426.50 59.55 C 423.32 66.58 421.88 74.30 421.07 81.93 C 420.88 90.67 421.10 99.43 420.97 108.17 C 413.62 102.88 411.47 92.95 403.92 87.92 C 400.62 86.82 399.68 90.74 399.18 93.11 C 395.77 104.87 401.22 116.69 400.04 128.58 C 395.28 127.24 390.86 124.78 385.95 124.05 C 382.43 123.67 379.41 126.70 379.17 130.12 C 378.61 140.10 379.13 150.11 378.81 160.11 C 372.20 160.13 366.31 156.58 359.88 155.47 C 356.85 158.23 356.58 162.50 357.60 166.24 C 358.69 181.01 363.79 195.15 369.98 208.50 C 367.85 208.44 365.47 207.41 363.45 208.45 C 361.22 212.80 365.66 217.34 364.66 221.57 C 352.49 238.06 340.08 254.39 327.97 270.93 C 323.67 276.43 320.25 283.01 313.75 286.27 C 310.77 282.19 307.82 278.08 304.52 274.25 C 303.82 275.81 303.07 277.63 300.99 277.27 C 300.99 275.96 300.99 274.66 301.00 273.36 C 315.35 252.50 332.78 233.85 345.82 212.08 C 329.10 230.65 314.60 251.06 299.76 271.11 C 298.03 269.87 296.23 268.45 293.96 268.67 C 294.01 270.35 294.08 272.04 294.17 273.72 C 292.70 273.43 291.23 273.12 289.77 272.79 C 290.06 274.86 290.49 276.91 291.03 278.93 C 287.92 277.05 285.75 273.10 281.84 272.95 C 282.25 274.83 282.86 276.65 283.49 278.47 C 281.30 277.43 279.07 276.50 276.97 275.29 C 275.33 281.13 282.22 284.10 282.41 289.62 C 284.89 296.75 277.17 301.85 277.19 308.80 C 281.11 304.73 283.35 299.48 286.17 294.67 C 292.26 297.65 297.82 301.55 303.50 305.21 C 303.04 313.06 295.34 317.89 294.11 325.37 C 299.59 320.94 301.50 313.80 306.14 308.73 C 309.23 309.66 311.29 312.47 314.20 313.80 C 316.08 314.56 318.12 314.08 320.08 314.08 C 318.23 317.25 315.58 319.84 312.11 321.15 C 312.38 330.04 304.69 336.17 302.74 344.38 C 309.32 340.37 308.62 331.06 314.21 326.15 C 315.15 325.26 316.49 325.09 317.68 324.72 C 320.39 328.39 322.70 332.32 325.04 336.23 C 323.24 338.39 321.53 340.64 320.18 343.12 C 322.94 342.45 325.18 340.58 327.89 339.80 C 330.20 338.91 332.92 338.55 334.68 336.65 C 335.87 334.50 335.18 332.00 335.11 329.70 C 339.00 333.90 342.61 338.39 346.07 342.95 C 345.59 346.44 344.16 349.74 343.92 353.29 C 349.33 348.71 346.98 339.95 352.13 335.12 C 354.38 332.93 357.65 334.28 360.25 334.92 C 359.57 332.75 358.86 330.60 358.17 328.45 C 362.75 329.58 366.76 332.12 371.07 333.94 C 374.22 335.40 377.83 334.92 381.08 336.07 C 381.03 337.67 380.98 339.26 380.93 340.87 C 389.18 341.13 397.33 344.74 405.61 342.66 C 409.32 341.62 411.52 338.27 413.97 335.58 C 416.22 337.17 417.70 339.49 419.21 341.74 C 420.03 342.88 421.80 344.65 423.11 343.12 C 429.19 335.89 433.00 326.49 432.30 316.93 C 436.85 320.65 437.80 326.85 440.03 331.99 C 441.84 336.61 444.51 342.21 449.86 343.28 C 456.63 338.85 458.47 330.44 460.05 323.05 C 461.10 317.19 463.03 311.54 465.22 306.02 C 465.87 305.99 467.16 305.93 467.81 305.91 C 476.78 313.02 476.12 326.97 485.81 333.40 C 495.39 316.66 490.81 295.81 499.79 278.85 C 501.33 276.28 501.67 272.97 504.23 271.09 C 506.11 281.64 507.58 292.28 508.03 302.99 C 507.68 315.74 508.85 328.46 508.81 341.20 C 480.47 343.21 452.09 345.03 423.89 348.78 C 413.27 349.96 402.74 352.34 392.00 352.01 C 354.97 354.56 318.09 359.09 281.02 361.01 C 272.09 360.78 263.16 361.55 254.23 361.24 C 256.15 356.43 260.48 352.88 261.94 347.90 C 260.55 335.47 256.25 323.64 253.34 311.53 C 252.92 309.65 252.44 307.50 253.63 305.80 C 261.50 291.76 270.78 277.93 273.58 261.78 C 276.13 260.16 279.21 259.48 281.61 257.60 C 289.95 251.53 294.55 242.04 299.97 233.57 C 303.42 235.25 306.99 237.37 310.99 237.01 C 313.75 237.02 316.82 235.55 318.02 233.01 C 317.01 227.50 313.03 222.66 313.64 216.84 C 316.15 213.95 319.67 212.11 321.98 209.01 C 324.01 206.68 325.07 203.76 326.14 200.91 C 324.52 196.15 319.15 193.64 314.44 195.35 C 310.49 197.35 311.25 202.32 310.87 205.98 C 306.95 206.92 303.87 203.32 300.08 203.65 C 295.78 205.59 295.55 210.98 295.92 215.06 C 296.46 221.57 299.05 229.03 294.85 234.86 C 289.48 243.14 284.53 252.81 275.16 257.16 C 276.84 248.65 276.51 239.79 274.71 231.32 C 272.74 221.36 270.90 211.14 265.86 202.18 C 260.47 192.02 251.10 182.86 239.18 181.63 C 232.68 180.03 225.74 179.02 219.25 181.23 C 207.70 184.87 197.51 192.75 190.87 202.84 C 182.01 215.22 174.52 228.81 170.55 243.58 C 169.41 247.54 169.02 251.67 167.90 255.64 C 160.21 240.61 153.23 224.22 153.98 207.01 C 160.57 202.75 168.65 196.20 166.72 187.35 C 164.07 180.47 164.76 172.83 162.01 166.01 C 160.85 162.85 157.87 161.16 154.98 159.85 C 151.40 162.40 150.20 166.84 150.05 171.03 C 149.65 174.53 151.01 178.62 148.52 181.57 C 146.18 183.99 142.92 182.23 140.13 181.96 C 134.22 187.42 136.62 197.01 141.55 202.33 C 143.55 205.35 147.98 206.45 148.75 210.26 C 153.25 228.11 157.27 246.81 167.97 262.17 C 168.98 263.79 169.35 265.79 168.86 267.65 C 168.04 269.35 166.30 270.25 164.91 271.40 C 164.79 274.03 166.03 276.31 167.66 278.28 C 168.04 277.46 168.80 275.82 169.19 274.99 C 179.02 283.50 185.60 294.98 191.86 306.20 C 191.97 306.61 192.18 307.43 192.29 307.85 C 186.05 320.94 179.36 334.31 177.93 348.96 C 177.48 351.94 178.82 354.68 180.00 357.32 C 166.43 354.26 152.45 355.54 138.71 354.13 C 128.80 353.98 118.89 353.91 108.99 353.48 C 88.91 352.55 68.79 355.38 48.75 353.12 C 34.38 353.06 19.87 352.13 5.67 354.96 C 6.92 343.04 9.06 331.22 10.43 319.30 C 15.80 278.02 19.78 236.58 24.41 195.22 C 31.37 131.83 39.69 68.32 56.14 6.60 M 107.37 92.34 C 106.41 102.86 107.66 113.38 108.01 123.90 C 109.67 148.74 113.53 173.36 115.40 198.18 C 116.20 203.44 116.30 208.83 115.61 214.11 C 115.42 216.48 117.41 218.09 119.17 219.28 C 119.07 209.81 117.56 200.45 116.96 191.02 C 113.78 161.15 110.56 131.30 107.96 101.38 C 107.63 98.50 108.31 94.79 107.37 92.34 M 81.26 129.19 C 81.00 132.11 80.35 135.00 80.19 137.93 C 80.72 151.90 86.71 164.87 88.27 178.68 C 95.32 201.66 97.73 226.09 107.91 248.08 C 108.87 250.25 110.21 253.03 112.96 253.11 C 114.39 253.45 117.40 253.09 116.91 251.05 C 114.83 250.20 112.28 250.07 110.76 248.23 C 109.48 246.71 108.60 244.90 107.92 243.05 C 104.64 233.22 102.49 223.08 99.98 213.03 C 93.94 188.60 87.49 164.25 82.48 139.58 C 82.17 137.98 81.03 136.54 81.25 134.86 C 82.00 132.81 83.02 130.86 84.08 128.95 C 83.37 129.01 81.96 129.13 81.26 129.19 M 63.35 170.24 C 72.02 209.77 82.56 249.16 98.52 286.46 C 101.50 290.35 107.79 291.56 108.27 297.26 C 108.87 297.14 110.07 296.90 110.67 296.79 C 111.04 295.21 111.43 293.64 111.86 292.08 C 105.03 288.08 99.46 282.05 95.95 274.97 C 91.20 266.39 89.63 256.63 86.40 247.48 C 78.34 221.85 72.43 195.55 63.35 170.24 M 155.16 209.55 C 153.99 210.52 154.76 213.75 156.56 212.58 C 158.10 211.66 156.87 208.63 155.16 209.55 M 35.55 311.27 C 34.42 312.50 36.21 314.65 37.54 313.43 C 39.51 312.21 36.93 309.48 35.55 311.27 Z" />
<path fill="#00a2e8" opacity="1.00" d=" M 366.17 222.53 C 372.50 227.87 376.79 235.17 380.54 242.45 C 383.35 248.48 386.08 254.65 387.42 261.19 C 382.58 259.96 377.45 257.93 372.47 259.44 C 367.72 261.75 366.06 267.08 363.03 270.97 C 361.35 271.05 359.67 270.98 358.00 270.95 C 357.97 274.05 358.60 277.34 357.28 280.26 C 355.22 285.46 351.47 289.82 349.81 295.20 C 346.39 294.32 340.53 292.78 341.08 288.28 C 351.04 272.45 361.90 257.19 372.83 242.01 C 356.66 256.91 347.38 277.38 333.46 294.15 C 331.37 292.66 329.31 290.94 326.76 290.37 C 325.56 290.42 324.98 291.86 323.94 292.35 C 321.29 289.85 319.53 285.32 322.12 282.19 C 336.98 262.44 351.55 242.47 366.17 222.53 Z" />
<path fill="#00a2e8" opacity="1.00" d=" M 364.94 272.64 C 364.98 268.82 367.86 265.32 370.73 263.05 C 371.99 267.45 373.44 271.79 374.98 276.10 C 371.46 275.54 368.40 273.47 364.94 272.64 Z" />
<path fill="#00a2e8" opacity="1.00" d=" M 350.82 298.82 C 352.52 291.85 356.68 285.81 359.98 279.53 C 365.43 283.42 366.97 290.57 368.23 296.74 C 362.88 299.38 356.61 301.32 350.82 298.82 Z" />
<path fill="#00a2e8" opacity="1.00" d=" M 194.77 312.68 C 196.58 310.74 199.29 312.88 200.37 314.63 C 207.00 324.79 215.80 333.91 219.30 345.80 C 219.59 347.17 221.58 347.56 222.32 346.38 C 231.66 335.73 240.20 324.42 249.16 313.45 C 255.46 321.48 254.71 332.30 257.41 341.64 C 255.72 342.23 254.33 343.33 253.07 344.57 L 253.41 345.40 C 250.89 346.93 246.93 347.44 245.96 350.88 C 244.34 354.46 247.01 357.85 249.66 359.99 C 233.00 360.38 216.66 355.72 199.99 356.03 C 197.45 356.11 194.92 356.75 192.38 356.32 C 192.73 353.29 195.02 350.38 193.72 347.29 C 192.10 342.90 190.46 337.92 186.04 335.57 C 186.49 327.26 189.93 319.35 194.77 312.68 Z" />
<path fill="#00a2e8" opacity="1.00" d=" M 346.95 329.92 C 347.98 329.56 349.04 329.73 350.07 329.99 C 350.14 332.33 350.40 336.38 347.00 336.20 C 346.99 334.10 346.99 332.01 346.95 329.92 Z" />
</g>
<g id="#ff8040ff">
<path fill="#ff8040" opacity="1.00" d=" M 176.19 28.93 C 206.96 27.99 237.39 32.57 267.90 35.30 C 272.91 36.40 278.08 35.67 283.09 36.85 C 291.38 37.01 299.75 37.32 307.85 39.27 C 324.08 42.16 340.64 41.05 357.04 40.94 C 363.60 57.19 367.11 74.64 369.07 91.99 C 342.43 86.38 319.42 70.57 293.18 63.76 C 283.79 61.48 274.06 60.24 264.42 61.32 C 233.54 66.49 202.96 52.37 172.09 58.47 C 170.87 51.20 170.39 43.77 171.12 36.43 C 173.78 34.76 175.54 31.97 176.19 28.93 Z" />
</g>
<g id="#7f4141ff">
<path fill="#7f4141" opacity="1.00" d=" M 170.13 62.13 L 171.00 61.08 C 174.92 65.21 180.35 61.27 185.04 61.96 C 191.82 62.37 198.74 61.25 205.43 62.56 C 216.63 63.71 227.75 65.82 238.94 67.00 C 245.96 66.64 253.16 67.85 260.03 66.04 C 268.71 66.00 277.52 65.19 286.05 67.13 C 302.73 70.31 318.27 77.47 333.83 84.02 C 336.23 84.94 338.02 86.85 339.33 89.01 C 331.17 89.12 323.57 84.42 315.35 85.14 C 309.27 96.67 305.22 109.14 299.28 120.74 C 310.08 126.18 320.97 132.24 333.08 134.00 C 334.77 134.34 335.56 132.58 336.41 131.51 C 343.50 120.97 348.33 109.17 354.17 97.94 C 349.90 95.66 345.03 93.89 342.13 89.77 L 342.24 88.45 C 350.76 89.90 357.90 96.60 366.84 96.01 C 367.41 96.50 368.57 97.48 369.15 97.97 C 367.70 101.77 365.79 105.36 364.12 109.06 C 355.29 127.43 347.30 146.22 340.56 165.46 C 339.36 168.71 338.55 172.10 337.06 175.23 C 323.70 172.71 310.31 170.18 296.90 167.90 C 296.91 162.89 299.89 158.34 298.97 153.22 C 304.38 148.90 305.79 141.81 306.97 135.39 C 305.49 135.12 304.01 134.89 302.58 134.45 C 280.12 127.77 258.41 118.78 235.86 112.38 C 231.92 111.12 227.80 110.51 223.91 109.11 C 211.99 116.10 204.26 128.30 199.24 140.86 C 198.29 142.84 198.24 145.65 196.04 146.72 C 184.45 147.58 174.77 138.15 163.14 138.93 C 163.32 135.22 161.83 131.70 161.97 128.01 C 162.09 124.61 160.59 121.38 160.96 117.96 C 161.38 109.99 160.10 101.87 161.88 94.03 C 162.16 87.49 163.62 80.99 165.73 74.80 C 167.11 75.29 168.51 75.75 169.94 76.12 C 170.17 71.46 169.71 66.77 170.13 62.13 M 205.35 67.10 C 198.16 79.75 192.57 93.22 187.88 106.97 C 188.56 106.94 189.92 106.89 190.60 106.86 C 192.60 99.27 196.48 92.35 199.29 85.05 C 203.34 84.28 207.15 86.16 211.17 86.03 C 211.02 92.01 205.74 96.93 207.16 103.14 C 207.42 102.73 207.93 101.92 208.18 101.52 C 212.53 89.75 219.29 79.00 222.97 66.97 C 221.66 67.04 220.15 67.02 219.44 68.35 C 216.28 72.92 217.06 79.79 211.90 83.01 C 208.51 82.62 205.10 84.32 201.82 82.97 C 201.98 77.03 207.87 73.05 208.04 67.14 C 207.37 67.13 206.03 67.11 205.35 67.10 M 226.68 80.02 C 222.95 81.96 219.67 85.71 219.01 89.94 C 218.12 93.51 222.01 95.84 225.05 95.98 C 230.23 94.70 233.82 89.20 233.00 83.95 C 233.31 80.70 229.35 79.10 226.68 80.02 M 242.63 103.30 C 243.25 103.08 243.87 102.85 244.49 102.63 C 246.63 99.01 244.82 93.97 248.25 91.07 C 250.46 90.87 252.68 91.11 254.89 90.85 C 257.88 89.15 259.57 85.47 258.92 82.07 C 257.94 79.88 255.50 78.17 253.07 79.24 C 246.65 85.46 241.91 94.12 242.63 103.30 M 236.96 87.02 C 235.22 91.47 236.82 96.44 234.83 100.86 C 234.19 103.70 229.45 102.53 229.90 105.94 C 230.67 105.96 232.22 106.00 232.99 106.02 C 239.63 102.30 239.22 93.91 238.98 87.35 C 240.85 85.36 242.78 83.38 244.14 80.99 C 240.54 80.61 237.58 83.66 236.96 87.02 M 269.22 82.09 C 268.38 84.42 271.30 85.76 271.12 88.01 C 270.83 93.38 263.44 95.46 263.97 101.10 C 268.47 99.28 270.10 94.48 273.03 91.04 C 275.50 87.56 280.97 87.54 282.09 82.87 C 280.66 83.50 279.31 84.27 277.95 85.02 C 274.59 85.67 272.50 81.72 269.22 82.09 M 254.90 102.14 C 259.79 100.53 261.14 94.72 262.36 90.31 C 258.65 93.33 256.01 97.49 254.90 102.14 M 270.13 103.71 C 276.40 102.86 275.69 93.20 282.36 93.18 C 282.78 98.62 278.79 103.50 280.35 108.94 C 281.98 105.39 283.89 101.80 284.07 97.82 C 284.17 95.04 284.84 91.40 281.97 89.73 C 277.09 93.42 271.93 97.60 270.13 103.71 M 289.00 99.01 C 288.52 103.95 290.59 109.55 295.30 111.75 C 291.36 105.28 290.93 97.21 291.95 89.88 C 288.59 91.37 289.04 95.94 289.00 99.01 Z" />
<path fill="#7f4141" opacity="1.00" d=" M 249.73 89.13 C 249.05 85.54 252.68 82.10 256.07 81.81 C 256.98 85.67 254.02 90.15 249.73 89.13 Z" />
<path fill="#7f4141" opacity="1.00" d=" M 221.64 90.00 C 223.06 87.35 224.41 84.31 227.02 82.64 C 229.33 82.29 230.52 84.02 231.26 85.92 C 230.24 90.08 225.35 92.95 221.64 90.00 Z" />
</g>
<g id="#7192bdff">
<path fill="#7192bd" opacity="1.00" d=" M 223.40 114.20 C 226.10 112.58 228.94 114.63 231.17 116.11 C 229.38 126.12 220.90 134.09 221.36 144.70 C 225.19 135.76 228.75 126.68 233.23 118.04 C 235.29 116.05 238.66 118.57 241.25 118.45 C 239.62 121.96 236.77 124.78 235.37 128.44 C 233.06 132.94 232.72 138.02 232.26 142.96 C 236.17 136.87 235.46 128.72 240.06 122.96 C 242.15 120.18 246.20 118.88 249.30 120.74 C 257.39 125.22 267.38 124.69 275.11 129.96 C 270.96 138.10 269.70 147.31 267.95 156.17 C 274.87 149.91 269.92 138.64 276.12 131.91 C 278.17 131.78 280.23 131.86 282.28 131.99 C 281.11 139.37 276.65 145.88 276.20 153.47 C 279.63 151.63 280.16 147.43 280.97 144.01 C 281.47 140.82 282.61 137.79 284.19 134.99 C 290.42 134.49 296.33 137.20 302.54 137.20 C 298.82 146.54 295.29 156.11 293.83 166.12 C 282.39 166.04 271.83 160.84 261.00 157.80 C 260.23 150.27 264.89 143.62 265.73 136.34 C 260.08 141.43 262.93 151.11 257.07 156.11 C 255.19 156.04 253.25 156.13 251.45 155.47 C 238.04 151.10 223.91 150.17 210.02 148.70 C 207.45 148.02 204.80 147.99 202.16 147.89 C 201.78 145.19 201.76 142.39 202.88 139.85 C 206.94 129.54 213.87 120.06 223.40 114.20 M 211.16 142.06 C 216.05 138.34 216.30 131.58 219.81 126.87 C 221.55 124.17 224.19 121.94 225.14 118.80 C 217.65 124.35 213.08 133.07 211.16 142.06 M 243.92 140.26 C 248.32 136.44 249.54 130.27 251.08 124.90 C 246.24 128.48 245.15 134.76 243.92 140.26 M 257.67 129.74 C 254.27 135.55 252.06 142.05 251.46 148.76 C 254.64 142.36 256.77 135.53 259.11 128.80 C 258.75 129.03 258.03 129.50 257.67 129.74 M 287.38 141.06 C 286.37 144.67 284.88 148.29 285.07 152.11 C 287.06 148.72 288.92 144.99 288.97 140.96 C 288.44 140.99 287.91 141.02 287.38 141.06 M 288.94 153.22 C 292.53 150.22 293.32 145.18 294.05 140.80 C 290.41 143.82 289.66 148.82 288.94 153.22 Z" />
</g>
<g id="#004000ff">
<path fill="#004000" opacity="1.00" d=" M 157.16 178.98 C 153.22 175.42 152.00 168.12 155.93 164.30 C 160.31 167.26 162.74 172.73 162.14 177.96 C 160.96 179.35 158.79 179.65 157.16 178.98 Z" />
<path fill="#004000" opacity="1.00" d=" M 139.62 190.04 C 138.73 185.13 146.92 182.52 149.02 187.21 C 149.88 192.03 148.43 197.05 146.39 201.39 C 143.81 197.88 139.68 194.73 139.62 190.04 Z" />
<path fill="#004000" opacity="1.00" d=" M 195.74 202.91 C 200.82 194.13 210.10 188.87 219.09 184.89 C 230.17 183.84 242.47 184.04 251.70 191.13 C 255.91 193.65 259.11 197.39 261.60 201.57 C 270.13 219.96 275.46 241.01 270.46 261.12 C 268.34 266.73 266.23 272.50 262.28 277.12 C 260.89 279.04 258.77 280.55 258.18 282.94 C 252.50 305.14 235.66 321.66 222.37 339.49 C 221.27 341.14 220.01 338.88 219.81 337.85 C 215.41 324.90 205.06 315.55 196.78 305.13 C 189.15 293.51 181.32 282.01 173.22 270.72 C 171.46 268.26 169.91 265.10 171.00 262.04 C 174.03 260.36 173.14 266.00 175.82 265.89 C 175.71 262.89 173.01 260.91 172.41 258.07 C 172.31 249.01 175.32 240.32 178.54 231.97 C 183.40 221.80 189.28 212.15 195.74 202.91 M 185.29 267.57 C 186.57 267.41 187.91 267.49 189.15 267.05 C 190.43 265.60 188.94 264.26 187.98 263.21 C 186.37 264.17 184.96 265.52 185.29 267.57 Z" />
<path fill="#004000" opacity="1.00" d=" M 158.18 185.94 C 159.87 184.76 161.92 185.70 163.11 187.12 C 163.39 189.43 163.70 192.09 162.11 194.03 C 159.67 197.41 157.21 201.42 152.94 202.62 C 151.04 202.06 151.67 199.52 151.41 198.03 C 150.95 193.10 153.64 188.01 158.18 185.94 Z" />
<path fill="#004000" opacity="1.00" d=" M 316.10 198.96 C 318.20 197.15 321.70 199.36 321.28 202.01 C 321.77 205.96 318.45 209.18 314.94 210.28 C 313.57 210.01 312.24 208.55 312.92 207.11 C 313.64 204.31 314.01 201.13 316.10 198.96 Z" />
<path fill="#004000" opacity="1.00" d=" M 300.06 209.15 C 300.89 206.75 304.21 207.78 304.17 210.06 C 304.75 214.37 304.05 220.10 299.91 222.40 C 298.91 218.04 299.46 213.53 300.06 209.15 Z" />
<path fill="#004000" opacity="1.00" d=" M 307.16 214.07 C 308.76 212.56 309.31 215.59 309.80 216.60 C 311.10 220.05 311.85 223.67 312.99 227.17 C 313.37 229.39 314.33 232.61 311.83 233.95 C 308.03 235.38 302.91 232.26 302.82 228.14 C 304.60 223.56 306.10 218.86 307.16 214.07 Z" />
<path fill="#004000" opacity="1.00" d=" M 183.12 340.74 C 186.48 340.31 188.54 343.54 190.28 345.89 C 193.23 349.65 189.00 356.84 184.23 355.01 C 179.41 351.80 182.47 345.30 183.12 340.74 Z" />
<path fill="#004000" opacity="1.00" d=" M 254.64 346.67 C 255.22 345.00 256.57 343.82 257.72 342.55 C 259.36 347.05 257.86 352.34 253.80 355.00 C 251.98 356.01 250.28 354.55 249.28 353.13 C 251.03 350.95 253.58 349.33 254.64 346.67 Z" />
</g>
</svg>
