<?xml version="1.0" encoding="UTF-8" ?>
<!DOCTYPE svg PUBLIC "-//W3C//DTD SVG 1.1//EN" "http://www.w3.org/Graphics/SVG/1.1/DTD/svg11.dtd">
<svg width="512pt" height="355pt" viewBox="0 0 512 355" version="1.1" xmlns="http://www.w3.org/2000/svg">
<g id="#ed1c24ff">
<path fill="#ed1c24" opacity="1.00" d=" M 0.00 0.00 L 0.17 0.00 C 0.13 0.03 0.04 0.10 0.00 0.14 L 0.00 0.00 Z" />
<path fill="#ed1c24" opacity="1.00" d=" M 242.55 29.52 C 246.05 28.00 250.46 29.37 252.81 32.30 C 254.30 34.68 252.33 37.72 253.91 40.09 C 255.63 43.67 259.87 46.47 259.10 50.88 C 256.16 54.29 251.19 54.03 247.35 55.80 C 243.77 53.71 238.35 57.03 235.96 52.29 L 231.80 53.51 C 232.21 54.47 233.04 56.40 233.45 57.36 C 233.02 57.32 232.17 57.25 231.74 57.21 C 232.47 51.05 231.06 44.11 225.50 40.53 C 226.75 35.80 232.52 37.34 236.08 36.02 C 239.64 35.50 239.52 30.78 242.55 29.52 Z" />
<path fill="#ed1c24" opacity="1.00" d=" M 234.22 60.44 C 236.75 60.11 239.33 60.09 241.84 60.59 L 241.23 62.04 C 242.11 61.87 243.87 61.53 244.75 61.36 C 244.21 62.70 243.68 64.03 243.19 65.38 C 243.60 61.24 238.59 64.99 236.83 62.69 C 236.00 61.89 235.11 61.16 234.22 60.44 Z" />
</g>
<g id="#ffffffff">
<path fill="#ffffff" opacity="1.00" d=" M 0.17 0.00 L 508.60 0.00 C 482.15 3.95 455.42 6.11 428.78 8.45 C 384.59 11.76 340.14 13.34 295.89 10.14 C 267.16 9.17 238.26 11.97 209.67 8.17 C 173.48 5.59 137.21 8.36 100.98 7.58 C 87.12 7.19 73.27 6.72 59.47 5.33 C 56.20 18.73 52.07 32.11 51.79 46.01 C 49.51 68.52 39.70 90.22 42.36 113.16 C 33.44 178.77 9.21 241.23 0.66 306.91 C 0.60 308.27 0.70 309.62 0.97 310.96 C 16.30 310.18 31.63 308.97 47.00 309.00 C 68.31 308.40 89.66 308.11 110.96 309.12 C 130.59 310.86 149.72 315.85 169.17 318.80 C 173.20 319.25 177.22 319.79 181.15 320.79 C 186.92 322.18 193.01 322.19 198.57 324.43 C 201.52 325.58 203.69 328.02 206.48 329.48 C 216.38 334.75 226.73 339.16 237.37 342.70 C 242.56 344.36 247.35 347.15 252.70 348.33 C 268.59 352.28 285.05 349.53 301.13 348.65 C 312.63 347.18 324.07 349.29 335.45 350.67 C 362.32 352.82 389.89 346.74 416.20 354.62 C 424.76 343.75 423.59 329.10 424.15 316.10 C 426.46 305.55 429.34 295.12 431.67 284.57 C 437.42 260.37 442.71 236.01 450.29 212.29 C 456.06 192.22 459.76 171.55 466.90 151.88 C 478.70 122.20 488.34 91.56 494.28 60.15 C 497.06 46.29 503.00 33.38 506.96 19.86 C 508.76 13.92 509.67 7.75 511.53 1.82 C 511.48 1.36 511.37 0.45 511.32 0.00 L 512.00 0.00 L 512.00 355.00 L 0.00 355.00 L 0.00 0.14 C 0.04 0.10 0.13 0.03 0.17 0.00 Z" />
<path fill="#ffffff" opacity="1.00" d=" M 208.05 19.93 C 236.36 22.00 263.97 30.01 289.87 41.42 C 291.27 45.99 285.67 50.26 287.05 54.90 C 287.63 55.02 288.79 55.25 289.37 55.37 C 288.75 56.95 287.57 61.86 285.50 58.44 C 281.00 68.03 279.39 78.98 272.88 87.57 C 266.46 83.51 258.04 81.99 253.63 75.27 C 259.94 75.92 266.21 77.62 272.56 78.37 C 272.50 76.13 269.96 76.06 268.36 75.60 C 265.12 75.26 263.58 71.17 260.04 71.88 C 255.45 71.51 248.83 73.64 246.14 68.70 C 253.75 67.65 261.37 70.72 268.97 68.84 C 265.64 63.89 259.99 61.06 254.36 59.58 C 251.83 58.80 248.97 59.17 246.71 57.58 L 247.35 55.80 C 251.19 54.03 256.16 54.29 259.10 50.88 C 259.87 46.47 255.63 43.67 253.91 40.09 C 252.33 37.72 254.30 34.68 252.81 32.30 C 250.46 29.37 246.05 28.00 242.55 29.52 C 239.52 30.78 239.64 35.50 236.08 36.02 C 232.52 37.34 226.75 35.80 225.50 40.53 C 231.06 44.11 232.47 51.05 231.74 57.21 C 225.76 58.10 219.98 59.90 214.04 60.94 C 210.98 61.56 207.53 61.07 204.80 62.81 C 203.20 63.75 203.56 65.82 203.59 67.37 C 197.34 70.58 195.39 77.88 190.63 82.59 C 189.63 82.06 190.79 80.51 190.70 79.63 C 195.34 59.47 197.98 38.33 208.05 19.93 Z" />
<path fill="#ffffff" opacity="1.00" d=" M 227.10 62.00 C 226.85 58.61 232.24 60.33 234.22 60.44 C 235.11 61.16 236.00 61.89 236.83 62.69 L 236.29 62.76 C 233.35 61.42 230.14 62.69 227.10 62.00 Z" />
<path fill="#ffffff" opacity="1.00" d=" M 244.75 61.36 L 244.87 61.09 C 251.88 60.38 259.10 62.56 264.43 67.20 C 259.63 66.73 254.82 67.08 250.02 67.33 C 247.67 67.21 244.77 67.51 243.19 65.38 C 243.68 64.03 244.21 62.70 244.75 61.36 Z" />
<path fill="#ffffff" opacity="1.00" d=" M 258.88 82.43 C 263.85 84.87 268.95 87.33 272.98 91.23 C 271.40 94.22 270.11 97.65 266.90 99.28 C 264.17 93.69 260.66 88.41 258.88 82.43 Z" />
<path fill="#ffffff" opacity="1.00" d=" M 227.84 115.80 C 228.96 112.66 228.78 109.25 229.28 105.99 C 233.63 107.89 238.61 107.89 242.82 110.18 C 245.08 111.37 246.50 114.19 245.55 116.68 C 243.93 121.35 242.27 126.21 239.13 130.10 C 237.44 132.37 234.16 132.61 231.87 131.15 C 231.89 129.66 231.50 128.24 230.96 126.88 C 226.74 126.17 222.23 129.21 218.34 126.74 C 216.66 124.85 217.77 121.89 219.65 120.59 C 222.08 118.47 226.11 118.77 227.84 115.80 Z" />
<path fill="#ffffff" opacity="1.00" d=" M 218.81 114.72 C 220.10 113.10 222.14 112.91 224.08 112.82 C 224.49 114.94 222.75 115.97 221.10 116.67 C 220.33 116.02 219.57 115.37 218.81 114.72 Z" />
<path fill="#ffffff" opacity="1.00" d=" M 275.61 114.19 C 276.53 113.04 279.44 113.97 278.31 115.61 C 277.43 117.11 274.84 115.71 275.61 114.19 Z" />
<path fill="#ffffff" opacity="1.00" d=" M 170.07 125.10 C 174.34 120.60 179.97 117.76 185.62 115.39 C 195.95 134.34 208.14 152.25 217.72 171.60 C 208.00 167.04 201.75 157.94 194.06 150.82 C 186.16 142.18 175.54 135.80 170.07 125.10 Z" />
<path fill="#ffffff" opacity="1.00" d=" M 213.73 120.11 C 211.05 120.80 212.43 117.45 213.14 116.37 C 213.86 117.57 215.73 119.03 213.73 120.11 Z" />
<path fill="#ffffff" opacity="1.00" d=" M 152.26 135.23 C 156.85 131.71 162.00 128.75 167.66 127.35 C 172.85 136.81 181.72 143.28 189.23 150.75 C 191.68 153.07 193.59 155.92 196.19 158.10 C 202.49 163.39 207.61 170.12 214.79 174.33 C 216.36 175.31 218.15 176.02 219.50 177.32 C 221.55 179.92 221.86 183.38 222.77 186.46 C 215.52 184.29 208.43 181.58 201.03 179.92 C 189.58 177.04 177.75 176.05 165.97 175.79 C 154.22 175.15 141.94 174.61 131.42 168.71 C 133.98 155.51 141.73 143.50 152.26 135.23 Z" />
</g>
<g id="#000000ff">
<path fill="#000000" opacity="1.00" d=" M 508.60 0.00 L 511.32 0.00 C 511.37 0.45 511.48 1.36 511.53 1.82 C 509.67 7.75 508.76 13.92 506.96 19.86 C 503.00 33.38 497.06 46.29 494.28 60.15 C 488.34 91.56 478.70 122.20 466.90 151.88 C 459.76 171.55 456.06 192.22 450.29 212.29 C 442.71 236.01 437.42 260.37 431.67 284.57 C 429.34 295.12 426.46 305.55 424.15 316.10 C 423.59 329.10 424.76 343.75 416.20 354.62 C 389.89 346.74 362.32 352.82 335.45 350.67 C 324.07 349.29 312.63 347.18 301.13 348.65 C 285.05 349.53 268.59 352.28 252.70 348.33 C 247.35 347.15 242.56 344.36 237.37 342.70 C 226.73 339.16 216.38 334.75 206.48 329.48 C 203.69 328.02 201.52 325.58 198.57 324.43 C 193.01 322.19 186.92 322.18 181.15 320.79 C 177.22 319.79 173.20 319.25 169.17 318.80 C 149.72 315.85 130.59 310.86 110.96 309.12 C 89.66 308.11 68.31 308.40 47.00 309.00 C 31.63 308.97 16.30 310.18 0.97 310.96 C 0.70 309.62 0.60 308.27 0.66 306.91 C 9.21 241.23 33.44 178.77 42.36 113.16 C 39.70 90.22 49.51 68.52 51.79 46.01 C 52.07 32.11 56.20 18.73 59.47 5.33 C 73.27 6.72 87.12 7.19 100.98 7.58 C 137.21 8.36 173.48 5.59 209.67 8.17 C 238.26 11.97 267.16 9.17 295.89 10.14 C 340.14 13.34 384.59 11.76 428.78 8.45 C 455.42 6.11 482.15 3.95 508.60 0.00 M 495.92 7.02 C 483.16 8.58 470.33 9.15 457.58 10.72 C 446.01 11.36 434.59 13.73 422.99 14.00 C 415.60 13.68 408.31 15.29 400.94 15.00 C 391.94 14.80 382.98 15.68 374.00 15.98 C 349.98 16.02 325.97 16.00 301.96 15.99 C 289.98 15.69 278.01 14.77 266.02 15.00 C 257.00 15.22 248.04 13.68 239.01 14.00 C 231.01 14.28 223.09 12.74 215.09 12.99 C 208.02 13.32 201.04 11.77 193.98 12.00 C 188.96 12.28 184.08 10.74 179.06 10.98 C 166.04 11.19 153.00 10.59 140.00 11.38 C 131.02 12.43 121.97 11.76 112.95 12.10 C 97.55 12.31 82.09 12.24 66.91 9.46 C 65.45 9.30 63.76 8.45 62.39 9.29 C 55.00 27.98 55.16 48.40 51.17 67.86 C 49.89 75.64 46.67 83.01 45.99 90.91 C 45.72 94.94 44.75 98.91 44.98 102.97 C 45.21 110.84 44.79 118.73 43.54 126.51 C 33.90 182.21 15.47 235.98 6.17 291.75 C 5.86 295.77 3.93 299.79 5.07 303.82 C 7.41 307.04 11.69 305.86 15.07 306.00 C 23.30 304.62 31.64 303.80 40.00 304.00 C 59.67 304.35 79.35 302.47 99.02 303.91 C 110.32 303.82 121.54 305.08 132.74 306.39 C 154.52 312.43 177.26 313.85 199.09 319.64 C 199.81 319.76 201.25 319.99 201.97 320.11 C 197.00 299.49 189.35 279.39 178.49 261.16 C 174.86 261.37 173.75 265.74 172.00 268.31 C 171.51 271.28 173.44 275.76 169.85 277.27 C 170.47 275.44 171.12 273.61 171.14 271.66 C 170.12 272.43 169.04 273.18 168.40 274.32 C 166.49 277.51 163.92 280.31 162.59 283.83 C 168.05 285.65 176.23 285.26 178.08 292.06 C 176.91 295.44 173.37 296.74 170.96 299.05 C 170.93 299.70 170.87 301.00 170.83 301.66 C 167.04 303.24 163.72 306.54 159.33 306.03 C 155.63 302.27 156.53 296.47 157.88 291.87 C 160.16 285.80 161.44 279.32 164.77 273.68 C 168.13 267.41 172.78 261.99 177.55 256.77 C 168.50 249.56 166.51 237.36 159.12 228.87 C 144.08 229.06 129.29 232.86 114.19 231.98 C 107.28 228.26 105.03 220.19 104.25 212.93 C 107.46 207.39 110.34 201.67 113.60 196.16 C 120.11 194.18 122.65 202.03 127.67 204.29 C 130.81 205.41 134.17 207.47 134.96 210.94 C 136.06 217.53 131.43 222.94 129.78 228.98 C 139.13 229.72 147.87 225.51 157.08 224.66 C 154.15 215.94 147.66 209.07 144.30 200.57 C 142.70 197.06 143.34 193.04 141.80 189.52 C 139.06 182.66 132.54 178.57 128.03 173.01 C 128.67 168.01 129.03 162.89 130.94 158.17 C 136.41 143.41 148.72 132.11 162.51 125.07 C 162.28 123.75 162.07 122.43 161.87 121.12 C 163.76 119.35 166.24 120.14 168.32 121.06 C 173.45 117.60 179.39 115.18 183.74 110.66 C 186.68 107.70 186.79 102.91 184.60 99.49 C 183.31 97.49 184.15 95.10 184.56 92.96 C 187.64 77.23 191.59 61.69 195.17 46.07 C 196.09 42.42 197.53 38.92 198.34 35.23 C 199.97 28.82 201.22 21.82 205.79 16.73 C 206.72 15.37 208.58 16.07 209.94 15.97 C 238.01 19.41 265.75 26.34 291.77 37.50 C 293.35 38.18 294.70 39.26 296.06 40.30 C 296.64 44.53 293.80 48.02 292.47 51.81 C 289.27 59.77 285.65 67.67 284.10 76.15 C 282.72 81.44 277.10 85.26 277.91 91.16 C 279.57 93.54 282.64 94.62 284.28 97.10 C 281.29 97.47 280.18 92.88 277.08 94.11 C 272.71 96.01 270.74 101.50 272.08 105.92 C 275.67 111.58 283.23 115.27 283.29 122.76 C 281.82 121.25 280.58 116.44 278.07 120.02 C 274.68 118.84 272.97 115.59 271.89 112.41 C 272.68 111.77 273.48 111.12 274.27 110.46 C 272.94 109.16 271.53 107.96 269.96 106.97 C 272.24 145.17 290.60 179.79 297.84 216.97 C 298.19 219.26 299.03 221.52 298.62 223.85 C 297.24 217.11 295.10 210.55 293.28 203.92 C 287.81 184.82 281.71 165.83 273.31 147.80 C 272.85 146.63 272.03 145.70 271.20 144.81 C 273.72 172.92 290.01 197.41 293.91 225.24 C 290.00 223.47 290.27 218.94 289.54 215.42 C 287.85 210.37 286.75 205.14 284.98 200.11 C 281.06 188.75 276.37 177.60 273.78 165.82 C 272.75 165.92 270.33 166.16 271.19 167.80 C 272.03 170.22 272.96 172.61 273.50 175.13 C 279.30 201.06 287.69 226.49 290.74 252.98 C 284.88 229.99 280.54 206.58 273.15 183.99 C 272.89 182.82 272.21 181.85 271.46 180.96 C 269.19 194.67 277.51 207.32 277.16 220.94 C 276.41 220.97 274.92 221.03 274.17 221.06 C 275.26 222.22 276.51 223.22 277.52 224.45 C 279.62 231.81 280.44 239.44 281.44 247.00 C 282.93 251.20 282.76 255.86 285.11 259.76 C 287.18 264.21 291.26 267.08 295.24 269.67 C 294.75 269.87 293.79 270.26 293.31 270.46 C 290.77 267.72 286.75 263.00 283.12 266.98 C 281.75 258.75 274.89 253.10 270.73 246.26 C 269.81 244.01 267.31 245.19 265.80 246.03 C 265.86 250.22 268.99 253.43 271.89 256.08 C 276.95 261.01 278.19 268.31 281.77 274.17 C 282.39 275.52 283.62 276.27 285.09 276.42 C 285.18 273.85 284.44 271.40 283.89 268.92 C 284.37 268.97 285.34 269.08 285.82 269.13 C 287.88 274.32 284.76 279.94 286.93 285.18 C 280.08 277.03 276.88 266.62 270.71 258.04 C 270.28 258.02 269.42 257.98 268.99 257.96 C 268.29 263.16 272.88 267.12 273.05 272.18 C 267.85 266.15 267.52 257.80 264.82 250.63 C 263.03 251.81 262.13 253.96 262.75 256.07 C 267.71 270.06 274.80 283.38 278.70 297.73 C 271.92 287.50 271.44 273.91 262.97 264.64 C 263.58 274.34 270.62 282.21 272.41 291.70 C 266.13 284.30 264.63 274.40 261.17 265.63 C 258.89 267.94 258.19 271.40 259.34 274.43 C 263.62 286.86 272.12 297.12 279.45 307.82 C 271.25 302.27 267.21 292.81 262.33 284.57 C 260.73 282.09 259.63 279.03 256.98 277.45 C 256.41 284.39 262.83 289.03 265.00 295.17 C 260.19 292.62 260.64 285.04 255.11 283.73 C 254.13 286.12 253.40 288.85 254.34 291.38 C 256.31 296.66 260.87 300.29 263.73 305.05 C 261.86 304.42 259.78 304.00 258.37 302.51 C 256.09 300.10 255.45 296.73 253.86 293.92 C 251.83 293.28 251.54 295.48 250.84 296.80 C 257.37 308.76 267.42 318.10 276.64 327.92 C 264.06 323.95 261.54 308.01 250.20 302.28 C 246.64 314.38 246.18 327.39 240.32 338.77 C 246.39 340.29 252.06 343.05 258.10 344.69 C 264.91 346.74 272.11 345.96 279.12 345.83 C 285.17 344.74 291.34 345.34 297.39 344.26 C 303.54 343.73 309.73 344.12 315.90 344.00 C 321.68 343.70 327.28 345.47 332.98 346.03 C 356.33 349.42 379.58 343.07 402.96 344.02 C 407.00 344.63 409.78 348.64 413.89 349.06 C 415.06 347.72 415.84 346.10 416.57 344.49 C 423.09 329.85 418.81 313.23 423.85 298.23 C 428.96 279.66 435.20 261.22 437.27 241.98 C 437.89 239.88 439.06 238.00 439.87 235.98 C 443.85 226.37 444.64 215.86 447.65 205.96 C 448.52 203.04 449.85 200.27 450.42 197.27 C 453.15 183.41 457.02 169.80 461.40 156.37 C 467.95 135.46 477.01 115.37 482.30 94.07 C 488.10 71.29 491.73 47.81 500.69 25.94 C 501.57 19.12 502.14 12.10 505.30 5.84 C 502.20 6.47 499.09 7.09 495.92 7.02 M 208.05 19.93 C 197.98 38.33 195.34 59.47 190.70 79.63 C 190.79 80.51 189.63 82.06 190.63 82.59 C 195.39 77.88 197.34 70.58 203.59 67.37 C 203.56 65.82 203.20 63.75 204.80 62.81 C 207.53 61.07 210.98 61.56 214.04 60.94 C 219.98 59.90 225.76 58.10 231.74 57.21 C 232.17 57.25 233.02 57.32 233.45 57.36 C 233.04 56.40 232.21 54.47 231.80 53.51 L 235.96 52.29 C 238.35 57.03 243.77 53.71 247.35 55.80 L 246.71 57.58 C 248.97 59.17 251.83 58.80 254.36 59.58 C 259.99 61.06 265.64 63.89 268.97 68.84 C 261.37 70.72 253.75 67.65 246.14 68.70 C 248.83 73.64 255.45 71.51 260.04 71.88 C 263.58 71.17 265.12 75.26 268.36 75.60 C 269.96 76.06 272.50 76.13 272.56 78.37 C 266.21 77.62 259.94 75.92 253.63 75.27 C 258.04 81.99 266.46 83.51 272.88 87.57 C 279.39 78.98 281.00 68.03 285.50 58.44 C 287.57 61.86 288.75 56.95 289.37 55.37 C 288.79 55.25 287.63 55.02 287.05 54.90 C 285.67 50.26 291.27 45.99 289.87 41.42 C 263.97 30.01 236.36 22.00 208.05 19.93 M 227.10 62.00 C 230.14 62.69 233.35 61.42 236.29 62.76 L 236.83 62.69 C 238.59 64.99 243.60 61.24 243.19 65.38 C 244.77 67.51 247.67 67.21 250.02 67.33 C 254.82 67.08 259.63 66.73 264.43 67.20 C 259.10 62.56 251.88 60.38 244.87 61.09 L 244.75 61.36 C 243.87 61.53 242.11 61.87 241.23 62.04 L 241.84 60.59 C 239.33 60.09 236.75 60.11 234.22 60.44 C 232.24 60.33 226.85 58.61 227.10 62.00 M 204.22 72.26 C 193.48 80.79 188.60 94.90 188.63 108.30 C 190.71 107.99 192.84 107.61 194.93 108.11 C 196.27 111.62 190.10 110.53 190.36 114.01 C 190.87 118.62 193.38 122.59 195.82 126.40 C 204.83 141.46 214.78 156.07 221.73 172.26 C 224.14 178.18 230.54 182.18 230.78 189.02 C 230.54 190.00 230.83 192.30 229.20 192.13 C 221.99 190.23 214.49 189.26 207.56 186.42 C 185.11 176.47 159.29 184.27 136.69 174.81 C 143.37 182.85 146.47 192.96 149.19 202.87 C 153.11 209.85 157.51 216.61 160.65 224.02 C 163.86 222.23 166.36 218.81 170.30 218.71 C 171.47 224.34 161.95 222.38 162.81 227.81 C 167.00 235.67 171.90 243.15 176.15 250.98 C 176.80 252.56 178.47 253.10 179.86 253.83 C 181.78 252.08 182.30 249.47 183.55 247.30 C 184.74 245.80 186.65 246.11 188.14 246.94 C 188.57 252.20 181.69 252.85 179.84 257.11 C 191.75 276.88 201.44 298.54 204.00 321.68 C 214.18 328.96 226.19 332.86 237.66 337.56 C 240.63 325.46 245.91 313.69 245.87 301.03 C 245.83 294.24 243.17 287.83 239.29 282.36 C 243.92 284.70 243.47 291.80 248.94 293.12 C 250.13 286.83 244.48 282.34 243.74 276.41 C 242.99 276.59 241.49 276.95 240.74 277.12 C 241.18 273.99 242.87 270.76 241.32 267.67 C 238.13 258.64 238.91 248.95 240.42 239.68 C 241.95 239.89 245.03 240.70 244.92 238.14 C 244.49 234.77 243.64 231.43 243.94 228.00 C 244.93 227.27 245.90 226.54 246.88 225.80 C 245.38 230.87 248.00 235.97 247.01 241.06 C 246.36 242.78 244.32 243.03 242.96 243.96 C 245.11 253.87 249.40 263.17 253.04 272.60 C 256.98 271.31 254.11 266.32 253.19 263.69 C 250.28 257.43 247.87 250.90 246.60 244.09 C 249.82 247.13 250.14 251.83 251.29 255.86 C 252.18 259.14 253.12 263.41 256.99 264.30 C 258.24 251.77 249.97 241.07 248.68 228.94 C 247.73 220.84 246.10 212.85 244.81 204.81 C 244.21 203.38 245.35 202.20 245.85 200.98 C 245.45 205.78 250.71 207.31 254.06 204.90 C 252.72 187.41 250.51 169.99 250.17 152.43 C 248.43 151.17 247.47 153.59 247.36 154.88 C 245.03 170.05 250.00 185.02 249.86 200.13 C 244.56 196.17 249.92 187.82 245.13 183.67 C 245.14 188.50 244.96 193.33 245.24 198.16 C 245.68 199.60 244.68 200.80 244.03 201.97 C 244.03 195.56 242.68 189.19 243.45 182.79 C 243.60 180.10 244.71 177.60 245.07 174.96 C 245.81 168.29 243.65 161.55 245.08 154.93 C 246.30 151.39 248.94 148.39 249.33 144.54 C 250.60 136.27 248.13 127.99 248.94 119.67 C 243.66 123.47 244.97 132.78 237.93 134.72 C 230.80 134.16 222.55 137.20 216.33 132.56 C 213.08 127.96 209.47 122.92 209.65 117.00 C 209.34 108.30 214.36 100.27 220.78 94.76 C 223.36 93.03 222.85 89.63 223.96 87.06 C 225.69 81.12 229.51 75.77 235.26 73.19 C 224.92 72.30 216.16 81.03 205.76 78.71 C 210.73 74.50 218.98 77.09 223.13 71.46 C 219.17 71.21 215.33 70.19 211.49 69.27 C 208.64 68.37 206.37 70.79 204.22 72.26 M 238.70 74.76 C 238.77 78.05 241.64 79.93 244.14 81.45 C 243.49 78.62 242.19 74.85 238.70 74.76 M 232.44 78.12 C 228.67 81.54 225.76 86.51 226.31 91.76 C 229.03 90.66 230.63 88.12 232.69 86.19 C 232.09 88.39 229.77 90.45 230.65 92.77 L 232.18 92.64 C 233.64 87.70 237.72 83.42 237.06 78.02 C 235.58 77.88 233.67 76.72 232.44 78.12 M 247.39 78.97 C 250.45 84.21 253.11 90.42 258.98 93.07 C 256.20 87.75 253.34 81.30 247.39 78.97 M 239.18 82.83 C 237.26 85.78 235.86 89.36 236.22 92.93 C 236.70 95.28 238.98 96.26 241.14 96.52 C 241.97 93.35 243.17 90.26 243.71 87.02 C 244.39 84.54 241.43 81.85 239.18 82.83 M 258.88 82.43 C 260.66 88.41 264.17 93.69 266.90 99.28 C 270.11 97.65 271.40 94.22 272.98 91.23 C 268.95 87.33 263.85 84.87 258.88 82.43 M 246.32 89.85 C 244.70 92.22 242.85 94.92 243.43 97.96 C 244.24 102.28 247.19 105.68 249.87 108.98 C 248.76 111.76 249.19 114.64 251.09 116.95 C 251.12 128.56 250.56 140.22 251.72 151.80 C 252.53 165.22 254.01 178.58 255.09 191.98 C 255.12 197.60 256.65 203.19 255.72 208.81 C 255.27 207.47 254.40 206.95 253.10 207.25 C 252.10 211.18 250.19 214.99 250.16 219.09 C 251.20 220.60 253.08 220.22 254.63 220.01 C 255.59 216.74 256.26 213.40 256.65 210.01 C 256.51 212.25 256.35 214.48 256.24 216.71 C 259.07 216.21 260.86 218.54 262.94 219.96 C 264.19 209.39 257.12 200.28 256.84 189.95 C 256.51 186.57 258.36 183.65 260.25 181.04 C 258.91 164.30 256.34 147.67 254.96 130.94 C 254.63 122.00 253.21 113.03 254.44 104.11 C 257.95 125.44 258.21 147.11 261.30 168.49 C 266.18 172.99 259.94 182.14 266.68 185.28 C 265.71 160.29 263.56 135.25 258.29 110.76 C 259.58 110.76 261.90 110.86 261.76 108.99 C 262.08 107.80 260.43 107.89 259.80 107.34 C 259.26 108.53 258.71 109.71 258.10 110.86 C 257.71 106.30 256.45 101.87 255.41 97.43 C 255.10 95.98 253.84 94.19 252.15 95.18 C 250.08 96.57 248.36 98.43 246.28 99.82 C 246.94 96.98 249.04 94.82 250.01 92.13 C 249.94 90.34 247.61 90.27 246.32 89.85 M 223.10 98.64 C 227.31 104.31 234.99 104.07 241.15 105.87 C 242.56 106.56 243.23 104.45 242.26 103.69 C 239.44 100.15 235.43 96.97 230.80 96.51 C 231.05 97.89 232.32 99.26 231.80 100.72 C 228.83 102.10 227.13 98.51 225.57 96.67 C 224.55 97.05 222.22 96.92 223.10 98.64 M 227.84 115.80 C 226.11 118.77 222.08 118.47 219.65 120.59 C 217.77 121.89 216.66 124.85 218.34 126.74 C 222.23 129.21 226.74 126.17 230.96 126.88 C 231.50 128.24 231.89 129.66 231.87 131.15 C 234.16 132.61 237.44 132.37 239.13 130.10 C 242.27 126.21 243.93 121.35 245.55 116.68 C 246.50 114.19 245.08 111.37 242.82 110.18 C 238.61 107.89 233.63 107.89 229.28 105.99 C 228.78 109.25 228.96 112.66 227.84 115.80 M 218.81 114.72 C 219.57 115.37 220.33 116.02 221.10 116.67 C 222.75 115.97 224.49 114.94 224.08 112.82 C 222.14 112.91 220.10 113.10 218.81 114.72 M 275.61 114.19 C 274.84 115.71 277.43 117.11 278.31 115.61 C 279.44 113.97 276.53 113.04 275.61 114.19 M 262.60 114.84 C 264.03 122.03 263.14 130.80 268.85 136.28 C 267.44 131.08 267.81 125.61 266.48 120.40 C 265.81 118.22 264.79 115.87 262.60 114.84 M 170.07 125.10 C 175.54 135.80 186.16 142.18 194.06 150.82 C 201.75 157.94 208.00 167.04 217.72 171.60 C 208.14 152.25 195.95 134.34 185.62 115.39 C 179.97 117.76 174.34 120.60 170.07 125.10 M 213.73 120.11 C 215.73 119.03 213.86 117.57 213.14 116.37 C 212.43 117.45 211.05 120.80 213.73 120.11 M 152.26 135.23 C 141.73 143.50 133.98 155.51 131.42 168.71 C 141.94 174.61 154.22 175.15 165.97 175.79 C 177.75 176.05 189.58 177.04 201.03 179.92 C 208.43 181.58 215.52 184.29 222.77 186.46 C 221.86 183.38 221.55 179.92 219.50 177.32 C 218.15 176.02 216.36 175.31 214.79 174.33 C 207.61 170.12 202.49 163.39 196.19 158.10 C 193.59 155.92 191.68 153.07 189.23 150.75 C 181.72 143.28 172.85 136.81 167.66 127.35 C 162.00 128.75 156.85 131.71 152.26 135.23 M 263.41 199.05 C 267.10 194.59 263.86 188.36 259.45 185.82 C 255.97 190.56 261.21 195.08 263.41 199.05 M 269.10 191.08 C 268.77 198.58 268.71 206.34 271.39 213.47 C 272.17 215.64 273.50 217.56 275.27 219.05 C 274.48 213.73 273.45 208.45 272.76 203.12 C 271.96 199.01 271.44 194.66 269.10 191.08 M 115.01 202.78 C 116.74 202.99 118.50 202.85 120.25 202.82 C 119.92 200.65 118.16 198.74 115.91 198.59 C 114.15 199.09 112.97 201.83 115.01 202.78 M 119.49 207.06 C 117.12 210.00 122.97 213.51 125.49 210.64 C 123.51 213.52 118.37 212.21 117.36 215.94 C 118.00 219.89 120.46 223.73 124.08 225.57 C 127.08 227.18 130.99 224.20 130.90 220.99 C 131.12 217.40 131.80 213.70 130.71 210.18 C 129.99 208.09 127.69 207.53 125.78 207.07 L 125.62 209.26 L 124.35 210.30 C 125.28 206.06 121.68 207.25 119.49 207.06 M 267.33 207.08 C 264.88 221.64 275.07 233.93 277.36 247.76 C 273.00 241.07 271.47 233.12 268.62 225.77 C 262.90 231.18 266.23 239.90 270.60 245.04 C 273.16 247.46 274.36 250.97 277.23 253.08 C 278.66 253.08 280.10 253.09 281.53 253.09 C 281.44 251.73 281.31 250.37 281.14 249.03 C 276.39 236.23 273.92 222.71 269.11 209.93 C 268.76 208.83 267.99 207.98 267.33 207.08 M 108.27 217.98 C 109.28 222.05 111.95 226.62 116.62 226.88 C 116.92 230.06 120.48 230.14 122.90 230.06 C 122.00 227.48 118.96 226.83 117.66 224.55 C 114.34 219.34 115.14 212.37 110.83 207.67 C 107.35 209.88 107.71 214.43 108.27 217.98 M 258.78 219.73 C 258.58 223.35 259.45 227.33 262.87 229.23 C 262.98 227.15 263.15 225.06 262.91 222.99 C 262.55 221.05 260.50 220.14 258.78 219.73 M 251.22 220.92 C 252.26 226.75 251.69 233.13 254.62 238.47 C 255.44 240.16 257.34 240.08 258.95 240.15 C 255.68 236.15 256.57 230.75 255.88 225.99 C 255.69 223.44 253.45 221.70 251.22 220.92 M 258.95 232.65 C 258.63 234.90 259.20 237.08 260.77 238.74 C 262.87 236.77 261.42 233.47 258.95 232.65 M 257.03 242.13 C 256.91 244.14 257.23 246.14 258.11 247.97 C 260.92 247.02 263.07 243.75 261.12 241.00 C 259.75 241.37 258.39 241.75 257.03 242.13 M 240.04 248.85 C 239.49 257.63 243.28 265.76 245.43 274.07 C 245.81 277.80 246.40 282.06 250.09 284.04 C 251.20 283.27 253.38 282.82 252.71 280.95 C 251.77 271.52 247.80 262.76 243.55 254.41 C 242.51 252.48 241.74 250.32 240.04 248.85 M 162.74 289.64 C 161.71 291.28 161.35 294.11 163.46 295.03 C 165.94 293.27 168.29 290.87 168.16 287.57 C 166.23 287.51 163.69 287.62 162.74 289.64 M 171.35 289.94 C 171.09 290.46 170.55 291.49 170.28 292.01 C 170.85 293.47 171.11 295.21 172.55 296.12 C 173.19 294.05 173.90 291.01 171.35 289.94 M 158.95 301.93 C 162.80 303.76 168.28 300.84 168.80 296.61 C 165.09 296.81 158.63 296.53 158.95 301.93 Z" />
<path fill="#000000" opacity="1.00" d=" M 238.40 223.06 C 236.44 218.91 237.35 213.37 241.09 210.50 C 240.84 214.83 238.45 218.69 238.40 223.06 Z" />
<path fill="#000000" opacity="1.00" d=" M 240.09 226.27 C 241.24 225.90 242.39 225.53 243.55 225.16 C 242.24 227.38 241.02 229.66 239.96 232.02 C 241.09 233.68 241.55 235.51 240.82 237.46 C 237.90 234.64 238.25 229.61 240.09 226.27 Z" />
<path fill="#000000" opacity="1.00" d=" M 292.98 229.72 C 296.07 234.32 296.83 240.10 297.12 245.52 C 293.11 241.29 293.90 235.03 292.98 229.72 Z" />
<path fill="#000000" opacity="1.00" d=" M 298.16 248.14 C 299.45 247.14 302.09 249.12 300.52 250.45 C 299.19 251.92 297.07 249.47 298.16 248.14 Z" />
<path fill="#000000" opacity="1.00" d=" M 231.80 266.40 C 232.41 264.33 231.95 260.33 234.79 260.01 C 233.99 262.19 234.74 265.83 231.80 266.40 Z" />
<path fill="#000000" opacity="1.00" d=" M 232.94 272.99 C 232.62 271.23 232.58 269.43 233.56 267.88 C 234.08 269.72 234.35 271.62 234.45 273.53 C 234.07 273.39 233.32 273.12 232.94 272.99 Z" />
<path fill="#000000" opacity="1.00" d=" M 275.33 278.28 C 276.50 278.97 276.99 280.23 277.33 281.49 C 280.62 288.20 282.79 295.42 286.37 301.99 C 286.86 302.26 286.94 304.38 286.26 303.24 C 284.67 300.04 282.47 297.19 280.94 293.97 C 278.41 289.00 276.86 283.61 275.33 278.28 Z" />
<path fill="#000000" opacity="1.00" d=" M 291.07 292.30 C 292.35 291.08 294.11 293.45 292.57 294.31 C 291.29 295.33 289.76 293.25 291.07 292.30 Z" />
<path fill="#000000" opacity="1.00" d=" M 265.81 308.80 C 266.86 309.24 267.89 309.74 268.90 310.29 C 268.85 311.10 270.07 313.49 268.26 312.94 C 267.03 311.85 266.46 310.26 265.81 308.80 Z" />
</g>
<g id="#e1d07aff">
<path fill="#e1d07a" opacity="1.00" d=" M 495.92 7.02 C 499.09 7.09 502.20 6.47 505.30 5.84 C 502.14 12.10 501.57 19.12 500.69 25.94 C 491.73 47.81 488.10 71.29 482.30 94.07 C 477.01 115.37 467.95 135.46 461.40 156.37 C 457.02 169.80 453.15 183.41 450.42 197.27 C 449.85 200.27 448.52 203.04 447.65 205.96 C 444.64 215.86 443.85 226.37 439.87 235.98 C 439.06 238.00 437.89 239.88 437.27 241.98 C 435.20 261.22 428.96 279.66 423.85 298.23 C 418.81 313.23 423.09 329.85 416.57 344.49 C 415.84 346.10 415.06 347.72 413.89 349.06 C 409.78 348.64 407.00 344.63 402.96 344.02 C 379.58 343.07 356.33 349.42 332.98 346.03 C 327.28 345.47 321.68 343.70 315.90 344.00 C 309.73 344.12 303.54 343.73 297.39 344.26 C 291.34 345.34 285.17 344.74 279.12 345.83 C 272.11 345.96 264.91 346.74 258.10 344.69 C 252.06 343.05 246.39 340.29 240.32 338.77 C 246.18 327.39 246.64 314.38 250.20 302.28 C 261.54 308.01 264.06 323.95 276.64 327.92 C 267.42 318.10 257.37 308.76 250.84 296.80 C 251.54 295.48 251.83 293.28 253.86 293.92 C 255.45 296.73 256.09 300.10 258.37 302.51 C 259.78 304.00 261.86 304.42 263.73 305.05 C 260.87 300.29 256.31 296.66 254.34 291.38 C 253.40 288.85 254.13 286.12 255.11 283.73 C 260.64 285.04 260.19 292.62 265.00 295.17 C 262.83 289.03 256.41 284.39 256.98 277.45 C 259.63 279.03 260.73 282.09 262.33 284.57 C 267.21 292.81 271.25 302.27 279.45 307.82 C 272.12 297.12 263.62 286.86 259.34 274.43 C 258.19 271.40 258.89 267.94 261.17 265.63 C 264.63 274.40 266.13 284.30 272.41 291.70 C 270.62 282.21 263.58 274.34 262.97 264.64 C 271.44 273.91 271.92 287.50 278.70 297.73 C 274.80 283.38 267.71 270.06 262.75 256.07 C 262.13 253.96 263.03 251.81 264.82 250.63 C 267.52 257.80 267.85 266.15 273.05 272.18 C 272.88 267.12 268.29 263.16 268.99 257.96 C 269.42 257.98 270.28 258.02 270.71 258.04 C 276.88 266.62 280.08 277.03 286.93 285.18 C 284.76 279.94 287.88 274.32 285.82 269.13 C 285.34 269.08 284.37 268.97 283.89 268.92 C 284.44 271.40 285.18 273.85 285.09 276.42 C 283.62 276.27 282.39 275.52 281.77 274.17 C 278.19 268.31 276.95 261.01 271.89 256.08 C 268.99 253.43 265.86 250.22 265.80 246.03 C 267.31 245.19 269.81 244.01 270.73 246.26 C 274.89 253.10 281.75 258.75 283.12 266.98 C 286.75 263.00 290.77 267.72 293.31 270.46 C 293.79 270.26 294.75 269.87 295.24 269.67 C 291.26 267.08 287.18 264.21 285.11 259.76 C 282.76 255.86 282.93 251.20 281.44 247.00 C 280.44 239.44 279.62 231.81 277.52 224.45 C 276.51 223.22 275.26 222.22 274.17 221.06 C 274.92 221.03 276.41 220.97 277.16 220.94 C 277.51 207.32 269.19 194.67 271.46 180.96 C 272.21 181.85 272.89 182.82 273.15 183.99 C 280.54 206.58 284.88 229.99 290.74 252.98 C 287.69 226.49 279.30 201.06 273.50 175.13 C 272.96 172.61 272.03 170.22 271.19 167.80 C 270.33 166.16 272.75 165.92 273.78 165.82 C 276.37 177.60 281.06 188.75 284.98 200.11 C 286.75 205.14 287.85 210.37 289.54 215.42 C 290.27 218.94 290.00 223.47 293.91 225.24 C 290.01 197.41 273.72 172.92 271.20 144.81 C 272.03 145.70 272.85 146.63 273.31 147.80 C 281.71 165.83 287.81 184.82 293.28 203.92 C 295.10 210.55 297.24 217.11 298.62 223.85 C 299.03 221.52 298.19 219.26 297.84 216.97 C 290.60 179.79 272.24 145.17 269.96 106.97 C 271.53 107.96 272.94 109.16 274.27 110.46 C 273.48 111.12 272.68 111.77 271.89 112.41 C 272.97 115.59 274.68 118.84 278.07 120.02 C 280.58 116.44 281.82 121.25 283.29 122.76 C 283.23 115.27 275.67 111.58 272.08 105.92 C 270.74 101.50 272.71 96.01 277.08 94.11 C 280.18 92.88 281.29 97.47 284.28 97.10 C 282.64 94.62 279.57 93.54 277.91 91.16 C 277.10 85.26 282.72 81.44 284.10 76.15 C 285.65 67.67 289.27 59.77 292.47 51.81 C 293.80 48.02 296.64 44.53 296.06 40.30 C 294.70 39.26 293.35 38.18 291.77 37.50 C 265.75 26.34 238.01 19.41 209.94 15.97 C 208.58 16.07 206.72 15.37 205.79 16.73 C 201.22 21.82 199.97 28.82 198.34 35.23 C 197.53 38.92 196.09 42.42 195.17 46.07 C 191.59 61.69 187.64 77.23 184.56 92.96 C 184.15 95.10 183.31 97.49 184.60 99.49 C 186.79 102.91 186.68 107.70 183.74 110.66 C 179.39 115.18 173.45 117.60 168.32 121.06 C 166.24 120.14 163.76 119.35 161.87 121.12 C 162.07 122.43 162.28 123.75 162.51 125.07 C 148.72 132.11 136.41 143.41 130.94 158.17 C 129.03 162.89 128.67 168.01 128.03 173.01 C 132.54 178.57 139.06 182.66 141.80 189.52 C 143.34 193.04 142.70 197.06 144.30 200.57 C 147.66 209.07 154.15 215.94 157.08 224.66 C 147.87 225.51 139.13 229.72 129.78 228.98 C 131.43 222.94 136.06 217.53 134.96 210.94 C 134.17 207.47 130.81 205.41 127.67 204.29 C 122.65 202.03 120.11 194.18 113.60 196.16 C 110.34 201.67 107.46 207.39 104.25 212.93 C 105.03 220.19 107.28 228.26 114.19 231.98 C 129.29 232.86 144.08 229.06 159.12 228.87 C 166.51 237.36 168.50 249.56 177.55 256.77 C 172.78 261.99 168.13 267.41 164.77 273.68 C 161.44 279.32 160.16 285.80 157.88 291.87 C 156.53 296.47 155.63 302.27 159.33 306.03 C 163.72 306.54 167.04 303.24 170.83 301.66 C 170.87 301.00 170.93 299.70 170.96 299.05 C 173.37 296.74 176.91 295.44 178.08 292.06 C 176.23 285.26 168.05 285.65 162.59 283.83 C 163.92 280.31 166.49 277.51 168.40 274.32 C 169.04 273.18 170.12 272.43 171.14 271.66 C 171.12 273.61 170.47 275.44 169.85 277.27 C 173.44 275.76 171.51 271.28 172.00 268.31 C 173.75 265.74 174.86 261.37 178.49 261.16 C 189.35 279.39 197.00 299.49 201.97 320.11 C 201.25 319.99 199.81 319.76 199.09 319.64 C 177.26 313.85 154.52 312.43 132.74 306.39 C 121.54 305.08 110.32 303.82 99.02 303.91 C 79.35 302.47 59.67 304.35 40.00 304.00 C 31.64 303.80 23.30 304.62 15.07 306.00 C 11.69 305.86 7.41 307.04 5.07 303.82 C 3.93 299.79 5.86 295.77 6.17 291.75 C 15.47 235.98 33.90 182.21 43.54 126.51 C 44.79 118.73 45.21 110.84 44.98 102.97 C 44.75 98.91 45.72 94.94 45.99 90.91 C 46.67 83.01 49.89 75.64 51.17 67.86 C 55.16 48.40 55.00 27.98 62.39 9.29 C 63.76 8.45 65.45 9.30 66.91 9.46 C 82.09 12.24 97.55 12.31 112.95 12.10 C 121.97 11.76 131.02 12.43 140.00 11.38 C 153.00 10.59 166.04 11.19 179.06 10.98 C 184.08 10.74 188.96 12.28 193.98 12.00 C 201.04 11.77 208.02 13.32 215.09 12.99 C 223.09 12.74 231.01 14.28 239.01 14.00 C 248.04 13.68 257.00 15.22 266.02 15.00 C 278.01 14.77 289.98 15.69 301.96 15.99 C 325.97 16.00 349.98 16.02 374.00 15.98 C 382.98 15.68 391.94 14.80 400.94 15.00 C 408.31 15.29 415.60 13.68 422.99 14.00 C 434.59 13.73 446.01 11.36 457.58 10.72 C 470.33 9.15 483.16 8.58 495.92 7.02 M 292.98 229.72 C 293.90 235.03 293.11 241.29 297.12 245.52 C 296.83 240.10 296.07 234.32 292.98 229.72 M 298.16 248.14 C 297.07 249.47 299.19 251.92 300.52 250.45 C 302.09 249.12 299.45 247.14 298.16 248.14 M 275.33 278.28 C 276.86 283.61 278.41 289.00 280.94 293.97 C 282.47 297.19 284.67 300.04 286.26 303.24 C 286.94 304.38 286.86 302.26 286.37 301.99 C 282.79 295.42 280.62 288.20 277.33 281.49 C 276.99 280.23 276.50 278.97 275.33 278.28 M 291.07 292.30 C 289.76 293.25 291.29 295.33 292.57 294.31 C 294.11 293.45 292.35 291.08 291.07 292.30 M 265.81 308.80 C 266.46 310.26 267.03 311.85 268.26 312.94 C 270.07 313.49 268.85 311.10 268.90 310.29 C 267.89 309.74 266.86 309.24 265.81 308.80 Z" />
<path fill="#e1d07a" opacity="1.00" d=" M 269.10 191.08 C 271.44 194.66 271.96 199.01 272.76 203.12 C 273.45 208.45 274.48 213.73 275.27 219.05 C 273.50 217.56 272.17 215.64 271.39 213.47 C 268.71 206.34 268.77 198.58 269.10 191.08 Z" />
<path fill="#e1d07a" opacity="1.00" d=" M 267.33 207.08 C 267.99 207.98 268.76 208.83 269.11 209.93 C 273.92 222.71 276.39 236.23 281.14 249.03 C 281.31 250.37 281.44 251.73 281.53 253.09 C 280.10 253.09 278.66 253.08 277.23 253.08 C 274.36 250.97 273.16 247.46 270.60 245.04 C 266.23 239.90 262.90 231.18 268.62 225.77 C 271.47 233.12 273.00 241.07 277.36 247.76 C 275.07 233.93 264.88 221.64 267.33 207.08 Z" />
</g>
<g id="#ff00ffff">
<path fill="#ff00ff" opacity="1.00" d=" M 204.22 72.26 C 206.37 70.79 208.64 68.37 211.49 69.27 C 215.33 70.19 219.17 71.21 223.13 71.46 C 218.98 77.09 210.73 74.50 205.76 78.71 C 216.16 81.03 224.92 72.30 235.26 73.19 C 229.51 75.77 225.69 81.12 223.96 87.06 C 222.85 89.63 223.36 93.03 220.78 94.76 C 214.36 100.27 209.34 108.30 209.65 117.00 C 209.47 122.92 213.08 127.96 216.33 132.56 C 222.55 137.20 230.80 134.16 237.93 134.72 C 244.97 132.78 243.66 123.47 248.94 119.67 C 248.13 127.99 250.60 136.27 249.33 144.54 C 248.94 148.39 246.30 151.39 245.08 154.93 C 243.65 161.55 245.81 168.29 245.07 174.96 C 244.71 177.60 243.60 180.10 243.45 182.79 C 242.68 189.19 244.03 195.56 244.03 201.97 C 244.68 200.80 245.68 199.60 245.24 198.16 C 244.96 193.33 245.14 188.50 245.13 183.67 C 249.92 187.82 244.56 196.17 249.86 200.13 C 250.00 185.02 245.03 170.05 247.36 154.88 C 247.47 153.59 248.43 151.17 250.17 152.43 C 250.51 169.99 252.72 187.41 254.06 204.90 C 250.71 207.31 245.45 205.78 245.85 200.98 C 245.35 202.20 244.21 203.38 244.81 204.81 C 246.10 212.85 247.73 220.84 248.68 228.94 C 249.97 241.07 258.24 251.77 256.99 264.30 C 253.12 263.41 252.18 259.14 251.29 255.86 C 250.14 251.83 249.82 247.13 246.60 244.09 C 247.87 250.90 250.28 257.43 253.19 263.69 C 254.11 266.32 256.98 271.31 253.04 272.60 C 249.40 263.17 245.11 253.87 242.96 243.96 C 244.32 243.03 246.36 242.78 247.01 241.06 C 248.00 235.97 245.38 230.87 246.88 225.80 C 245.90 226.54 244.93 227.27 243.94 228.00 C 243.64 231.43 244.49 234.77 244.92 238.14 C 245.03 240.70 241.95 239.89 240.42 239.68 C 238.91 248.95 238.13 258.64 241.32 267.67 C 242.87 270.76 241.18 273.99 240.74 277.12 C 241.49 276.95 242.99 276.59 243.74 276.41 C 244.48 282.34 250.13 286.83 248.94 293.12 C 243.47 291.80 243.92 284.70 239.29 282.36 C 243.17 287.83 245.83 294.24 245.87 301.03 C 245.91 313.69 240.63 325.46 237.66 337.56 C 226.19 332.86 214.18 328.96 204.00 321.68 C 201.44 298.54 191.75 276.88 179.84 257.11 C 181.69 252.85 188.57 252.20 188.14 246.94 C 186.65 246.11 184.74 245.80 183.55 247.30 C 182.30 249.47 181.78 252.08 179.86 253.83 C 178.47 253.10 176.80 252.56 176.15 250.98 C 171.90 243.15 167.00 235.67 162.81 227.81 C 161.95 222.38 171.47 224.34 170.30 218.71 C 166.36 218.81 163.86 222.23 160.65 224.02 C 157.51 216.61 153.11 209.85 149.19 202.87 C 146.47 192.96 143.37 182.85 136.69 174.81 C 159.29 184.27 185.11 176.47 207.56 186.42 C 214.49 189.26 221.99 190.23 229.20 192.13 C 230.83 192.30 230.54 190.00 230.78 189.02 C 230.54 182.18 224.14 178.18 221.73 172.26 C 214.78 156.07 204.83 141.46 195.82 126.40 C 193.38 122.59 190.87 118.62 190.36 114.01 C 190.10 110.53 196.27 111.62 194.93 108.11 C 192.84 107.61 190.71 107.99 188.63 108.30 C 188.60 94.90 193.48 80.79 204.22 72.26 M 238.40 223.06 C 238.45 218.69 240.84 214.83 241.09 210.50 C 237.35 213.37 236.44 218.91 238.40 223.06 M 240.09 226.27 C 238.25 229.61 237.90 234.64 240.82 237.46 C 241.55 235.51 241.09 233.68 239.96 232.02 C 241.02 229.66 242.24 227.38 243.55 225.16 C 242.39 225.53 241.24 225.90 240.09 226.27 M 231.80 266.40 C 234.74 265.83 233.99 262.19 234.79 260.01 C 231.95 260.33 232.41 264.33 231.80 266.40 M 232.94 272.99 C 233.32 273.12 234.07 273.39 234.45 273.53 C 234.35 271.62 234.08 269.72 233.56 267.88 C 232.58 269.43 232.62 271.23 232.94 272.99 Z" />
<path fill="#ff00ff" opacity="1.00" d=" M 238.70 74.76 C 242.19 74.85 243.49 78.62 244.14 81.45 C 241.64 79.93 238.77 78.05 238.70 74.76 Z" />
<path fill="#ff00ff" opacity="1.00" d=" M 232.44 78.12 C 233.67 76.72 235.58 77.88 237.06 78.02 C 237.72 83.42 233.64 87.70 232.18 92.64 L 230.65 92.77 C 229.77 90.45 232.09 88.39 232.69 86.19 C 230.63 88.12 229.03 90.66 226.31 91.76 C 225.76 86.51 228.67 81.54 232.44 78.12 Z" />
<path fill="#ff00ff" opacity="1.00" d=" M 247.39 78.97 C 253.34 81.30 256.20 87.75 258.98 93.07 C 253.11 90.42 250.45 84.21 247.39 78.97 Z" />
<path fill="#ff00ff" opacity="1.00" d=" M 239.18 82.83 C 241.43 81.85 244.39 84.54 243.71 87.02 C 243.17 90.26 241.97 93.35 241.14 96.52 C 238.98 96.26 236.70 95.28 236.22 92.93 C 235.86 89.36 237.26 85.78 239.18 82.83 Z" />
<path fill="#ff00ff" opacity="1.00" d=" M 246.32 89.85 C 247.61 90.27 249.94 90.34 250.01 92.13 C 249.04 94.82 246.94 96.98 246.28 99.82 C 248.36 98.43 250.08 96.57 252.15 95.18 C 253.84 94.19 255.10 95.98 255.41 97.43 C 256.45 101.87 257.71 106.30 258.10 110.86 C 258.71 109.71 259.26 108.53 259.80 107.34 C 260.43 107.89 262.08 107.80 261.76 108.99 C 261.90 110.86 259.58 110.76 258.29 110.76 C 263.56 135.25 265.71 160.29 266.68 185.28 C 259.94 182.14 266.18 172.99 261.30 168.49 C 258.21 147.11 257.95 125.44 254.44 104.11 C 253.21 113.03 254.63 122.00 254.96 130.94 C 256.34 147.67 258.91 164.30 260.25 181.04 C 258.36 183.65 256.51 186.57 256.84 189.95 C 257.12 200.28 264.19 209.39 262.94 219.96 C 260.86 218.54 259.07 216.21 256.24 216.71 C 256.35 214.48 256.51 212.25 256.65 210.01 C 256.26 213.40 255.59 216.74 254.63 220.01 C 253.08 220.22 251.20 220.60 250.16 219.09 C 250.19 214.99 252.10 211.18 253.10 207.25 C 254.40 206.95 255.27 207.47 255.72 208.81 C 256.65 203.19 255.12 197.60 255.09 191.98 C 254.01 178.58 252.53 165.22 251.72 151.80 C 250.56 140.22 251.12 128.56 251.09 116.95 C 249.19 114.64 248.76 111.76 249.87 108.98 C 247.19 105.68 244.24 102.28 243.43 97.96 C 242.85 94.92 244.70 92.22 246.32 89.85 Z" />
<path fill="#ff00ff" opacity="1.00" d=" M 223.10 98.64 C 222.22 96.92 224.55 97.05 225.57 96.67 C 227.13 98.51 228.83 102.10 231.80 100.72 C 232.32 99.26 231.05 97.89 230.80 96.51 C 235.43 96.97 239.44 100.15 242.26 103.69 C 243.23 104.45 242.56 106.56 241.15 105.87 C 234.99 104.07 227.31 104.31 223.10 98.64 Z" />
<path fill="#ff00ff" opacity="1.00" d=" M 262.60 114.84 C 264.79 115.87 265.81 118.22 266.48 120.40 C 267.81 125.61 267.44 131.08 268.85 136.28 C 263.14 130.80 264.03 122.03 262.60 114.84 Z" />
<path fill="#ff00ff" opacity="1.00" d=" M 263.41 199.05 C 261.21 195.08 255.97 190.56 259.45 185.82 C 263.86 188.36 267.10 194.59 263.41 199.05 Z" />
<path fill="#ff00ff" opacity="1.00" d=" M 115.01 202.78 C 112.97 201.83 114.15 199.09 115.91 198.59 C 118.16 198.74 119.92 200.65 120.25 202.82 C 118.50 202.85 116.74 202.99 115.01 202.78 Z" />
<path fill="#ff00ff" opacity="1.00" d=" M 119.49 207.06 C 121.68 207.25 125.28 206.06 124.35 210.30 L 125.62 209.26 L 125.78 207.07 C 127.69 207.53 129.99 208.09 130.71 210.18 C 131.80 213.70 131.12 217.40 130.90 220.99 C 130.99 224.20 127.08 227.18 124.08 225.57 C 120.46 223.73 118.00 219.89 117.36 215.94 C 118.37 212.21 123.51 213.52 125.49 210.64 C 122.97 213.51 117.12 210.00 119.49 207.06 Z" />
<path fill="#ff00ff" opacity="1.00" d=" M 108.27 217.98 C 107.71 214.43 107.35 209.88 110.83 207.67 C 115.14 212.37 114.34 219.34 117.66 224.55 C 118.96 226.83 122.00 227.48 122.90 230.06 C 120.48 230.14 116.92 230.06 116.62 226.88 C 111.95 226.62 109.28 222.05 108.27 217.98 Z" />
<path fill="#ff00ff" opacity="1.00" d=" M 258.78 219.73 C 260.50 220.14 262.55 221.05 262.91 222.99 C 263.15 225.06 262.98 227.15 262.87 229.23 C 259.45 227.33 258.58 223.35 258.78 219.73 Z" />
<path fill="#ff00ff" opacity="1.00" d=" M 251.22 220.92 C 253.45 221.70 255.69 223.44 255.88 225.99 C 256.57 230.75 255.68 236.15 258.95 240.15 C 257.34 240.08 255.44 240.16 254.62 238.47 C 251.69 233.13 252.26 226.75 251.22 220.92 Z" />
<path fill="#ff00ff" opacity="1.00" d=" M 258.95 232.65 C 261.42 233.47 262.87 236.77 260.77 238.74 C 259.20 237.08 258.63 234.90 258.95 232.65 Z" />
<path fill="#ff00ff" opacity="1.00" d=" M 257.03 242.13 C 258.39 241.75 259.75 241.37 261.12 241.00 C 263.07 243.75 260.92 247.02 258.11 247.97 C 257.23 246.14 256.91 244.14 257.03 242.13 Z" />
<path fill="#ff00ff" opacity="1.00" d=" M 240.04 248.85 C 241.74 250.32 242.51 252.48 243.55 254.41 C 247.80 262.76 251.77 271.52 252.71 280.95 C 253.38 282.82 251.20 283.27 250.09 284.04 C 246.40 282.06 245.81 277.80 245.43 274.07 C 243.28 265.76 239.49 257.63 240.04 248.85 Z" />
<path fill="#ff00ff" opacity="1.00" d=" M 162.74 289.64 C 163.69 287.62 166.23 287.51 168.16 287.57 C 168.29 290.87 165.94 293.27 163.46 295.03 C 161.35 294.11 161.71 291.28 162.74 289.64 Z" />
<path fill="#ff00ff" opacity="1.00" d=" M 171.35 289.94 C 173.90 291.01 173.19 294.05 172.55 296.12 C 171.11 295.21 170.85 293.47 170.28 292.01 C 170.55 291.49 171.09 290.46 171.35 289.94 Z" />
<path fill="#ff00ff" opacity="1.00" d=" M 158.95 301.93 C 158.63 296.53 165.09 296.81 168.80 296.61 C 168.28 300.84 162.80 303.76 158.95 301.93 Z" />
</g>
</svg>
