<?xml version="1.0" encoding="UTF-8" ?>
<!DOCTYPE svg PUBLIC "-//W3C//DTD SVG 1.1//EN" "http://www.w3.org/Graphics/SVG/1.1/DTD/svg11.dtd">
<svg width="512pt" height="512pt" viewBox="0 0 512 512" version="1.1" xmlns="http://www.w3.org/2000/svg">
<g id="#ffffffff">
<path fill="#ffffff" opacity="1.00" d=" M 74.89 0.00 L 438.01 0.00 C 454.06 0.76 469.91 6.37 482.52 16.40 C 500.40 30.14 511.31 52.18 512.00 74.67 L 512.00 436.49 C 511.64 452.37 506.42 468.13 496.89 480.87 C 483.39 499.47 461.08 511.01 438.18 512.00 L 73.95 512.00 C 58.61 511.24 43.48 506.09 31.16 496.86 C 12.04 483.00 0.45 459.85 0.00 436.31 L 0.00 75.21 C 0.62 52.33 11.72 29.91 30.01 16.06 C 42.79 6.11 58.75 0.66 74.89 0.00 M 116.24 156.25 C 114.89 156.95 114.28 158.35 113.63 159.64 C 102.75 181.26 94.07 203.96 87.07 227.13 C 75.73 265.01 69.11 304.45 69.13 344.04 C 76.40 355.73 87.02 365.06 98.40 372.64 C 118.41 385.66 142.36 391.62 166.07 392.02 C 173.66 383.65 181.40 375.42 188.97 367.05 C 173.68 362.15 158.99 354.80 146.91 344.10 C 141.70 339.37 136.71 334.24 133.19 328.10 C 145.75 339.58 161.19 347.60 177.27 352.90 C 196.44 359.69 216.62 363.19 236.86 364.72 C 263.36 366.56 290.17 364.90 316.11 359.09 C 339.82 353.61 363.47 344.71 381.90 328.34 C 368.73 347.88 347.49 360.96 324.98 367.03 C 332.08 375.31 338.98 383.75 346.09 392.02 C 371.93 391.61 398.13 384.45 419.05 368.91 C 428.25 361.94 437.05 353.89 442.93 343.88 C 442.87 293.25 432.29 242.92 414.28 195.70 C 409.13 182.57 403.80 169.41 396.96 157.06 C 370.55 138.61 339.39 125.91 307.03 124.02 C 305.34 125.43 303.59 126.78 301.81 128.07 C 326.97 134.59 351.16 144.95 373.22 158.70 C 378.45 162.18 383.89 165.50 388.30 170.04 C 374.51 160.23 358.89 153.10 342.61 148.57 C 327.39 143.89 311.66 141.08 295.87 139.20 C 260.95 135.36 225.39 136.69 191.00 143.93 C 167.96 148.89 145.41 156.98 125.41 169.60 C 130.17 165.23 135.34 161.34 140.66 157.67 C 161.28 144.10 184.36 134.60 208.09 128.01 C 207.04 126.67 205.98 125.33 204.92 124.00 C 173.06 125.92 142.39 138.29 116.24 156.25 Z" />
<path fill="#ffffff" opacity="1.00" d=" M 189.54 244.76 C 197.77 243.02 206.62 244.74 213.56 249.50 C 229.31 259.65 233.51 282.94 223.33 298.41 C 218.02 307.18 208.36 313.21 198.10 313.82 C 187.61 314.60 176.93 309.63 170.65 301.22 C 164.89 293.83 162.26 284.15 163.37 274.86 C 164.71 260.69 175.41 247.66 189.54 244.76 Z" />
<path fill="#ffffff" opacity="1.00" d=" M 305.55 244.76 C 313.51 243.10 322.09 244.61 328.91 249.08 C 345.38 259.12 349.76 283.34 338.94 299.03 C 333.58 307.48 324.09 313.23 314.08 313.82 C 303.60 314.59 292.94 309.63 286.66 301.23 C 280.91 293.86 278.27 284.20 279.37 274.92 C 280.68 260.73 291.39 247.65 305.55 244.76 Z" />
</g>
<g id="#ffffffff">
</g>
</svg>
