<?xml version="1.0" encoding="UTF-8" ?>
<!DOCTYPE svg PUBLIC "-//W3C//DTD SVG 1.1//EN" "http://www.w3.org/Graphics/SVG/1.1/DTD/svg11.dtd">
<svg width="880pt" height="880pt" viewBox="0 0 880 880" version="1.1" xmlns="http://www.w3.org/2000/svg">
<g id="#ffffffff">
<path fill="#ffffff" opacity="1.00" d=" M 128.36 0.00 L 751.58 0.00 C 787.87 0.91 823.36 17.54 847.18 44.94 C 866.90 67.10 878.29 96.09 880.00 125.64 L 880.00 750.72 C 879.36 787.26 862.73 823.15 835.12 847.12 C 812.27 867.43 782.16 879.11 751.63 880.00 L 128.43 880.00 C 92.42 879.07 57.13 862.72 33.36 835.63 C 12.35 812.24 0.42 781.11 0.00 749.70 L 0.00 131.27 C 0.13 95.49 15.48 60.08 41.76 35.76 C 64.97 13.74 96.41 0.91 128.36 0.00 M 255.33 173.25 C 249.05 176.32 244.45 182.28 242.54 188.96 C 211.88 283.45 181.32 377.98 150.48 472.42 C 145.65 486.55 151.20 503.15 163.47 511.62 C 252.81 576.61 342.19 641.52 431.58 706.44 C 436.37 710.26 443.60 710.29 448.42 706.51 C 537.82 641.57 627.24 576.66 716.60 511.66 C 728.84 503.22 734.44 486.65 729.67 472.53 C 699.00 378.03 668.29 283.53 637.61 189.03 C 635.86 183.32 632.48 177.90 627.32 174.70 C 617.89 168.23 603.85 169.69 596.19 178.26 C 591.26 183.31 589.88 190.47 587.70 196.93 C 569.21 253.74 550.82 310.57 532.30 367.37 C 470.82 367.38 409.34 367.38 347.86 367.37 C 328.86 308.73 309.72 250.14 290.67 191.52 C 289.20 186.47 287.23 181.34 283.33 177.66 C 276.26 170.33 264.33 168.62 255.33 173.25 Z" />
<path fill="#ffffff" opacity="1.00" d=" M 613.85 205.10 C 631.69 259.12 648.97 313.33 666.71 367.38 C 631.54 367.36 596.37 367.41 561.19 367.35 C 578.74 313.26 596.38 259.21 613.85 205.10 Z" />
<path fill="#ffffff" opacity="1.00" d=" M 213.56 367.36 C 231.15 313.26 248.53 259.10 266.26 205.05 C 282.48 255.34 298.97 305.55 315.26 355.82 C 316.43 359.71 317.92 363.50 318.89 367.46 C 283.78 367.25 248.67 367.46 213.56 367.36 Z" />
<path fill="#ffffff" opacity="1.00" d=" M 222.84 394.77 C 257.89 394.73 292.95 394.75 328.00 394.76 C 352.81 471.65 377.86 548.47 402.79 625.32 C 380.43 597.25 358.61 568.76 336.46 540.53 C 298.60 491.93 260.62 443.42 222.84 394.77 Z" />
<path fill="#ffffff" opacity="1.00" d=" M 356.82 394.77 C 412.35 394.72 467.89 394.77 523.43 394.74 C 496.65 477.16 469.83 559.56 443.06 641.99 C 442.10 645.02 441.11 648.05 439.99 651.03 C 412.27 565.61 384.50 480.20 356.82 394.77 Z" />
<path fill="#ffffff" opacity="1.00" d=" M 517.55 501.63 C 529.25 466.00 540.53 430.22 552.49 394.68 C 587.47 394.86 622.46 394.67 657.45 394.78 C 597.29 471.81 537.19 548.88 477.04 625.92 C 490.72 584.54 504.03 543.05 517.55 501.63 Z" />
<path fill="#ffffff" opacity="1.00" d=" M 511.05 627.05 C 567.44 554.58 624.06 482.29 680.47 409.84 C 688.14 433.61 695.92 457.35 703.58 481.12 C 704.68 484.54 702.85 488.04 699.94 489.86 C 636.98 535.60 574.05 581.37 511.05 627.05 Z" />
<path fill="#ffffff" opacity="1.00" d=" M 176.67 480.71 C 184.33 457.10 192.03 433.49 199.74 409.90 C 248.60 472.49 297.42 535.12 346.26 597.73 C 353.82 607.50 361.55 617.14 368.96 627.03 C 305.81 581.18 242.70 535.27 179.55 489.42 C 176.70 487.60 175.57 483.86 176.67 480.71 Z" />
</g>
<g id="#ffffffff">
</g>
</svg>
