<?xml version="1.0" encoding="UTF-8" ?>
<!DOCTYPE svg PUBLIC "-//W3C//DTD SVG 1.1//EN" "http://www.w3.org/Graphics/SVG/1.1/DTD/svg11.dtd">
<svg width="217pt" height="233pt" viewBox="0 0 217 233" version="1.1" xmlns="http://www.w3.org/2000/svg">
<g id="#ffffffff">
</g>
<g id="#3088d4ff">
<path fill="#fff" opacity="1.00" d=" M 63.79 3.32 C 90.01 -0.32 116.68 -0.53 143.01 2.04 C 157.08 3.62 171.38 5.76 184.40 11.59 C 191.78 15.48 197.94 21.45 202.83 28.16 C 212.86 41.68 216.52 58.74 217.00 75.29 L 217.00 87.66 C 216.09 105.21 215.61 122.87 212.20 140.16 C 210.37 148.10 204.61 154.44 198.48 159.49 C 186.88 168.82 172.62 174.59 157.98 176.99 C 137.83 179.84 117.36 181.48 97.04 179.44 C 85.21 178.30 73.40 176.68 61.81 173.97 C 61.88 181.90 63.23 190.30 68.27 196.70 C 73.45 203.33 81.81 206.42 89.87 207.73 C 109.53 210.68 129.79 209.53 148.92 204.10 C 149.06 210.46 149.33 216.82 149.73 223.17 C 140.54 227.49 130.56 229.89 120.55 231.36 C 103.06 233.67 85.21 232.96 67.90 229.62 C 57.44 227.53 46.77 225.10 37.63 219.36 C 24.85 211.67 15.89 198.86 10.70 185.08 C 1.75 161.68 0.96 136.31 0.00 111.58 L 0.00 71.37 C 0.78 64.14 1.45 56.85 3.63 49.88 C 8.08 34.44 17.78 19.99 31.93 11.95 C 41.92 7.19 52.91 4.96 63.79 3.32 M 47.24 52.33 C 41.20 60.18 38.91 70.32 39.00 80.08 C 39.04 100.62 38.92 121.16 39.07 141.71 C 47.04 141.60 55.03 141.55 63.00 141.74 C 63.56 125.16 63.08 108.55 63.24 91.96 C 63.45 85.30 62.43 78.36 64.91 72.00 C 66.49 67.69 70.51 64.43 75.06 63.81 C 80.14 63.08 85.88 63.48 89.98 66.90 C 94.57 70.86 96.07 77.21 96.28 83.03 C 96.64 94.83 96.12 106.65 96.54 118.44 C 104.52 118.29 112.50 118.30 120.48 118.44 C 120.85 106.34 120.38 94.22 120.71 82.11 C 120.97 75.06 124.01 66.87 131.31 64.48 C 137.07 62.87 144.22 62.80 148.84 67.16 C 152.58 70.70 153.47 76.09 153.69 81.01 C 153.99 101.25 153.43 121.51 153.97 141.74 C 161.93 141.57 169.90 141.55 177.86 141.75 C 178.17 125.85 177.92 109.94 178.00 94.04 C 177.84 83.31 178.95 72.17 174.99 61.93 C 171.35 51.49 162.35 42.95 151.47 40.56 C 141.05 38.35 129.19 39.67 120.81 46.72 C 115.19 51.22 112.21 57.94 108.57 63.97 C 104.86 58.28 102.09 51.79 96.81 47.30 C 89.38 40.53 78.69 38.70 68.99 39.95 C 60.46 40.92 52.41 45.48 47.24 52.33 Z" />
</g>
</svg>
