<svg xmlns="http://www.w3.org/2000/svg" width="234pt" height="233pt" viewBox="0 0 234 233" version="1.1">
<g id="#ffffffff">
<path fill="#3f3d56" opacity="1.00" d=" M 0.00 0.00 L 234.00 0.00 L 234.00 233.00 L 0.00 233.00 L 0.00 0.00 M 80.43 42.58 C 70.02 42.66 60.42 51.46 60.01 61.96 C 59.97 97.00 60.02 132.05 59.99 167.09 C 59.93 173.77 63.57 180.20 69.04 183.95 C 75.63 188.51 84.86 188.78 91.75 184.71 C 97.87 181.12 102.08 174.27 102.01 167.11 C 102.01 160.24 101.98 153.38 102.00 146.51 C 105.95 146.50 109.91 146.45 113.86 146.59 C 121.18 157.12 128.55 167.61 135.91 178.11 C 139.68 183.68 146.25 187.23 153.01 187.04 C 162.02 187.21 170.71 180.71 172.92 171.94 C 174.69 165.96 173.37 159.27 169.75 154.24 C 165.12 147.56 160.44 140.92 155.78 134.26 C 167.28 124.31 174.51 109.32 174.02 94.00 C 173.77 91.31 174.58 88.19 172.78 85.89 C 172.73 90.44 173.32 95.00 172.84 99.54 C 171.58 112.52 165.01 124.75 155.20 133.29 C 149.47 125.47 144.11 117.39 138.43 109.53 C 131.98 100.83 118.29 99.08 109.78 105.74 C 102.14 111.19 99.28 122.19 103.21 130.70 C 105.88 136.00 109.84 140.53 113.06 145.49 C 109.04 145.50 105.02 145.50 101.01 145.49 C 100.98 152.69 101.02 159.89 101.01 167.09 C 101.01 174.23 96.59 181.06 90.27 184.29 C 84.62 187.31 77.48 187.35 71.82 184.31 C 65.42 181.16 61.06 174.24 61.00 167.10 C 61.00 134.69 61.00 102.28 61.00 69.87 C 62.34 73.02 63.91 76.18 66.45 78.55 C 73.44 85.50 85.50 86.29 93.32 80.27 C 101.58 74.33 104.02 61.95 98.74 53.27 C 96.23 48.65 91.66 45.75 87.03 43.58 C 98.34 43.43 109.66 43.53 120.98 43.52 C 131.19 43.52 141.43 46.31 149.97 51.98 C 161.74 59.78 170.56 72.55 172.27 86.71 C 173.94 84.31 172.38 81.56 171.79 79.06 C 167.14 63.90 155.11 51.27 140.23 45.84 C 133.18 43.12 125.55 42.39 118.05 42.49 C 105.51 42.57 92.97 42.38 80.43 42.58 Z"/>
</g>
<g id="#000000ff">
<path fill="#fff" opacity="1.00" d=" M 80.43 42.58 C 92.97 42.38 105.51 42.57 118.05 42.49 C 125.55 42.39 133.18 43.12 140.23 45.84 C 155.11 51.27 167.14 63.90 171.79 79.06 C 172.38 81.56 173.94 84.31 172.27 86.71 C 170.56 72.55 161.74 59.78 149.97 51.98 C 141.43 46.31 131.19 43.52 120.98 43.52 C 109.66 43.53 98.34 43.43 87.03 43.58 C 91.66 45.75 96.23 48.65 98.74 53.27 C 104.02 61.95 101.58 74.33 93.32 80.27 C 85.50 86.29 73.44 85.50 66.45 78.55 C 63.91 76.18 62.34 73.02 61.00 69.87 C 61.00 102.28 61.00 134.69 61.00 167.10 C 61.06 174.24 65.42 181.16 71.82 184.31 C 77.48 187.35 84.62 187.31 90.27 184.29 C 96.59 181.06 101.01 174.23 101.01 167.09 C 101.02 159.89 100.98 152.69 101.01 145.49 C 105.02 145.50 109.04 145.50 113.06 145.49 C 109.84 140.53 105.88 136.00 103.21 130.70 C 99.28 122.19 102.14 111.19 109.78 105.74 C 118.29 99.08 131.98 100.83 138.43 109.53 C 144.11 117.39 149.47 125.47 155.20 133.29 C 165.01 124.75 171.58 112.52 172.84 99.54 C 173.32 95.00 172.73 90.44 172.78 85.89 C 174.58 88.19 173.77 91.31 174.02 94.00 C 174.51 109.32 167.28 124.31 155.78 134.26 C 160.44 140.92 165.12 147.56 169.75 154.24 C 173.37 159.27 174.69 165.96 172.92 171.94 C 170.71 180.71 162.02 187.21 153.01 187.04 C 146.25 187.23 139.68 183.68 135.91 178.11 C 128.55 167.61 121.18 157.12 113.86 146.59 C 109.91 146.45 105.95 146.50 102.00 146.51 C 101.98 153.38 102.01 160.24 102.01 167.11 C 102.08 174.27 97.87 181.12 91.75 184.71 C 84.86 188.78 75.63 188.51 69.04 183.95 C 63.57 180.20 59.93 173.77 59.99 167.09 C 60.02 132.05 59.97 97.00 60.01 61.96 C 60.42 51.46 70.02 42.66 80.43 42.58 Z"/>
</g>
</svg>