<?xml version="1.0" encoding="UTF-8" standalone="no"?>
<svg
   width="215.89pt"
   height="354.12418pt"
   viewBox="0 0 215.89 354.12418"
   version="1.1"
   id="svg1438"
   sodipodi:docname="sample_comicscover (copy).svg"
   inkscape:version="1.2.2 (b0a8486541, 2022-12-01)"
   xmlns:inkscape="http://www.inkscape.org/namespaces/inkscape"
   xmlns:sodipodi="http://sodipodi.sourceforge.net/DTD/sodipodi-0.dtd"
   xmlns="http://www.w3.org/2000/svg"
   xmlns:svg="http://www.w3.org/2000/svg">
  <defs
     id="defs1442" />
  <sodipodi:namedview
     id="namedview1440"
     pagecolor="#ffffff"
     bordercolor="#666666"
     borderopacity="1.0"
     inkscape:showpageshadow="2"
     inkscape:pageopacity="0.0"
     inkscape:pagecheckerboard="0"
     inkscape:deskcolor="#d1d1d1"
     inkscape:document-units="pt"
     showgrid="false"
     inkscape:zoom="0.51202861"
     inkscape:cx="-231.43238"
     inkscape:cy="318.34159"
     inkscape:window-width="1366"
     inkscape:window-height="691"
     inkscape:window-x="0"
     inkscape:window-y="0"
     inkscape:window-maximized="1"
     inkscape:current-layer="svg1438" />
  <path
     fill="#000000"
     opacity="1"
     d="m 139.86,0 c 3.77,1.66 0.64,7.86 5.08,8.63 -0.45,0.77 -0.92,1.52 -1.41,2.27 0.47,0.48 0.95,0.96 1.43,1.44 0.81,-1.45 1.19,-4.73 3.74,-3.43 0.57,0.32 1.7,0.95 2.26,1.27 -1.74,2.45 -4.35,3.87 -7.36,3.91 -1.41,3.34 -0.13,7.03 -1.12,10.44 -0.46,0.1 -1.37,0.3 -1.83,0.4 -1.27,-2.45 -1.85,-5.38 -3.96,-7.3 -2.49,-2.16 -6.58,-1.08 -8.58,-3.94 2.37,-0.47 5.13,0.06 7.22,-1.38 1.85,-3.97 2.54,-8.39 4.53,-12.31 m 0.1,6.8 c 0.57,0.59 0.57,0.59 0,0 m -2.25,6.81 c -0.01,2.35 1.42,4.3 2.88,6 0.57,-2.7 1.21,-5.44 0.97,-8.21 -1.63,-1.46 -3.43,0.62 -3.85,2.21 z"
     id="path163" />
  <path
     fill="#000000"
     opacity="1"
     d="m 91.97,10.35 c 0.7,-1.77 1.5,-3.5 2.5,-5.12 1.86,2.22 1.65,5.28 2.89,7.74 2.11,0.95 4.46,1.2 6.69,1.78 -0.23,2.73 -2.76,3.96 -4.41,5.77 -1.13,3.06 -1.54,6.38 -3.11,9.3 -1.84,-1.51 -2.98,-3.61 -3.44,-5.94 1.04,0.65 2.05,1.35 3.05,2.09 1.96,-1.92 0.77,-4.46 0.16,-6.66 1.42,-0.81 3.66,-0.98 4.29,-2.69 -0.28,-1.93 -2.9,-0.94 -4.21,-1.41 -0.77,-1.63 -1.34,-3.34 -2.01,-5 l -0.54,1.92 C 93.2,11.54 92.58,10.94 91.97,10.35 Z"
     id="path167" />
  <path
     fill="#000000"
     opacity="1"
     d="m 168.88,20.92 c 3.25,-4.73 5.48,-10.26 10.04,-13.96 1.99,2.96 2.73,6.48 3.7,9.86 4.67,-0.51 9.39,-3.61 14.01,-2.42 0.83,5.34 0.23,11.05 -2.19,15.93 -3.65,6.64 -11.08,9.7 -15.94,15.23 -0.24,1.36 0.07,2.75 0.24,4.11 2.02,12.42 4.47,24.77 6.78,37.14 -0.04,1.25 1.13,3.93 -1.01,3.94 -6.59,1.13 -12.72,4.12 -19.45,4.54 5.23,17.27 1.05,35.34 -2.79,52.41 -2.71,9.71 -7.18,18.8 -10.44,28.32 10.61,0.45 18.11,-8.52 22.99,-16.82 -1.37,-5.57 -2.36,-11.68 0.5,-16.98 1.01,-3.08 4.59,-3.62 7.37,-3.93 2.22,-0.3 5.23,0.7 5.26,3.36 -0.28,3.39 -3.21,5.74 -4.24,8.87 0.58,2.48 3.61,5.08 1.58,7.58 -1.62,2.44 -4.78,2.5 -7.37,2.9 -6.29,5.34 -9.79,14.36 -18.3,16.71 -3.6,1.35 -8.76,-0.05 -10.94,3.83 -5.33,9.28 -10.22,18.83 -14.32,28.71 -1.01,2.69 -3.66,5.08 -3.44,8.04 3.93,2.69 8.74,3.76 12.71,6.43 3.82,2.27 7.03,6.26 6.96,10.89 -0.66,2.36 -2.93,3.86 -4.17,5.93 2.18,2.82 5.34,4.67 7.66,7.37 8.74,9.5 14.94,20.99 23.6,30.57 -0.41,4.93 3.78,8.34 5.33,12.7 2.47,5.42 -1.56,10.89 -1.04,16.43 -0.64,1.2 -1.27,2.4 -1.9,3.61 -0.78,-0.17 -2.36,-0.5 -3.14,-0.67 -3.05,1.67 -6.03,3.46 -8.8,5.57 -2.18,0.25 -4.63,0.01 -6.28,1.72 -2.74,2.66 -6.59,3.26 -10.19,3.95 1.56,0.21 3.1,0.43 4.66,0.71 -0.94,1 -1.9,2.02 -3.18,2.59 -4.38,2.19 -8.45,4.94 -12.85,7.1 -3.41,2.51 -6.71,5.2 -10.6,6.97 -3.41,0.8 -6.93,1.57 -9.87,3.58 -2.49,1.56 -5.07,2.97 -7.7,4.27 -0.02,0.75 -0.07,2.25 -0.09,3 -2.29,0.62 -7.63,6.43 -6.5,0.4 l -0.5,0.05 c 0.09,-1.42 0.16,-2.84 0.25,-4.24 0.28,-3.02 0.29,-6.08 -0.32,-9.05 -1.1,-4.88 -0.86,-9.9 -1.29,-14.84 0.21,-2.06 0.47,-4.26 -1.56,-5.49 0.43,-0.5 0.88,-0.99 1.33,-1.47 -0.29,-0.83 -0.58,-1.66 -0.86,-2.49 0.66,-2.31 0.38,-4.71 -0.08,-7.02 0.51,-2.87 0.3,-5.84 -2.67,-7.19 0.03,-0.28 0.08,-0.86 0.11,-1.14 0.62,-0.52 1.25,-1.02 1.89,-1.51 -0.79,0.13 -2.39,0.38 -3.18,0.51 0.58,-1.55 1.79,-2.62 3.05,-3.6 -0.62,0.33 -1.86,0.98 -2.48,1.31 -0.01,-0.63 -0.04,-1.9 -0.06,-2.53 0.6,-0.16 1.81,-0.49 2.41,-0.65 -0.4,-1.95 -0.83,-3.89 -1.38,-5.79 -0.11,-0.24 -0.32,-0.72 -0.42,-0.96 -0.16,-0.35 -0.48,-1.06 -0.63,-1.41 0.09,-0.45 0.29,-1.36 0.39,-1.81 0.61,-0.03 1.84,-0.09 2.45,-0.12 0.03,0.4 0.1,1.19 0.13,1.58 0.11,0.25 0.33,0.73 0.44,0.98 0.49,1.03 0.98,2.06 1.47,3.1 -0.25,0.75 -0.51,1.52 -0.68,2.3 1.15,0.52 2.32,1.01 3.51,1.47 -0.59,-2.57 -0.86,-5.2 -0.62,-7.83 2.58,2.47 5.08,5.03 7.77,7.39 1.15,-0.43 2.3,-0.85 3.46,-1.26 -3.59,-2.35 -6.46,-5.56 -9.63,-8.41 0.62,-1.62 1.23,-3.23 1.83,-4.85 0.14,-0.36 0.42,-1.08 0.55,-1.44 0.55,-0.23 1.63,-0.69 2.18,-0.92 0.72,1.17 1.47,2.38 2.21,3.55 -0.59,-1.41 -1.19,-2.81 -1.8,-4.2 1.6,-2.29 3.32,-4.51 5.41,-6.37 1.93,1.69 0.21,3.95 -0.54,5.75 0.36,0.44 1.07,1.33 1.43,1.78 0.1,0.17 0.29,0.51 0.38,0.68 -0.32,0.66 -0.97,1.98 -1.29,2.63 -1.25,0.35 -2.48,0.7 -3.71,1.06 1.76,1.73 3.54,3.49 5.66,4.8 0.64,0.24 1.91,0.72 2.54,0.97 1.59,0.6 3.19,1.27 4.55,2.32 0.44,0.83 0.88,1.66 1.31,2.51 -0.45,0.21 -1.36,0.63 -1.81,0.84 -1.27,-0.53 -2.54,-1.06 -3.79,-1.6 -0.61,-0.38 -1.22,-0.74 -1.83,-1.1 -0.01,0.61 -0.02,1.82 -0.03,2.43 0.77,0.12 2.31,0.36 3.08,0.48 1.2,1.62 3,2.59 5,1.72 2.38,1.59 5.07,2.59 7.92,2.91 1.81,1.35 3.79,2.46 5.87,3.36 0.45,-0.65 1.37,-1.95 1.83,-2.6 2.12,-0.46 2.67,1.76 3.63,3.13 3.02,0.54 6.07,0.93 9.12,1.3 2.03,1 4.14,1.82 6.3,2.52 1.52,0.55 3.06,1.09 4.62,1.57 2.73,0.85 6.45,1.85 7.53,-1.77 1.74,1.23 3.56,2.33 5.4,3.4 -3.65,-6.06 -8.92,-10.91 -13.22,-16.49 -0.29,-0.33 -0.86,-1 -1.15,-1.34 l -0.21,-0.3 c -2.59,-3.85 -5.89,-7.15 -8.9,-10.67 -0.29,-0.21 -0.86,-0.64 -1.15,-0.86 -1.92,-1.76 -3.49,-3.84 -5.04,-5.91 -3.87,-6.43 -9.86,-11.24 -13.66,-17.71 -0.74,-1.6 -2.18,-2.67 -3.57,-3.65 -0.08,-0.1 -0.23,-0.3 -0.31,-0.41 l -0.29,-0.39 c -0.61,-0.07 -1.85,-0.19 -2.46,-0.26 -0.67,-1.31 -1.17,-2.69 -1.61,-4.08 -2.66,-3.54 -5.05,-7.33 -8.37,-10.3 h -0.01 c -0.76,-1.49 -1.75,-2.82 -2.8,-4.1 -0.82,-1.03 -1.68,-2.02 -2.51,-3.02 -0.34,-0.41 -1.01,-1.22 -1.35,-1.63 -4.22,-5.69 -9.53,-10.47 -13.48,-16.36 -1.86,-2.3 -4.19,-4.41 -4.77,-7.44 2.94,2.23 5.42,4.99 8.12,7.5 1.72,-1.27 3.67,-2.12 5.82,-2.32 0.18,0.71 0.55,2.13 0.74,2.84 -1.33,-0.31 -2.66,-0.6 -3.99,-0.87 0.61,1.8 1.53,3.49 3.02,4.73 0.24,-0.96 0.73,-2.9 0.97,-3.86 0.93,6.33 6.18,11.83 12.81,11.84 -1.01,-4.68 -1.6,-9.45 -2.87,-14.07 -2.92,-10.81 -11.3,-19.21 -13.39,-30.34 -2.06,1.03 -4,2.31 -5.48,4.11 l -0.19,0.19 -0.22,0.15 c -6.71,4.58 -15.67,7.58 -23.44,3.81 -4.24,-2.11 -11.03,-2.58 -11.65,-8.43 -0.81,-3.17 2.67,-4.11 4.81,-5.26 l 0.16,-0.26 c 0.22,-2.93 1.1,-5.75 2.96,-8.06 3.53,2.96 6.63,6.69 7.4,11.38 -0.33,0.31 -0.99,0.93 -1.32,1.24 -0.08,-0.76 -0.25,-2.3 -0.33,-3.07 -3.27,0.19 -6.38,1.58 -7.38,4.94 -0.19,-0.99 -0.37,-1.99 -0.54,-2.97 -1.41,-0.03 -2.82,-0.06 -4.22,-0.08 0.14,1.32 0.34,2.64 0.61,3.96 1.07,1.56 3.06,2.03 4.65,2.91 0.04,-0.65 0.14,-1.95 0.18,-2.61 1.19,0.72 2.22,2.09 3.73,2.03 0.9,-0.96 1.67,-2.02 2.41,-3.1 -0.08,1.9 -1.25,4.17 -0.11,5.9 9.33,2.75 19.25,-1.34 25.66,-8.22 1.11,-1.31 0.29,-3.07 -0.14,-4.47 -2.48,-6.35 -6.36,-12.11 -8.31,-18.68 -1.06,-3.38 -0.51,-6.94 -0.18,-10.38 0.83,-7.11 1.97,-14.33 5.06,-20.85 2.78,-5.72 8.17,-9.43 13.15,-13.1 3.14,-2.54 8.63,-2.16 9.57,-6.9 -4.25,-0.55 -8.57,-0.14 -12.82,-0.71 -1.81,-0.38 -4.1,-0.66 -5.04,-2.49 -2.94,-5.33 -2.86,-11.6 -3.85,-17.45 -0.54,-3.69 -2.35,-7.04 -2.89,-10.72 -0.29,-3.34 0.6,-6.62 0.96,-9.92 0.64,-4.51 0.68,-9.2 2.39,-13.48 0.5,-1.25 2.08,-1.42 3.15,-1.96 8.85,-3.02 18.3,-3.32 27.36,-5.4 10.86,-1.67 21.34,-5.87 32.46,-5.62 0.61,-4.08 0.1,-8.64 2.57,-12.19 m 0.3,16.76 c -0.11,3 -0.41,5.99 -0.29,9 4.12,0.51 5.57,-3.99 8.98,-5.2 5.16,-2.12 7.7,-7.57 12.41,-10.36 4.51,-2.83 3.81,-8.83 3.64,-13.4 -4.32,0.06 -8.17,2.38 -12.48,2.52 -1.76,-2.28 -0.76,-6.59 -3.75,-7.58 -6.51,6.3 -8.95,16.16 -8.51,25.02 m -26,2.18 c -4.07,0.93 -8.27,1.09 -12.3,2.22 -7.15,1.84 -14.73,1.58 -21.72,4.12 -1.28,0.55 -2.96,0.9 -3.36,2.45 -2.68,6.54 -3.68,13.88 -2.34,20.86 2.27,8.84 0.9,18.54 5.3,26.83 6.15,1.52 12.71,1.86 18.94,0.5 10.86,0.02 21.54,-2.5 32.06,-5 4.2,-0.66 8.66,0.15 12.7,-1.49 3.08,-1.24 6.17,-2.52 9.47,-3.11 -0.79,-13.08 -4.83,-25.67 -6.2,-38.67 -2.98,-0.19 -5.65,2.36 -8.57,1.48 -3.53,-3.63 2.09,-10.63 -2.45,-13.52 -7.31,-0.16 -14.44,1.76 -21.53,3.33 m 12.07,56.1 c -9.02,2.36 -18.3,3.41 -27.5,4.75 -2.78,4.28 -4.81,9.05 -5.7,14.1 -2.18,13.91 1.93,27.74 6.89,40.6 1.32,4.78 4.77,8.5 6.65,13.03 -5.63,0.95 -10.61,-2.08 -15.59,-4.17 -5.9,-2.69 -11.15,-7.1 -17.69,-8.14 -0.11,7.59 5.72,13.28 7.33,20.43 3.35,12.89 13.03,23.19 15.56,36.37 0.53,1.55 0.15,4.17 2.49,4.06 2.31,-2.44 3.39,-5.71 4.68,-8.74 3.4,-9.08 8.39,-17.42 12.9,-25.96 0.83,-1.33 0.55,-2.88 0.5,-4.34 -1.91,-0.48 -3.79,-1.1 -5.42,-2.21 2.77,-0.17 5.55,-0.1 8.34,0 2.89,-5.98 4.72,-12.43 7.91,-18.27 2.66,-4.66 3.27,-10.08 4.7,-15.17 3.65,-15.26 5.75,-31.55 1.41,-46.9 -2.5,-0.02 -5.03,-0.06 -7.46,0.56 m -45.73,20.46 c -0.64,2.43 -1.24,4.88 -2.07,7.26 -0.74,5.35 1.45,10.62 4.24,15.08 2.19,3.43 3.68,7.31 6.37,10.4 3.62,4.3 6.4,9.52 11.24,12.63 -5.31,-12.43 -10.62,-25.44 -10.26,-39.21 0,-4.75 1.43,-9.3 2.09,-13.96 -4.15,2.03 -9.05,3.69 -11.61,7.8 m -6.12,7.95 c -3.66,8.26 -4.37,17.45 -4.3,26.38 9.02,4.59 17.86,9.9 27.47,13.33 -2.29,-3.13 -4.72,-6.15 -7.2,-9.13 -7.42,-8.88 -13.5,-19.17 -15.97,-30.58 m 80.45,17.5 c -1.07,0.91 -0.01,3.53 1.43,2.49 1.06,-0.91 -0.04,-3.47 -1.43,-2.49 m -7.39,13.17 c 2.42,0.61 2.6,-1.87 3.13,-3.55 0.69,-3.08 1.66,-6.76 -0.52,-9.49 -2.79,3.65 -4.2,8.58 -2.61,13.04 m 5.33,-1.53 c -1.56,0.86 -1.49,2.83 -1.34,4.35 2.93,1.36 4.91,-4.77 1.34,-4.35 M 74.04,166.93 c -0.96,0.79 -1.19,3.18 0.4,3.36 2.07,-0.17 1.83,-4.6 -0.4,-3.36 m 52.61,55.57 c -1.13,0.8 -3.33,2.46 -1.4,3.72 5.15,3.9 9.9,8.66 16.1,10.88 0.82,-3.12 1.56,-6.27 2.02,-9.45 -3.44,-1.88 -6.74,-4.08 -10.44,-5.41 -2.04,-0.7 -4.52,-1.42 -6.28,0.26 m 18.12,8.83 c -0.08,2.24 -0.15,4.47 -0.17,6.72 4.65,0.42 5.38,-8.08 0.17,-6.72 m -33.02,49.83 c -0.86,1.26 1.25,2.92 2.41,2.13 0.74,-1.25 -1.26,-2.88 -2.41,-2.13 m -11.64,2.26 c 0.59,0.6 0.59,0.6 0,0 m 8.86,7.31 c -1.67,3.42 0.09,7.01 1.29,10.26 0.29,0.1 0.86,0.31 1.15,0.41 2.63,-1.84 1.7,-5.33 1.85,-8.04 -1.44,-0.88 -2.86,-1.76 -4.29,-2.63 m -6.07,1.35 c -0.9,0.66 -0.91,3.15 0.53,2.99 0.88,-0.68 0.89,-3.16 -0.53,-2.99 m 15.09,-0.01 c -0.9,1.38 1.33,3.18 2.56,2.1 1.06,-1.38 -1.4,-3.05 -2.56,-2.1 m 4.02,2.65 c -1.17,1.47 1.48,2.92 2.5,1.64 1.19,-1.49 -1.5,-2.98 -2.5,-1.64 m -16.1,2.72 c 0.18,1.39 0.56,2.76 1.04,4.09 0.08,2.03 0.13,4.07 0.22,6.11 0.75,-1.13 1.53,-2.25 2.13,-3.46 -0.71,-2.43 -1.95,-4.68 -3.39,-6.74 m 12.64,4.2 c 0.39,0.14 1.16,0.42 1.55,0.55 -0.01,-0.52 -0.03,-1.56 -0.04,-2.08 -0.66,-0.76 -1.31,-1.5 -1.95,-2.24 0.14,1.25 0.29,2.51 0.44,3.77 m -3.51,0.25 c -1.37,0.42 -1.93,2.44 -1.07,3.56 1.92,1.11 3.11,-3.27 1.07,-3.56 m 19.25,1.08 c 0.01,1.21 0.02,2.42 0.04,3.65 0.82,-0.85 1.64,-1.71 2.45,-2.58 -0.83,-0.36 -1.66,-0.72 -2.49,-1.07 m 3.67,1.72 c 0.88,2.23 -0.09,6.27 2.73,7.02 0.88,1.69 1.77,3.37 2.66,5.06 2.8,-1.46 0.92,-4.97 0.86,-7.39 0.19,-0.45 0.56,-1.35 0.75,-1.8 -1.49,-0.17 -2.97,-0.3 -4.44,-0.43 -0.86,-0.83 -1.71,-1.65 -2.56,-2.46 m 26.01,1.2 c -1.11,1.93 3.18,3.08 3.51,1.06 -0.39,-1.37 -2.44,-2.01 -3.51,-1.06 m -41.11,0.72 c -1.31,0.77 -1.31,1.45 -0.01,2.03 1.31,-0.78 1.31,-1.46 0.01,-2.03 m 8.91,0.57 c -0.56,1.42 -0.13,1.86 1.31,1.34 0.54,-1.42 0.1,-1.86 -1.31,-1.34 m 27.22,-0.13 c -1.03,1.94 3.47,2.84 3.66,0.8 -0.52,-1.38 -2.6,-1.67 -3.66,-0.8 m -8.06,1.54 c -0.69,0.04 -2.7,1.43 -1.22,1.87 1.17,0.13 2.24,-0.12 3.24,-0.73 1.23,-1.19 -1.31,-1.68 -2.02,-1.14 m -35.48,8.43 c 2.16,-2.48 4.2,-5.05 6.28,-7.59 -3.35,0.61 -6.01,4.29 -6.28,7.59 m 33.06,-5.08 c 0.37,1.75 -0.18,4.09 1.39,5.27 2.05,-0.47 3.94,-2.42 6.12,-1.6 1.22,1.63 -1.42,2.09 -2.19,3.08 2.25,-0.94 4.85,-1.55 6.47,-3.52 -0.21,-1.06 -0.53,-2.1 -0.81,-3.13 -3.02,-0.02 -6.1,-0.06 -8.99,0.93 -0.5,-0.26 -1.49,-0.77 -1.99,-1.03 m -15.57,4.25 c -1.68,1.18 -3.17,2.58 -4.3,4.3 2.07,-0.67 4.21,-1.14 6.28,-1.85 2.68,-0.92 3.14,-5.18 0.78,-6.55 -1.81,0.61 -2.08,2.59 -2.76,4.1 m -25.41,9.13 c 2.55,-1.4 2.93,-4.43 3.36,-7 -2.13,1.73 -3.25,4.28 -3.36,7 m 4.02,-0.47 c 2.45,-1.45 3.56,-4.05 4.1,-6.73 -2.55,1.29 -3.69,4.04 -4.1,6.73 m 5.05,0.13 c 2.04,-1.39 3.7,-3.26 4.52,-5.62 -2.49,0.89 -4.04,3.08 -4.52,5.62 m 18.13,4.81 c 4.7,-2.08 7.93,-6.34 10.99,-10.3 -4.63,2.04 -8.22,6.14 -10.99,10.3 m -21.85,3.51 c 1.45,-0.16 2.92,-0.3 4.39,-0.46 0.4,-0.18 0.81,-0.35 1.23,-0.51 -2.3,0.22 -2.66,-2.09 -3.44,-3.69 -0.74,1.54 -1.47,3.09 -2.18,4.66 m -3.98,-2.33 c -1.16,0.77 -0.04,3.13 1.18,1.87 1.13,-0.8 0.04,-3.12 -1.18,-1.87 m 6.59,10.11 c 2.87,-0.46 3.73,-3.56 5.1,-5.68 -2.43,0.5 -5.89,3.18 -5.1,5.68 m -3.41,1.5 c -1.53,0.29 -1.16,2.8 0.47,1.91 1.58,-0.29 1.17,-2.87 -0.47,-1.91 z"
     id="path173" />
  <path
     fill="#000000"
     opacity="1"
     d="m 205.96,51.54 c 4.32,1.85 1.29,8.09 3.41,11.32 2.09,1.41 4.42,2.43 6.52,3.84 -1.43,3.68 -5.51,3.61 -8.69,4.48 -2.92,3.31 -2.21,8.52 -5.62,11.62 -1.95,-2.34 -1.53,-5.47 -1.46,-8.27 l 0.64,-0.11 c 0.37,0.69 1.12,2.08 1.5,2.77 1.76,-2.82 2.17,-6.16 2.97,-9.32 2.26,0.37 5.15,1.55 6.44,-1.16 -2.58,-0.88 -5.11,-1.98 -7.05,-3.95 0.69,-1.31 1.4,-2.61 2.05,-3.94 -2.91,-0.86 -3.25,2.8 -4.01,4.72 -1.15,2.9 -0.37,6.31 -2.04,8.98 -0.25,-0.06 -0.74,-0.18 -0.99,-0.24 -1.68,-3.37 -3.95,-6.39 -5.75,-9.69 2.02,-0.31 4.33,-0.31 5.96,-1.77 2.88,-2.46 4.02,-6.23 6.12,-9.28 z"
     id="path179" />
  <path
     fill="#000000"
     opacity="1"
     d="m 84.79,69.26 c 2.26,1.97 2.37,5.11 3.11,7.81 -0.77,-0.55 -2.3,-1.66 -3.07,-2.21 0.28,1.18 0.57,2.36 0.88,3.54 0.77,-0.19 1.55,-0.38 2.33,-0.55 1.57,1.64 3.89,0.76 5.85,0.82 0.09,2.89 -2.99,3.75 -4.76,5.38 -0.51,0.32 -1.51,0.95 -2.02,1.26 0.15,-1.87 0.23,-3.75 0.25,-5.62 -2.51,0.95 -5.09,4.42 -2.3,6.59 1.09,1.82 2.74,-0.55 3.82,-1.17 -0.23,2.98 0.02,5.98 0,8.98 -2.54,-2.07 -2.85,-5.67 -5.17,-7.89 -1.56,-1.11 -3.41,-1.73 -5.1,-2.59 1.33,-1.17 2.74,-2.25 4.18,-3.28 0.63,-3.69 0.72,-7.51 2,-11.07 z"
     id="path183" />
  <path
     fill="#000000"
     opacity="1"
     d="m 92.46,108.1 c -0.47,-3.76 0.55,-7.49 2.35,-10.77 1.87,2.01 2.5,4.65 2.95,7.27 -1.18,-0.96 -2.36,-1.93 -3.54,-2.86 -0.03,0.69 -0.1,2.08 -0.13,2.78 1.22,3 7.25,0.28 7.62,3.9 -1.68,1.38 -4.15,1.85 -5.47,3.57 -0.16,2.64 -0.06,5.31 -0.59,7.93 -1.59,-0.97 -2.07,-2.82 -2.91,-4.34 -1.12,-2.51 -3.54,-4.02 -5.27,-6.06 1.05,-0.91 2.15,-1.77 3.28,-2.59 0.71,1.13 1.9,2.38 0.5,3.78 0.79,1.09 1.72,2.08 2.76,2.95 1.14,-2.18 2.42,-4.3 3.29,-6.61 -1.21,0.27 -3.63,0.79 -4.84,1.05 z"
     id="path193" />
  <path
     fill="#000000"
     opacity="1"
     d="m 139.85,106.95 c 4.7,-0.61 10.29,-0.91 14.02,2.58 3.66,4.14 3.52,10.62 1.04,15.32 -1.32,2.43 -2.64,5.4 -5.54,6.23 -3.74,1.25 -8.65,3.05 -11.84,-0.28 -8.16,-5.68 -5.42,-19.16 2.32,-23.85 m -2.51,6.89 c 4.71,1.14 9.45,-0.77 14.11,-1.42 0.22,-4.89 -5.4,-4.36 -8.77,-4.23 -2.7,0.04 -6.91,2.58 -5.34,5.65 m -2.21,3.27 c -2.68,6.22 3.26,13.12 9.65,12.79 2.91,0.38 6.08,-0.6 6.98,-3.66 -1.81,-0.69 -4.42,-0.41 -5.31,-2.51 -0.3,-2.48 0.29,-4.94 0.51,-7.4 -3.94,0.39 -7.88,0.7 -11.83,0.78 z"
     id="path197" />
  <path
     fill="#000000"
     opacity="1"
     d="m 190.77,106.62 c 3.71,0.29 2.8,5.22 3.78,7.85 2.92,0.88 5.81,1.95 8.31,3.74 -1.23,2.58 -3.3,4.51 -5.63,6.08 -4.28,2.34 -1.18,8.97 -5.73,11.18 -1.67,-2.62 -2.57,-5.67 -4.34,-8.2 -2.14,-1.6 -4.89,-2.89 -5.73,-5.65 1.96,-2.31 5.55,-2.49 7.83,-4.55 0.26,-3.5 -0.34,-7.27 1.51,-10.45 m -0.45,11.57 c -3,2.58 -2.18,7.13 -0.5,10.23 0.6,0.94 0.94,2.73 2.42,1.93 0.5,-2.37 0.72,-4.78 1.08,-7.17 1.79,-0.85 3.65,-1.62 5.28,-2.79 1.2,-1.88 -1.38,-2.75 -2.79,-2.79 -1.8,-0.02 -4.06,-0.95 -5.49,0.59 z"
     id="path199" />
  <path
     fill="#000000"
     opacity="1"
     d="m 72.63,123.87 c -0.37,-4.14 -0.63,-8.69 1.75,-12.32 2.65,2.09 2.38,5.73 4.1,8.35 1.52,0.9 3.49,0.09 5.15,0.69 0.69,2.35 -2.04,2.99 -3.16,4.52 -0.92,1.77 -1.56,3.68 -2.67,5.35 -1.64,-2.81 -0.59,-5.42 1.36,-7.6 -1.08,-0.47 -2.16,-0.93 -3.23,-1.4 0.25,-1.95 0.68,-4.49 -1.19,-5.84 -2.07,0.96 -0.89,4.11 -1.43,6.01 0.67,0.82 2.96,1.24 2.26,2.65 -1.55,0.92 -3.21,1.62 -4.83,2.4 -0.19,0.45 -0.58,1.37 -0.78,1.82 1.21,0.09 2.42,0.18 3.63,0.27 0.61,0.45 1.84,1.35 2.45,1.8 -0.41,0.46 -0.82,0.92 -1.23,1.38 -3.16,-1.26 -6.61,-1.79 -9.48,-3.72 2.23,-1.77 4.82,-2.99 7.3,-4.36 z"
     id="path205" />
  <path
     fill="#000000"
     opacity="1"
     d="m 56.75,139.57 c 0.94,-3.36 -1.74,-7.97 0.89,-10.57 2.57,1.87 1.61,5.78 3.9,7.85 1.56,0.74 3.73,0.33 4.84,1.84 -0.1,2.46 -2.3,3.8 -4.1,5.03 0.2,3.81 0.45,7.62 0.29,11.44 -2.61,-1.92 -3.01,-5.29 -4.44,-7.98 -1,-2.75 -4.47,-2.78 -6.22,-4.83 1.15,-1.61 3.25,-1.8 4.84,-2.78 M 56,142.62 c 2.07,2.05 3.11,4.82 4.89,7.1 -0.01,-2.35 -0.83,-4.71 -0.37,-7.04 0.43,-1.68 2.6,-1.69 3.76,-2.61 -0.94,-1.04 -2.05,-1.95 -3.55,-1.8 -1.67,1.34 -3.17,2.88 -4.73,4.35 z"
     id="path211" />
  <path
     fill="#000000"
     opacity="1"
     d="m 79.89,177.56 c 0.22,-0.5 0.67,-1.51 0.89,-2.01 -0.22,0.5 -0.67,1.51 -0.89,2.01 z"
     id="path215" />
  <path
     fill="#000000"
     opacity="1"
     d="m 59.31,184.15 c 3.41,1.93 3.73,6.13 5.44,9.3 1.57,-0.02 5.06,-1.97 4.76,1.05 -0.96,2.19 -2.89,3.87 -3.58,6.18 0.4,2.79 1.22,5.53 1.15,8.38 -2.71,-0.74 -3.66,-3.59 -5.39,-5.47 -1.68,-2.57 -6.07,-0.92 -7.25,-3.98 0.9,-2.12 3.14,-3.09 4.52,-4.81 0.33,-3.54 -0.01,-7.11 0.35,-10.65 m 2.03,7.46 c -0.53,1.37 -0.09,1.87 1.32,1.49 0.54,-1.4 0.09,-1.89 -1.32,-1.49 m -1.79,5.88 c 0.17,2.63 2.6,4.25 4.26,6.01 0.05,-2.69 0.36,-5.38 0.12,-8.05 -1.66,-1.37 -3.81,0.38 -4.38,2.04 z"
     id="path217" />
  <path
     fill="#000000"
     opacity="1"
     d="m 172.33,192.4 c 1.07,-2.94 1.72,-6.05 3.31,-8.78 2.19,1.88 2.49,4.86 3.83,7.26 2.3,1.45 5.2,1.9 7.22,3.81 -0.01,3.96 -5,3.13 -7.49,4.48 -2.55,3.37 0,10.04 -4.6,11.64 -1.21,-3.17 -0.63,-7.23 -3.38,-9.61 -2.16,-1.95 -4.27,-4.16 -4.71,-7.15 1.93,-0.51 4.1,-0.53 5.82,-1.65 m -3.46,3.86 c 1.05,1.44 2.69,2.23 4.03,3.36 0.96,1.59 1.71,3.31 2.68,4.91 0.57,-2.49 0.9,-5.03 1.15,-7.57 2.28,0.55 4.48,-0.1 6.11,-1.78 -2.28,0.01 -4.32,-0.88 -6.24,-1.98 -2.31,1.62 -4.83,2.98 -7.73,3.06 z"
     id="path219" />
  <path
     fill="#000000"
     opacity="1"
     d="m 154.39,195.2 c 2.34,-2.21 1.35,-6.47 4.12,-8.27 2.01,1.51 1.53,4.43 2.41,6.6 0.51,2.26 4.59,2.19 3.87,5 -0.32,2.96 -3.68,2.88 -5.85,3.49 -2.29,2.67 0.39,7.43 -3.04,9.44 -1.62,-3.7 -1.81,-8.2 -4.79,-11.17 -1.05,-1 -1.77,-2.24 -1.96,-3.67 1.74,-0.45 3.66,-0.48 5.24,-1.42 m -0.29,1.94 c -0.1,2.57 0.34,5.1 0.95,7.59 2.35,-0.43 1.54,-3.2 1.93,-4.9 1.73,-0.34 3.99,0.26 5.22,-1.33 -1.24,-3.36 -5.48,-1.27 -8.1,-1.36 z"
     id="path221" />
  <path
     fill="#ffffff"
     opacity="1"
     d="m 169.18,37.68 c -0.44,-8.86 2,-18.72 8.51,-25.02 2.99,0.99 1.99,5.3 3.75,7.58 4.31,-0.14 8.16,-2.46 12.48,-2.52 0.17,4.57 0.87,10.57 -3.64,13.4 -4.71,2.79 -7.25,8.24 -12.41,10.36 -3.41,1.21 -4.86,5.71 -8.98,5.2 -0.12,-3.01 0.18,-6 0.29,-9 m 8.89,-5.18 c 2.61,0.01 5.26,-0.66 7.49,-2.04 3.26,-2.76 0.49,-9.17 -3.83,-8.46 -4.22,1.56 -4.99,6.7 -3.66,10.5 z"
     id="path266" />
  <path
     fill="#ffffff"
     opacity="1"
     d="m 179.97,29.29 c -1.89,-2.48 1.89,-6.55 4.06,-3.81 0.77,2.59 -2.23,3.19 -4.06,3.81 z"
     id="path268" />
  <path
     fill="#ffffff"
     opacity="1"
     d="m 143.18,39.86 c 7.09,-1.57 14.22,-3.49 21.53,-3.33 4.54,2.89 -1.08,9.89 2.45,13.52 2.92,0.88 5.59,-1.67 8.57,-1.48 1.37,13 5.41,25.59 6.2,38.67 -3.3,0.59 -6.39,1.87 -9.47,3.11 -4.04,1.64 -8.5,0.83 -12.7,1.49 -10.52,2.5 -21.2,5.02 -32.06,5 -6.23,1.36 -12.79,1.02 -18.94,-0.5 -4.4,-8.29 -3.03,-17.99 -5.3,-26.83 -1.34,-6.98 -0.34,-14.32 2.34,-20.86 0.4,-1.55 2.08,-1.9 3.36,-2.45 6.99,-2.54 14.57,-2.28 21.72,-4.12 4.03,-1.13 8.23,-1.29 12.3,-2.22 z"
     id="path270" />
  <path
     fill="#ffffff"
     opacity="1"
     d="m 109.52,116.42 c 2.56,-4.11 7.46,-5.77 11.61,-7.8 -0.66,4.66 -2.09,9.21 -2.09,13.96 -0.36,13.77 4.95,26.78 10.26,39.21 -4.84,-3.11 -7.62,-8.33 -11.24,-12.63 -2.69,-3.09 -4.18,-6.97 -6.37,-10.4 -2.79,-4.46 -4.98,-9.73 -4.24,-15.08 0.83,-2.38 1.43,-4.83 2.07,-7.26 z"
     id="path272" />
  <path
     fill="#ffffff"
     opacity="1"
     d="m 135.13,117.11 c 3.95,-0.08 7.89,-0.39 11.83,-0.78 -0.22,2.46 -0.81,4.92 -0.51,7.4 0.89,2.1 3.5,1.82 5.31,2.51 -0.9,3.06 -4.07,4.04 -6.98,3.66 -6.39,0.33 -12.33,-6.57 -9.65,-12.79 z"
     id="path274" />
  <path
     fill="#ffffff"
     opacity="1"
     d="m 103.4,124.37 c 2.47,11.41 8.55,21.7 15.97,30.58 2.48,2.98 4.91,6 7.2,9.13 -9.61,-3.43 -18.45,-8.74 -27.47,-13.33 -0.07,-8.93 0.64,-18.12 4.3,-26.38 z"
     id="path276" />
  <path
     fill="#004000"
     opacity="1"
     d="m 155.25,95.96 c 2.43,-0.62 4.96,-0.58 7.46,-0.56 4.34,15.35 2.24,31.64 -1.41,46.9 -1.43,5.09 -2.04,10.51 -4.7,15.17 -3.19,5.84 -5.02,12.29 -7.91,18.27 -2.79,-0.1 -5.57,-0.17 -8.34,0 1.63,1.11 3.51,1.73 5.42,2.21 0.05,1.46 0.33,3.01 -0.5,4.34 -4.51,8.54 -9.5,16.88 -12.9,25.96 -1.29,3.03 -2.37,6.3 -4.68,8.74 -2.34,0.11 -1.96,-2.51 -2.49,-4.06 -2.53,-13.18 -12.21,-23.48 -15.56,-36.37 -1.61,-7.15 -7.44,-12.84 -7.33,-20.43 6.54,1.04 11.79,5.45 17.69,8.14 4.98,2.09 9.96,5.12 15.59,4.17 -1.88,-4.53 -5.33,-8.25 -6.65,-13.03 -4.96,-12.86 -9.07,-26.69 -6.89,-40.6 0.89,-5.05 2.92,-9.82 5.7,-14.1 9.2,-1.34 18.48,-2.39 27.5,-4.75 m -15.4,10.99 c -7.74,4.69 -10.48,18.17 -2.32,23.85 3.19,3.33 8.1,1.53 11.84,0.28 2.9,-0.83 4.22,-3.8 5.54,-6.23 2.48,-4.7 2.62,-11.18 -1.04,-15.32 -3.73,-3.49 -9.32,-3.19 -14.02,-2.58 z"
     id="path717" />
  <path
     fill="#004000"
     opacity="1"
     d="m 137.34,113.84 c -1.57,-3.07 2.64,-5.61 5.34,-5.65 3.37,-0.13 8.99,-0.66 8.77,4.23 -4.66,0.65 -9.4,2.56 -14.11,1.42 z"
     id="path719" />
  <path
     fill="#004000"
     opacity="1"
     d="m 183.85,141.87 c 1.39,-0.98 2.49,1.58 1.43,2.49 -1.44,1.04 -2.5,-1.58 -1.43,-2.49 z"
     id="path721" />
  <path
     fill="#004000"
     opacity="1"
     d="m 176.46,155.04 c -1.59,-4.46 -0.18,-9.39 2.61,-13.04 2.18,2.73 1.21,6.41 0.52,9.49 -0.53,1.68 -0.71,4.16 -3.13,3.55 z"
     id="path723" />
  <path
     fill="#004000"
     opacity="1"
     d="m 181.79,153.51 c 3.57,-0.42 1.59,5.71 -1.34,4.35 -0.15,-1.52 -0.22,-3.49 1.34,-4.35 z"
     id="path725" />
  <path
     fill="#004000"
     opacity="1"
     d="m 74.04,166.93 c 2.23,-1.24 2.47,3.19 0.4,3.36 -1.59,-0.18 -1.36,-2.57 -0.4,-3.36 z"
     id="path727" />
  <path
     fill="#004000"
     opacity="1"
     d="m 73.07,177.42 c 1,-3.36 4.11,-4.75 7.38,-4.94 0.08,0.77 0.25,2.31 0.33,3.07 -0.22,0.5 -0.67,1.51 -0.89,2.01 -0.74,1.08 -1.51,2.14 -2.41,3.1 -1.51,0.06 -2.54,-1.31 -3.73,-2.03 -0.04,0.66 -0.14,1.96 -0.18,2.61 -1.59,-0.88 -3.58,-1.35 -4.65,-2.91 -0.27,-1.32 -0.47,-2.64 -0.61,-3.96 1.4,0.02 2.81,0.05 4.22,0.08 0.17,0.98 0.35,1.98 0.54,2.97 z"
     id="path729" />
  <path
     fill="#004000"
     opacity="1"
     d="m 107.21,208.38 c 1.33,0.27 2.66,0.56 3.99,0.87 -0.24,0.96 -0.73,2.9 -0.97,3.86 -1.49,-1.24 -2.41,-2.93 -3.02,-4.73 z"
     id="path731" />
  <path
     fill="#004000"
     opacity="1"
     d="m 144.77,231.33 c 5.21,-1.36 4.48,7.14 -0.17,6.72 0.02,-2.25 0.09,-4.48 0.17,-6.72 z"
     id="path733" />
  <g
     id="#393939ff"
     transform="translate(-310.29,-257.4)">
    <path
       fill="#393939"
       opacity="1"
       d="m 310.29,259.33 c 0.54,0.48 0.54,0.48 0,0 z"
       id="path861" />
    <path
       fill="#393939"
       opacity="1"
       d="m 428.28,549.47 c 1.16,-0.95 3.62,0.72 2.56,2.1 -1.23,1.08 -3.46,-0.72 -2.56,-2.1 z"
       id="path863" />
  </g>
  <path
     fill="#010101"
     opacity="1"
     d="m 91.38,12.84 c 0.51,-0.21 1.51,-0.64 2.01,-0.85 0.08,0.92 0.23,2.77 0.31,3.7 -1.34,1.72 -6.23,3.17 -3.89,5.54 1.91,2.03 2.66,-1.52 4.43,-1.18 1.24,2 -0.71,3.02 -1.72,4.22 l -0.41,-1.48 c -2.85,0.65 -5.15,-0.82 -6.6,-3.19 2.6,-1.53 6.08,-3.16 5.87,-6.76 z"
     id="path875" />
  <path
     fill="#010101"
     opacity="1"
     d="m 178.07,32.5 c -1.33,-3.8 -0.56,-8.94 3.66,-10.5 4.32,-0.71 7.09,5.7 3.83,8.46 -2.23,1.38 -4.88,2.05 -7.49,2.04 m 1.9,-3.21 c 1.83,-0.62 4.83,-1.22 4.06,-3.81 -2.17,-2.74 -5.95,1.33 -4.06,3.81 z"
     id="path877" />
  <path
     fill="#010101"
     opacity="1"
     d="m 71.43,42.3 c 1.53,-3.61 0.48,-8.12 3.23,-11.26 3.16,-0.39 2.76,3.57 3.05,5.6 -0.07,4.43 5.09,5 8.24,6.27 -1.65,3.43 -6.49,5.3 -9.77,3.19 1.91,-0.46 3.86,-0.84 5.79,-1.23 0.05,-0.47 0.16,-1.39 0.21,-1.86 -1.53,-0.18 -3.05,-0.34 -4.56,-0.49 -0.56,-0.97 -1.11,-1.94 -1.65,-2.9 0.31,-2.02 0.51,-4.05 0.48,-6.09 -3.72,1.79 -2.65,6.66 -2.89,10.01 -1.75,0.76 -3.51,1.48 -5.2,2.37 0.07,2.01 2.57,1.53 3.89,2.29 0.85,1.69 1.22,3.57 1.76,5.38 -0.33,-0.04 -1.01,-0.12 -1.34,-0.16 0.49,-4.93 -5.75,-4.67 -7.37,-8.43 2.01,-0.85 4.73,-0.79 6.13,-2.69 z"
     id="path879" />
  <path
     fill="#010101"
     opacity="1"
     d="m 76.93,48.76 c 3.16,3.05 -0.47,7.75 -0.99,11.33 -0.56,-1.46 -3.91,-4.07 -1.55,-5.3 0.4,0.19 1.2,0.56 1.6,0.74 0.32,-2.25 0.58,-4.52 0.94,-6.77 z"
     id="path881" />
  <g
     id="#6dc8efff"
     transform="translate(-310.29,-257.4)">
    <path
       fill="#6dc8ef"
       opacity="1"
       d="m 508.23,274.29 c 1.66,-0.34 1.56,3.7 -0.06,3.36 -0.38,-1.13 -0.36,-2.25 0.06,-3.36 z"
       id="path910" />
  </g>
  <g
     id="#040404ff"
     transform="translate(-310.29,-257.4)">
    <path
       fill="#040404"
       opacity="1"
       d="m 387.49,391.09 c 0.76,-1.33 1.57,-2.63 2.46,-3.88 0.37,3.63 1.51,7.43 0.01,10.98 -1.94,-1.98 -3.06,-4.52 -4.29,-6.94 0.41,-0.67 0.84,-1.32 1.28,-1.96 z"
       id="path949" />
  </g>
  <g
     id="#a2cbdcff"
     transform="translate(-310.29,-257.4)">
    <path
       fill="#a2cbdc"
       opacity="1"
       d="m 412.37,438.38 0.19,-0.19 -0.17,0.2 -0.24,0.14 z"
       id="path963" />
  </g>
  <g
     id="#525050ff"
     transform="translate(-310.29,-257.4)">
    <path
       fill="#525050"
       opacity="1"
       d="m 427.06,489.29 c 3.31,0.31 -1.69,2.89 0,0 z"
       id="path1073" />
  </g>
  <g
     id="#eaeaeaff"
     transform="translate(-310.29,-257.4)">
    <path
       fill="#eaeaea"
       opacity="1"
       d="m 431.73,491.18 c 3.32,2.97 5.71,6.76 8.37,10.3 0.44,1.39 0.94,2.77 1.61,4.08 0.65,1.06 1.32,2.11 1.99,3.16 -1.07,1.1 -2.1,2.24 -3.14,3.37 -0.81,-0.72 -1.61,-1.45 -2.4,-2.17 0.76,-0.93 1.41,-1.94 2.06,-2.94 -0.73,-0.38 -2.19,-1.12 -2.92,-1.49 0.67,-1 1.2,-2.07 1.57,-3.2 -1.51,0 -3,0.16 -4.49,0.3 0.5,-1.14 1.04,-2.28 1.43,-3.46 -1.51,-2.58 -4.46,-4.6 -4.08,-7.95 z"
       id="path1079" />
  </g>
</svg>
